<svg width="340" height="296" viewBox="0 0 340 296" fill="none" xmlns="http://www.w3.org/2000/svg">
<g id="Group 770567">
<g id="Group 770563">
<path id="Rectangle 420" d="M0 13.0049C0 5.8225 5.8225 0 13.0049 0H326.995C334.178 0 340 5.8225 340 13.0049V282.995C340 290.178 334.178 296 326.995 296H13.0049C5.82249 296 0 290.177 0 282.995V13.0049Z" fill="white" fill-opacity="0.29"/>
<path id="Vector 5 (Stroke)" opacity="0.2" fill-rule="evenodd" clip-rule="evenodd" d="M50.5 217V97H51.5V217H50.5Z" fill="white"/>
<path id="Vector 6 (Stroke)" opacity="0.2" fill-rule="evenodd" clip-rule="evenodd" d="M130.5 217V97H131.5V217H130.5Z" fill="white"/>
<path id="Vector 7 (Stroke)" opacity="0.2" fill-rule="evenodd" clip-rule="evenodd" d="M210.5 217V97H211.5V217H210.5Z" fill="white"/>
<path id="Vector 8 (Stroke)" opacity="0.2" fill-rule="evenodd" clip-rule="evenodd" d="M290.5 217V97H291.5V217H290.5Z" fill="white"/>
<g id="Group 770559">
<g id="29&#194;&#176;">
<path id="Vector" d="M59.8969 253.994C59.4582 253.994 59.0662 253.896 58.7209 253.7C58.3756 253.495 58.1002 253.22 57.8949 252.874C57.6896 252.52 57.5869 252.132 57.5869 251.712C57.5869 251.274 57.6896 250.882 57.8949 250.536C58.1002 250.191 58.3756 249.916 58.7209 249.71C59.0662 249.505 59.4582 249.402 59.8969 249.402C60.3262 249.402 60.7136 249.505 61.0589 249.71C61.4136 249.916 61.6936 250.191 61.8989 250.536C62.1042 250.882 62.2069 251.274 62.2069 251.712C62.2069 252.132 62.1042 252.52 61.8989 252.874C61.6936 253.22 61.4136 253.495 61.0589 253.7C60.7136 253.896 60.3262 253.994 59.8969 253.994ZM59.8829 252.86C60.2096 252.86 60.4849 252.753 60.7089 252.538C60.9422 252.314 61.0589 252.039 61.0589 251.712C61.0589 251.367 60.9422 251.087 60.7089 250.872C60.4756 250.648 60.2002 250.536 59.8829 250.536C59.5562 250.536 59.2809 250.648 59.0569 250.872C58.8329 251.087 58.7209 251.367 58.7209 251.712C58.7209 252.039 58.8329 252.314 59.0569 252.538C59.2809 252.753 59.5562 252.86 59.8829 252.86Z" fill="white"/>
<path id="Vector_2" d="M49.4175 260L52.9875 255.38L53.2675 255.562C53.1368 255.702 52.9922 255.814 52.8335 255.898C52.6842 255.982 52.5208 256.043 52.3435 256.08C52.1755 256.118 51.9935 256.136 51.7975 256.136C51.1722 256.136 50.6122 255.996 50.1175 255.716C49.6228 255.427 49.2308 255.035 48.9415 254.54C48.6615 254.036 48.5215 253.467 48.5215 252.832C48.5215 252.17 48.6755 251.582 48.9835 251.068C49.2915 250.555 49.7115 250.149 50.2435 249.85C50.7755 249.552 51.3822 249.402 52.0635 249.402C52.7542 249.402 53.3608 249.552 53.8835 249.85C54.4155 250.149 54.8308 250.56 55.1295 251.082C55.4375 251.596 55.5915 252.184 55.5915 252.846C55.5915 253.201 55.5542 253.551 55.4795 253.896C55.4048 254.242 55.2742 254.601 55.0875 254.974C54.9008 255.338 54.6395 255.74 54.3035 256.178L51.3915 260H49.4175ZM52.0635 254.75C52.4275 254.75 52.7495 254.666 53.0295 254.498C53.3095 254.33 53.5335 254.102 53.7015 253.812C53.8695 253.523 53.9535 253.192 53.9535 252.818C53.9535 252.436 53.8695 252.1 53.7015 251.81C53.5335 251.512 53.3048 251.283 53.0155 251.124C52.7355 250.956 52.4182 250.872 52.0635 250.872C51.7088 250.872 51.3868 250.956 51.0975 251.124C50.8175 251.283 50.5935 251.512 50.4255 251.81C50.2575 252.1 50.1735 252.436 50.1735 252.818C50.1735 253.192 50.2528 253.523 50.4115 253.812C50.5795 254.102 50.8082 254.33 51.0975 254.498C51.3868 254.666 51.7088 254.75 52.0635 254.75Z" fill="white"/>
<path id="Vector_3" d="M40.196 260V258.81L43.052 255.758C43.612 255.161 44.0506 254.68 44.368 254.316C44.6946 253.943 44.928 253.616 45.068 253.336C45.2173 253.056 45.292 252.762 45.292 252.454C45.292 251.95 45.138 251.563 44.83 251.292C44.522 251.012 44.1253 250.872 43.64 250.872C43.136 250.872 42.702 251.017 42.338 251.306C41.974 251.586 41.722 251.997 41.582 252.538L40.126 252.118C40.238 251.568 40.462 251.092 40.798 250.69C41.134 250.28 41.5446 249.962 42.03 249.738C42.5246 249.514 43.0566 249.402 43.626 249.402C44.2886 249.402 44.8673 249.528 45.362 249.78C45.8566 250.023 46.2393 250.364 46.51 250.802C46.79 251.241 46.93 251.75 46.93 252.328C46.93 252.711 46.8553 253.084 46.706 253.448C46.566 253.803 46.3466 254.181 46.048 254.582C45.7493 254.974 45.3666 255.418 44.9 255.912L42.38 258.6H47.126V260H40.196Z" fill="white"/>
</g>
<g id="Morning">
<path id="Vector_4" d="M70.5776 234.638C70.1376 234.638 69.7296 234.57 69.3536 234.434C68.9856 234.298 68.6656 234.11 68.3936 233.87C68.1296 233.638 67.9256 233.366 67.7816 233.054L68.6096 232.61C68.7376 232.914 68.9656 233.178 69.2936 233.402C69.6216 233.626 70.0416 233.738 70.5536 233.738C70.9456 233.738 71.3056 233.662 71.6336 233.51C71.9616 233.358 72.2256 233.134 72.4256 232.838C72.6256 232.542 72.7256 232.178 72.7256 231.746V230.318L72.8696 230.45C72.6456 230.914 72.3136 231.274 71.8736 231.53C71.4336 231.778 70.9536 231.902 70.4336 231.902C69.8336 231.902 69.2936 231.758 68.8136 231.47C68.3336 231.182 67.9536 230.794 67.6736 230.306C67.4016 229.81 67.2656 229.262 67.2656 228.662C67.2656 228.054 67.4016 227.506 67.6736 227.018C67.9536 226.53 68.3296 226.142 68.8016 225.854C69.2816 225.566 69.8256 225.422 70.4336 225.422C70.9536 225.422 71.4256 225.542 71.8496 225.782C72.2816 226.022 72.6216 226.346 72.8696 226.754L72.7256 227.006V225.566H73.6256V231.746C73.6256 232.298 73.4936 232.79 73.2296 233.222C72.9736 233.662 72.6136 234.006 72.1496 234.254C71.6936 234.51 71.1696 234.638 70.5776 234.638ZM70.4816 231.002C70.8976 231.002 71.2736 230.898 71.6096 230.69C71.9456 230.474 72.2136 230.19 72.4136 229.838C72.6216 229.478 72.7256 229.086 72.7256 228.662C72.7256 228.238 72.6216 227.85 72.4136 227.498C72.2136 227.138 71.9456 226.854 71.6096 226.646C71.2736 226.43 70.8976 226.322 70.4816 226.322C70.0576 226.322 69.6736 226.43 69.3296 226.646C68.9856 226.854 68.7136 227.134 68.5136 227.486C68.3216 227.838 68.2256 228.23 68.2256 228.662C68.2256 229.086 68.3216 229.478 68.5136 229.838C68.7136 230.19 68.9816 230.474 69.3176 230.69C69.6616 230.898 70.0496 231.002 70.4816 231.002Z" fill="white"/>
<path id="Vector_5" d="M60.6504 231.998V225.566H61.5504V226.814L61.3464 226.766C61.5064 226.35 61.7664 226.022 62.1264 225.782C62.4944 225.542 62.9184 225.422 63.3984 225.422C63.8544 225.422 64.2624 225.526 64.6224 225.734C64.9904 225.942 65.2784 226.23 65.4864 226.598C65.7024 226.958 65.8104 227.366 65.8104 227.822V231.998H64.9104V228.17C64.9104 227.778 64.8384 227.446 64.6944 227.174C64.5584 226.902 64.3624 226.694 64.1064 226.55C63.8584 226.398 63.5704 226.322 63.2424 226.322C62.9144 226.322 62.6224 226.398 62.3664 226.55C62.1104 226.694 61.9104 226.906 61.7664 227.186C61.6224 227.458 61.5504 227.786 61.5504 228.17V231.998H60.6504Z" fill="white"/>
<path id="Vector_6" d="M57.9082 231.999V225.567H58.8082V231.999H57.9082ZM57.9082 224.379V223.059H58.8082V224.379H57.9082Z" fill="white"/>
<path id="Vector_7" d="M51.0293 231.998V225.566H51.9293V226.814L51.7253 226.766C51.8853 226.35 52.1453 226.022 52.5053 225.782C52.8733 225.542 53.2973 225.422 53.7773 225.422C54.2333 225.422 54.6413 225.526 55.0013 225.734C55.3693 225.942 55.6573 226.23 55.8653 226.598C56.0813 226.958 56.1893 227.366 56.1893 227.822V231.998H55.2893V228.17C55.2893 227.778 55.2173 227.446 55.0733 227.174C54.9373 226.902 54.7413 226.694 54.4853 226.55C54.2373 226.398 53.9493 226.322 53.6213 226.322C53.2933 226.322 53.0013 226.398 52.7453 226.55C52.4893 226.694 52.2893 226.906 52.1453 227.186C52.0013 227.458 51.9293 227.786 51.9293 228.17V231.998H51.0293Z" fill="white"/>
<path id="Vector_8" d="M46.9746 232V225.568H47.8746V226.624L47.7546 226.468C47.9066 226.164 48.1346 225.924 48.4386 225.748C48.7506 225.572 49.1266 225.484 49.5666 225.484H49.9746V226.384H49.4106C48.9466 226.384 48.5746 226.528 48.2946 226.816C48.0146 227.104 47.8746 227.512 47.8746 228.04V232H46.9746Z" fill="white"/>
<path id="Vector_9" d="M42.1227 232.142C41.5147 232.142 40.9627 231.998 40.4667 231.71C39.9707 231.414 39.5747 231.014 39.2787 230.51C38.9907 229.998 38.8467 229.418 38.8467 228.77C38.8467 228.13 38.9907 227.558 39.2787 227.054C39.5667 226.55 39.9547 226.154 40.4427 225.866C40.9387 225.57 41.4987 225.422 42.1227 225.422C42.7467 225.422 43.3027 225.566 43.7907 225.854C44.2867 226.142 44.6747 226.538 44.9547 227.042C45.2427 227.546 45.3867 228.122 45.3867 228.77C45.3867 229.426 45.2387 230.01 44.9427 230.522C44.6467 231.026 44.2507 231.422 43.7547 231.71C43.2667 231.998 42.7227 232.142 42.1227 232.142ZM42.1227 231.242C42.5547 231.242 42.9427 231.134 43.2867 230.918C43.6387 230.702 43.9147 230.406 44.1147 230.03C44.3227 229.654 44.4267 229.234 44.4267 228.77C44.4267 228.306 44.3227 227.89 44.1147 227.522C43.9147 227.154 43.6387 226.862 43.2867 226.646C42.9427 226.43 42.5547 226.322 42.1227 226.322C41.6907 226.322 41.2987 226.43 40.9467 226.646C40.6027 226.862 40.3267 227.154 40.1187 227.522C39.9107 227.89 39.8067 228.306 39.8067 228.77C39.8067 229.234 39.9107 229.654 40.1187 230.03C40.3267 230.406 40.6027 230.702 40.9467 230.918C41.2987 231.134 41.6907 231.242 42.1227 231.242Z" fill="white"/>
<path id="Vector_10" d="M29.2119 231.999V223.059H30.0519L33.4119 227.931H32.9439L36.2919 223.059H37.1319V231.999H36.1719V224.355L36.4839 224.475L33.1959 229.239H33.1479L29.8719 224.475L30.1719 224.355V231.999H29.2119Z" fill="white"/>
</g>
</g>
<g id="Group 770558">
<g id="32&#194;&#176;">
<path id="Vector_11" d="M139.974 253.99C139.535 253.99 139.143 253.892 138.798 253.696C138.453 253.491 138.177 253.216 137.972 252.87C137.767 252.516 137.664 252.128 137.664 251.708C137.664 251.27 137.767 250.878 137.972 250.532C138.177 250.187 138.453 249.912 138.798 249.706C139.143 249.501 139.535 249.398 139.974 249.398C140.403 249.398 140.791 249.501 141.136 249.706C141.491 249.912 141.771 250.187 141.976 250.532C142.181 250.878 142.284 251.27 142.284 251.708C142.284 252.128 142.181 252.516 141.976 252.87C141.771 253.216 141.491 253.491 141.136 253.696C140.791 253.892 140.403 253.99 139.974 253.99ZM139.96 252.856C140.287 252.856 140.562 252.749 140.786 252.534C141.019 252.31 141.136 252.035 141.136 251.708C141.136 251.363 141.019 251.083 140.786 250.868C140.553 250.644 140.277 250.532 139.96 250.532C139.633 250.532 139.358 250.644 139.134 250.868C138.91 251.083 138.798 251.363 138.798 251.708C138.798 252.035 138.91 252.31 139.134 252.534C139.358 252.749 139.633 252.856 139.96 252.856Z" fill="white"/>
<path id="Vector_12" d="M128.679 259.996V258.806L131.535 255.754C132.095 255.157 132.534 254.676 132.851 254.312C133.178 253.939 133.411 253.612 133.551 253.332C133.701 253.052 133.775 252.758 133.775 252.45C133.775 251.946 133.621 251.559 133.313 251.288C133.005 251.008 132.609 250.868 132.123 250.868C131.619 250.868 131.185 251.013 130.821 251.302C130.457 251.582 130.205 251.993 130.065 252.534L128.609 252.114C128.721 251.564 128.945 251.088 129.281 250.686C129.617 250.276 130.028 249.958 130.513 249.734C131.008 249.51 131.54 249.398 132.109 249.398C132.772 249.398 133.351 249.524 133.845 249.776C134.34 250.019 134.723 250.36 134.993 250.798C135.273 251.237 135.413 251.746 135.413 252.324C135.413 252.707 135.339 253.08 135.189 253.444C135.049 253.799 134.83 254.177 134.531 254.578C134.233 254.97 133.85 255.414 133.383 255.908L130.863 258.596H135.609V259.996H128.679Z" fill="white"/>
<path id="Vector_13" d="M123.523 260.164C122.963 260.164 122.436 260.062 121.941 259.856C121.456 259.651 121.036 259.362 120.681 258.988C120.336 258.615 120.089 258.176 119.939 257.672L121.339 257.14C121.526 257.635 121.811 258.018 122.193 258.288C122.576 258.559 123.019 258.694 123.523 258.694C123.934 258.694 124.289 258.615 124.587 258.456C124.895 258.298 125.133 258.074 125.301 257.784C125.479 257.495 125.567 257.145 125.567 256.734C125.567 256.333 125.479 255.988 125.301 255.698C125.133 255.409 124.895 255.19 124.587 255.04C124.289 254.891 123.934 254.816 123.523 254.816C123.355 254.816 123.183 254.83 123.005 254.858C122.837 254.886 122.688 254.924 122.557 254.97L122.193 254.2L124.937 250.966H120.499V249.566H126.785V250.896L124.097 254.116L124.055 253.584C124.681 253.594 125.231 253.734 125.707 254.004C126.183 254.266 126.552 254.63 126.813 255.096C127.084 255.554 127.219 256.086 127.219 256.692C127.219 257.346 127.061 257.938 126.743 258.47C126.426 258.993 125.987 259.408 125.427 259.716C124.877 260.015 124.242 260.164 123.523 260.164Z" fill="white"/>
</g>
<g id="Afternon">
<path id="Vector_14" d="M150.006 231.998V225.566H150.906V226.814L150.702 226.766C150.862 226.35 151.122 226.022 151.482 225.782C151.85 225.542 152.274 225.422 152.754 225.422C153.21 225.422 153.618 225.526 153.978 225.734C154.346 225.942 154.634 226.23 154.842 226.598C155.058 226.958 155.166 227.366 155.166 227.822V231.998H154.266V228.17C154.266 227.778 154.194 227.446 154.05 227.174C153.914 226.902 153.718 226.694 153.462 226.55C153.214 226.398 152.926 226.322 152.598 226.322C152.27 226.322 151.978 226.398 151.722 226.55C151.466 226.694 151.266 226.906 151.122 227.186C150.978 227.458 150.906 227.786 150.906 228.17V231.998H150.006Z" fill="white"/>
<path id="Vector_15" d="M145.153 232.142C144.545 232.142 143.993 231.998 143.497 231.71C143.001 231.414 142.605 231.014 142.309 230.51C142.021 229.998 141.877 229.418 141.877 228.77C141.877 228.13 142.021 227.558 142.309 227.054C142.597 226.55 142.985 226.154 143.473 225.866C143.969 225.57 144.529 225.422 145.153 225.422C145.777 225.422 146.333 225.566 146.821 225.854C147.317 226.142 147.705 226.538 147.985 227.042C148.273 227.546 148.417 228.122 148.417 228.77C148.417 229.426 148.269 230.01 147.973 230.522C147.677 231.026 147.281 231.422 146.785 231.71C146.297 231.998 145.753 232.142 145.153 232.142ZM145.153 231.242C145.585 231.242 145.973 231.134 146.317 230.918C146.669 230.702 146.945 230.406 147.145 230.03C147.353 229.654 147.457 229.234 147.457 228.77C147.457 228.306 147.353 227.89 147.145 227.522C146.945 227.154 146.669 226.862 146.317 226.646C145.973 226.43 145.585 226.322 145.153 226.322C144.721 226.322 144.329 226.43 143.977 226.646C143.633 226.862 143.357 227.154 143.149 227.522C142.941 227.89 142.837 228.306 142.837 228.77C142.837 229.234 142.941 229.654 143.149 230.03C143.357 230.406 143.633 230.702 143.977 230.918C144.329 231.134 144.721 231.242 145.153 231.242Z" fill="white"/>
<path id="Vector_16" d="M135.264 231.998V225.566H136.164V226.814L135.96 226.766C136.12 226.35 136.38 226.022 136.74 225.782C137.108 225.542 137.532 225.422 138.012 225.422C138.468 225.422 138.876 225.526 139.236 225.734C139.604 225.942 139.892 226.23 140.1 226.598C140.316 226.958 140.424 227.366 140.424 227.822V231.998H139.524V228.17C139.524 227.778 139.452 227.446 139.308 227.174C139.172 226.902 138.976 226.694 138.72 226.55C138.472 226.398 138.184 226.322 137.856 226.322C137.528 226.322 137.236 226.398 136.98 226.55C136.724 226.694 136.524 226.906 136.38 227.186C136.236 227.458 136.164 227.786 136.164 228.17V231.998H135.264Z" fill="white"/>
<path id="Vector_17" d="M131.209 231.996V225.564H132.109V226.62L131.989 226.464C132.141 226.16 132.369 225.92 132.673 225.744C132.985 225.568 133.361 225.48 133.801 225.48H134.209V226.38H133.645C133.181 226.38 132.809 226.524 132.529 226.812C132.249 227.1 132.109 227.508 132.109 228.036V231.996H131.209Z" fill="white"/>
<path id="Vector_18" d="M126.753 232.142C126.153 232.142 125.609 231.998 125.121 231.71C124.641 231.414 124.261 231.01 123.981 230.498C123.701 229.986 123.561 229.406 123.561 228.758C123.561 228.11 123.697 227.538 123.969 227.042C124.241 226.538 124.609 226.142 125.073 225.854C125.545 225.566 126.073 225.422 126.657 225.422C127.121 225.422 127.533 225.51 127.893 225.686C128.261 225.854 128.573 226.086 128.829 226.382C129.085 226.67 129.281 226.998 129.417 227.366C129.553 227.726 129.621 228.098 129.621 228.482C129.621 228.562 129.617 228.654 129.609 228.758C129.601 228.854 129.589 228.954 129.573 229.058H124.137V228.218H129.057L128.625 228.578C128.697 228.138 128.645 227.746 128.469 227.402C128.301 227.05 128.057 226.774 127.737 226.574C127.417 226.366 127.057 226.262 126.657 226.262C126.257 226.262 125.885 226.366 125.541 226.574C125.205 226.782 124.941 227.074 124.749 227.45C124.557 227.818 124.481 228.258 124.521 228.77C124.481 229.282 124.561 229.73 124.761 230.114C124.969 230.49 125.249 230.782 125.601 230.99C125.961 231.198 126.345 231.302 126.753 231.302C127.225 231.302 127.621 231.19 127.941 230.966C128.261 230.742 128.521 230.462 128.721 230.126L129.489 230.534C129.361 230.822 129.165 231.09 128.901 231.338C128.637 231.578 128.321 231.774 127.953 231.926C127.593 232.07 127.193 232.142 126.753 232.142Z" fill="white"/>
<path id="Vector_19" d="M121.867 232.07C121.291 232.07 120.847 231.902 120.535 231.566C120.223 231.23 120.067 230.75 120.067 230.126V226.466H118.879V225.566H119.179C119.451 225.566 119.667 225.478 119.827 225.302C119.987 225.118 120.067 224.89 120.067 224.618V224.078H120.967V225.566H122.383V226.466H120.967V230.126C120.967 230.342 120.999 230.534 121.063 230.702C121.127 230.862 121.235 230.99 121.387 231.086C121.547 231.182 121.759 231.23 122.023 231.23C122.087 231.23 122.163 231.226 122.251 231.218C122.339 231.21 122.415 231.202 122.479 231.194V231.998C122.383 232.022 122.275 232.038 122.155 232.046C122.035 232.062 121.939 232.07 121.867 232.07Z" fill="white"/>
<path id="Vector_20" d="M115.239 231.998V226.466H113.955V225.566H115.239V224.99C115.239 224.542 115.339 224.166 115.539 223.862C115.739 223.55 116.003 223.314 116.331 223.154C116.659 222.994 117.011 222.914 117.387 222.914C117.467 222.914 117.559 222.922 117.663 222.938C117.767 222.946 117.851 222.958 117.915 222.974V223.79C117.859 223.774 117.783 223.766 117.687 223.766C117.591 223.758 117.523 223.754 117.483 223.754C117.099 223.754 116.779 223.846 116.523 224.03C116.267 224.214 116.139 224.534 116.139 224.99V225.566H117.711V226.466H116.139V231.998H115.239Z" fill="white"/>
<path id="Vector_21" d="M106.193 231.999L109.457 223.059H110.489L113.753 231.999H112.745L111.977 229.815H107.981L107.201 231.999H106.193ZM108.293 228.915H111.641L109.829 223.779H110.117L108.293 228.915Z" fill="white"/>
</g>
</g>
<g id="Group 770560">
<g id="30&#194;&#176;">
<path id="Vector_22" d="M220.3 253.994C219.862 253.994 219.47 253.896 219.124 253.7C218.779 253.495 218.504 253.22 218.298 252.874C218.093 252.52 217.99 252.132 217.99 251.712C217.99 251.274 218.093 250.882 218.298 250.536C218.504 250.191 218.779 249.916 219.124 249.71C219.47 249.505 219.862 249.402 220.3 249.402C220.73 249.402 221.117 249.505 221.462 249.71C221.817 249.916 222.097 250.191 222.302 250.536C222.508 250.882 222.61 251.274 222.61 251.712C222.61 252.132 222.508 252.52 222.302 252.874C222.097 253.22 221.817 253.495 221.462 253.7C221.117 253.896 220.73 253.994 220.3 253.994ZM220.286 252.86C220.613 252.86 220.888 252.753 221.112 252.538C221.346 252.314 221.462 252.039 221.462 251.712C221.462 251.367 221.346 251.087 221.112 250.872C220.879 250.648 220.604 250.536 220.286 250.536C219.96 250.536 219.684 250.648 219.46 250.872C219.236 251.087 219.124 251.367 219.124 251.712C219.124 252.039 219.236 252.314 219.46 252.538C219.684 252.753 219.96 252.86 220.286 252.86Z" fill="white"/>
<path id="Vector_23" d="M211.678 260.168C210.847 260.168 210.119 259.944 209.494 259.496C208.869 259.039 208.379 258.409 208.024 257.606C207.679 256.794 207.506 255.852 207.506 254.778C207.506 253.696 207.679 252.753 208.024 251.95C208.379 251.148 208.864 250.522 209.48 250.074C210.105 249.626 210.833 249.402 211.664 249.402C212.495 249.402 213.218 249.626 213.834 250.074C214.459 250.522 214.945 251.152 215.29 251.964C215.645 252.767 215.822 253.705 215.822 254.778C215.822 255.852 215.649 256.794 215.304 257.606C214.959 258.409 214.473 259.039 213.848 259.496C213.232 259.944 212.509 260.168 211.678 260.168ZM211.678 258.656C212.191 258.656 212.635 258.498 213.008 258.18C213.381 257.863 213.671 257.415 213.876 256.836C214.081 256.258 214.184 255.572 214.184 254.778C214.184 253.985 214.081 253.299 213.876 252.72C213.671 252.142 213.381 251.694 213.008 251.376C212.635 251.059 212.187 250.9 211.664 250.9C211.151 250.9 210.707 251.059 210.334 251.376C209.961 251.694 209.671 252.142 209.466 252.72C209.261 253.299 209.158 253.985 209.158 254.778C209.158 255.562 209.261 256.248 209.466 256.836C209.671 257.415 209.961 257.863 210.334 258.18C210.717 258.498 211.165 258.656 211.678 258.656Z" fill="white"/>
<path id="Vector_24" d="M202.195 260.168C201.635 260.168 201.108 260.066 200.613 259.86C200.128 259.655 199.708 259.366 199.353 258.992C199.008 258.619 198.761 258.18 198.611 257.676L200.011 257.144C200.198 257.639 200.483 258.022 200.865 258.292C201.248 258.563 201.691 258.698 202.195 258.698C202.606 258.698 202.961 258.619 203.259 258.46C203.567 258.302 203.805 258.078 203.973 257.788C204.151 257.499 204.239 257.149 204.239 256.738C204.239 256.337 204.151 255.992 203.973 255.702C203.805 255.413 203.567 255.194 203.259 255.044C202.961 254.895 202.606 254.82 202.195 254.82C202.027 254.82 201.855 254.834 201.677 254.862C201.509 254.89 201.36 254.928 201.229 254.974L200.865 254.204L203.609 250.97H199.171V249.57H205.457V250.9L202.769 254.12L202.727 253.588C203.353 253.598 203.903 253.738 204.379 254.008C204.855 254.27 205.224 254.634 205.485 255.1C205.756 255.558 205.891 256.09 205.891 256.696C205.891 257.35 205.733 257.942 205.415 258.474C205.098 258.997 204.659 259.412 204.099 259.72C203.549 260.019 202.914 260.168 202.195 260.168Z" fill="white"/>
</g>
<g id="Evening">
<path id="Vector_25" d="M229.701 234.638C229.261 234.638 228.853 234.57 228.477 234.434C228.109 234.298 227.789 234.11 227.517 233.87C227.253 233.638 227.049 233.366 226.905 233.054L227.733 232.61C227.861 232.914 228.089 233.178 228.417 233.402C228.745 233.626 229.165 233.738 229.677 233.738C230.069 233.738 230.429 233.662 230.757 233.51C231.085 233.358 231.349 233.134 231.549 232.838C231.749 232.542 231.849 232.178 231.849 231.746V230.318L231.993 230.45C231.769 230.914 231.437 231.274 230.997 231.53C230.557 231.778 230.077 231.902 229.557 231.902C228.957 231.902 228.417 231.758 227.937 231.47C227.457 231.182 227.077 230.794 226.797 230.306C226.525 229.81 226.389 229.262 226.389 228.662C226.389 228.054 226.525 227.506 226.797 227.018C227.077 226.53 227.453 226.142 227.925 225.854C228.405 225.566 228.949 225.422 229.557 225.422C230.077 225.422 230.549 225.542 230.973 225.782C231.405 226.022 231.745 226.346 231.993 226.754L231.849 227.006V225.566H232.749V231.746C232.749 232.298 232.617 232.79 232.353 233.222C232.097 233.662 231.737 234.006 231.273 234.254C230.817 234.51 230.293 234.638 229.701 234.638ZM229.605 231.002C230.021 231.002 230.397 230.898 230.733 230.69C231.069 230.474 231.337 230.19 231.537 229.838C231.745 229.478 231.849 229.086 231.849 228.662C231.849 228.238 231.745 227.85 231.537 227.498C231.337 227.138 231.069 226.854 230.733 226.646C230.397 226.43 230.021 226.322 229.605 226.322C229.181 226.322 228.797 226.43 228.453 226.646C228.109 226.854 227.837 227.134 227.637 227.486C227.445 227.838 227.349 228.23 227.349 228.662C227.349 229.086 227.445 229.478 227.637 229.838C227.837 230.19 228.105 230.474 228.441 230.69C228.785 230.898 229.173 231.002 229.605 231.002Z" fill="white"/>
<path id="Vector_26" d="M219.773 231.998V225.566H220.673V226.814L220.469 226.766C220.629 226.35 220.889 226.022 221.249 225.782C221.617 225.542 222.041 225.422 222.521 225.422C222.977 225.422 223.385 225.526 223.745 225.734C224.113 225.942 224.401 226.23 224.609 226.598C224.825 226.958 224.933 227.366 224.933 227.822V231.998H224.033V228.17C224.033 227.778 223.961 227.446 223.817 227.174C223.681 226.902 223.485 226.694 223.229 226.55C222.981 226.398 222.693 226.322 222.365 226.322C222.037 226.322 221.745 226.398 221.489 226.55C221.233 226.694 221.033 226.906 220.889 227.186C220.745 227.458 220.673 227.786 220.673 228.17V231.998H219.773Z" fill="white"/>
<path id="Vector_27" d="M217.031 231.999V225.567H217.931V231.999H217.031ZM217.031 224.379V223.059H217.931V224.379H217.031Z" fill="white"/>
<path id="Vector_28" d="M210.152 231.998V225.566H211.052V226.814L210.848 226.766C211.008 226.35 211.268 226.022 211.628 225.782C211.996 225.542 212.42 225.422 212.9 225.422C213.356 225.422 213.764 225.526 214.124 225.734C214.492 225.942 214.78 226.23 214.988 226.598C215.204 226.958 215.312 227.366 215.312 227.822V231.998H214.412V228.17C214.412 227.778 214.34 227.446 214.196 227.174C214.06 226.902 213.864 226.694 213.608 226.55C213.36 226.398 213.072 226.322 212.744 226.322C212.416 226.322 212.124 226.398 211.868 226.55C211.612 226.694 211.412 226.906 211.268 227.186C211.124 227.458 211.052 227.786 211.052 228.17V231.998H210.152Z" fill="white"/>
<path id="Vector_29" d="M205.698 232.142C205.098 232.142 204.554 231.998 204.066 231.71C203.586 231.414 203.206 231.01 202.926 230.498C202.646 229.986 202.506 229.406 202.506 228.758C202.506 228.11 202.642 227.538 202.914 227.042C203.186 226.538 203.554 226.142 204.018 225.854C204.49 225.566 205.018 225.422 205.602 225.422C206.066 225.422 206.478 225.51 206.838 225.686C207.206 225.854 207.518 226.086 207.774 226.382C208.03 226.67 208.226 226.998 208.362 227.366C208.498 227.726 208.566 228.098 208.566 228.482C208.566 228.562 208.562 228.654 208.554 228.758C208.546 228.854 208.534 228.954 208.518 229.058H203.082V228.218H208.002L207.57 228.578C207.642 228.138 207.59 227.746 207.414 227.402C207.246 227.05 207.002 226.774 206.682 226.574C206.362 226.366 206.002 226.262 205.602 226.262C205.202 226.262 204.83 226.366 204.486 226.574C204.15 226.782 203.886 227.074 203.694 227.45C203.502 227.818 203.426 228.258 203.466 228.77C203.426 229.282 203.506 229.73 203.706 230.114C203.914 230.49 204.194 230.782 204.546 230.99C204.906 231.198 205.29 231.302 205.698 231.302C206.17 231.302 206.566 231.19 206.886 230.966C207.206 230.742 207.466 230.462 207.666 230.126L208.434 230.534C208.306 230.822 208.11 231.09 207.846 231.338C207.582 231.578 207.266 231.774 206.898 231.926C206.538 232.07 206.138 232.142 205.698 232.142Z" fill="white"/>
<path id="Vector_30" d="M198.404 231.998L195.896 225.566H196.904L199.016 231.206H198.692L200.816 225.566H201.836L199.304 231.998H198.404Z" fill="white"/>
<path id="Vector_31" d="M189.473 231.999V223.059H195.233V223.959H190.433V227.067H194.993V227.967H190.433V231.099H195.233V231.999H189.473Z" fill="white"/>
</g>
</g>
<g id="Group 770561">
<g id="28&#194;&#176;">
<path id="Vector_32" d="M300.109 253.99C299.67 253.99 299.278 253.892 298.933 253.696C298.587 253.491 298.312 253.216 298.107 252.87C297.901 252.516 297.799 252.128 297.799 251.708C297.799 251.27 297.901 250.878 298.107 250.532C298.312 250.187 298.587 249.912 298.933 249.706C299.278 249.501 299.67 249.398 300.109 249.398C300.538 249.398 300.925 249.501 301.271 249.706C301.625 249.912 301.905 250.187 302.111 250.532C302.316 250.878 302.419 251.27 302.419 251.708C302.419 252.128 302.316 252.516 302.111 252.87C301.905 253.216 301.625 253.491 301.271 253.696C300.925 253.892 300.538 253.99 300.109 253.99ZM300.095 252.856C300.421 252.856 300.697 252.749 300.921 252.534C301.154 252.31 301.271 252.035 301.271 251.708C301.271 251.363 301.154 251.083 300.921 250.868C300.687 250.644 300.412 250.532 300.095 250.532C299.768 250.532 299.493 250.644 299.269 250.868C299.045 251.083 298.933 251.363 298.933 251.708C298.933 252.035 299.045 252.31 299.269 252.534C299.493 252.749 299.768 252.856 300.095 252.856Z" fill="white"/>
<path id="Vector_33" d="M292.062 260.164C291.334 260.164 290.694 260.024 290.144 259.744C289.602 259.455 289.182 259.072 288.884 258.596C288.585 258.111 288.436 257.574 288.436 256.986C288.436 256.314 288.618 255.736 288.982 255.25C289.355 254.756 289.878 254.396 290.55 254.172L290.48 254.592C289.985 254.406 289.593 254.093 289.304 253.654C289.024 253.206 288.884 252.716 288.884 252.184C288.884 251.652 289.019 251.176 289.29 250.756C289.57 250.336 289.948 250.005 290.424 249.762C290.909 249.52 291.455 249.398 292.062 249.398C292.678 249.398 293.224 249.52 293.7 249.762C294.176 249.996 294.549 250.322 294.82 250.742C295.1 251.162 295.24 251.643 295.24 252.184C295.24 252.735 295.095 253.23 294.806 253.668C294.526 254.098 294.143 254.406 293.658 254.592L293.588 254.172C294.26 254.406 294.782 254.765 295.156 255.25C295.529 255.736 295.716 256.314 295.716 256.986C295.716 257.574 295.562 258.111 295.254 258.596C294.955 259.072 294.53 259.455 293.98 259.744C293.429 260.024 292.79 260.164 292.062 260.164ZM292.062 258.764C292.463 258.764 292.813 258.69 293.112 258.54C293.41 258.382 293.644 258.167 293.812 257.896C293.98 257.626 294.064 257.308 294.064 256.944C294.064 256.58 293.98 256.263 293.812 255.992C293.644 255.722 293.41 255.512 293.112 255.362C292.813 255.213 292.463 255.138 292.062 255.138C291.67 255.138 291.324 255.213 291.026 255.362C290.727 255.512 290.494 255.722 290.326 255.992C290.158 256.263 290.074 256.58 290.074 256.944C290.074 257.308 290.158 257.626 290.326 257.896C290.494 258.167 290.727 258.382 291.026 258.54C291.324 258.69 291.67 258.764 292.062 258.764ZM292.062 253.738C292.36 253.738 292.622 253.678 292.846 253.556C293.079 253.426 293.261 253.248 293.392 253.024C293.522 252.8 293.588 252.548 293.588 252.268C293.588 251.979 293.522 251.727 293.392 251.512C293.261 251.288 293.079 251.116 292.846 250.994C292.622 250.864 292.36 250.798 292.062 250.798C291.772 250.798 291.511 250.864 291.278 250.994C291.044 251.116 290.862 251.288 290.732 251.512C290.601 251.727 290.536 251.979 290.536 252.268C290.536 252.548 290.601 252.8 290.732 253.024C290.862 253.248 291.044 253.426 291.278 253.556C291.511 253.678 291.772 253.738 292.062 253.738Z" fill="white"/>
<path id="Vector_34" d="M279.984 259.996V258.806L282.84 255.754C283.4 255.157 283.839 254.676 284.156 254.312C284.483 253.939 284.716 253.612 284.856 253.332C285.005 253.052 285.08 252.758 285.08 252.45C285.08 251.946 284.926 251.559 284.618 251.288C284.31 251.008 283.913 250.868 283.428 250.868C282.924 250.868 282.49 251.013 282.126 251.302C281.762 251.582 281.51 251.993 281.37 252.534L279.914 252.114C280.026 251.564 280.25 251.088 280.586 250.686C280.922 250.276 281.333 249.958 281.818 249.734C282.313 249.51 282.845 249.398 283.414 249.398C284.077 249.398 284.655 249.524 285.15 249.776C285.645 250.019 286.027 250.36 286.298 250.798C286.578 251.237 286.718 251.746 286.718 252.324C286.718 252.707 286.643 253.08 286.494 253.444C286.354 253.799 286.135 254.177 285.836 254.578C285.537 254.97 285.155 255.414 284.688 255.908L282.168 258.596H286.914V259.996H279.984Z" fill="white"/>
</g>
<g id="Night">
<path id="Vector_35" d="M305.291 232.07C304.715 232.07 304.271 231.902 303.959 231.566C303.647 231.23 303.491 230.75 303.491 230.126V226.466H302.303V225.566H302.603C302.875 225.566 303.091 225.478 303.251 225.302C303.411 225.118 303.491 224.89 303.491 224.618V224.078H304.391V225.566H305.807V226.466H304.391V230.126C304.391 230.342 304.423 230.534 304.487 230.702C304.551 230.862 304.659 230.99 304.811 231.086C304.971 231.182 305.183 231.23 305.447 231.23C305.511 231.23 305.587 231.226 305.675 231.218C305.763 231.21 305.839 231.202 305.903 231.194V231.998C305.807 232.022 305.699 232.038 305.579 232.046C305.459 232.062 305.363 232.07 305.291 232.07Z" fill="white"/>
<path id="Vector_36" d="M295.951 231.998V222.914H296.851V226.814L296.647 226.766C296.807 226.35 297.067 226.022 297.427 225.782C297.795 225.542 298.219 225.422 298.699 225.422C299.155 225.422 299.563 225.526 299.923 225.734C300.291 225.942 300.579 226.23 300.787 226.598C301.003 226.958 301.111 227.366 301.111 227.822V231.998H300.211V228.17C300.211 227.778 300.139 227.446 299.995 227.174C299.851 226.902 299.651 226.694 299.395 226.55C299.147 226.398 298.863 226.322 298.543 226.322C298.223 226.322 297.935 226.398 297.679 226.55C297.423 226.694 297.219 226.906 297.067 227.186C296.923 227.458 296.851 227.786 296.851 228.17V231.998H295.951Z" fill="white"/>
<path id="Vector_37" d="M291.054 234.638C290.614 234.638 290.206 234.57 289.83 234.434C289.462 234.298 289.142 234.11 288.87 233.87C288.606 233.638 288.402 233.366 288.258 233.054L289.086 232.61C289.214 232.914 289.442 233.178 289.77 233.402C290.098 233.626 290.518 233.738 291.03 233.738C291.422 233.738 291.782 233.662 292.11 233.51C292.438 233.358 292.702 233.134 292.902 232.838C293.102 232.542 293.202 232.178 293.202 231.746V230.318L293.346 230.45C293.122 230.914 292.79 231.274 292.35 231.53C291.91 231.778 291.43 231.902 290.91 231.902C290.31 231.902 289.77 231.758 289.29 231.47C288.81 231.182 288.43 230.794 288.15 230.306C287.878 229.81 287.742 229.262 287.742 228.662C287.742 228.054 287.878 227.506 288.15 227.018C288.43 226.53 288.806 226.142 289.278 225.854C289.758 225.566 290.302 225.422 290.91 225.422C291.43 225.422 291.902 225.542 292.326 225.782C292.758 226.022 293.098 226.346 293.346 226.754L293.202 227.006V225.566H294.102V231.746C294.102 232.298 293.97 232.79 293.706 233.222C293.45 233.662 293.09 234.006 292.626 234.254C292.17 234.51 291.646 234.638 291.054 234.638ZM290.958 231.002C291.374 231.002 291.75 230.898 292.086 230.69C292.422 230.474 292.69 230.19 292.89 229.838C293.098 229.478 293.202 229.086 293.202 228.662C293.202 228.238 293.098 227.85 292.89 227.498C292.69 227.138 292.422 226.854 292.086 226.646C291.75 226.43 291.374 226.322 290.958 226.322C290.534 226.322 290.15 226.43 289.806 226.646C289.462 226.854 289.19 227.134 288.99 227.486C288.798 227.838 288.702 228.23 288.702 228.662C288.702 229.086 288.798 229.478 288.99 229.838C289.19 230.19 289.458 230.474 289.794 230.69C290.138 230.898 290.526 231.002 290.958 231.002Z" fill="white"/>
<path id="Vector_38" d="M285.264 231.999V225.567H286.164V231.999H285.264ZM285.264 224.379V223.059H286.164V224.379H285.264Z" fill="white"/>
<path id="Vector_39" d="M276.561 231.999V223.059H277.401L282.645 230.583H282.321V223.059H283.281V231.999H282.441L277.197 224.427H277.521V231.999H276.561Z" fill="white"/>
</g>
</g>
<path id="Vector 10 (Stroke)" fill-rule="evenodd" clip-rule="evenodd" d="M250.395 128.155C237.64 119.813 224.999 111.765 210.332 112.005C195.598 112.247 183.171 118.509 170.58 124.854L170.513 124.887C157.962 131.212 145.235 137.613 130.187 137.613C115.517 137.613 102.93 134.365 90.5049 131.158C90.2944 131.103 90.0839 131.049 89.8734 130.995C77.2218 127.731 64.6977 124.565 50.0759 124.809C35.4825 125.052 26.4147 128.939 21.0207 132.694C18.3189 134.575 16.5245 136.432 15.4124 137.804C14.8562 138.491 14.4703 139.056 14.227 139.443C14.1054 139.637 14.0194 139.785 13.9656 139.882C13.9387 139.931 13.9198 139.966 13.9086 139.987L13.8974 140.009L13.8967 140.01C13.897 140.01 13.8973 140.009 13 139.568C12.1028 139.126 12.1031 139.126 12.1035 139.125L12.1045 139.123L12.1069 139.118L12.1138 139.104C12.1194 139.093 12.1269 139.079 12.1364 139.061C12.1554 139.024 12.1823 138.974 12.2176 138.91C12.2883 138.783 12.3925 138.603 12.534 138.379C12.8169 137.929 13.2488 137.298 13.8585 136.545C15.0783 135.04 17.0085 133.05 19.8781 131.052C25.627 127.051 35.0887 123.059 50.0426 122.809C64.968 122.561 77.7342 125.797 90.3731 129.058L90.9274 129.201C103.399 132.42 115.773 135.613 130.187 135.613C144.687 135.613 157 129.457 169.613 123.101L169.85 122.982C182.326 116.695 195.106 110.254 210.299 110.006C225.679 109.753 238.83 118.202 251.49 126.481L252.088 126.872C264.652 135.091 276.743 143 290.443 143C304.576 143 313.292 140.075 318.441 137.216C321.017 135.786 322.711 134.366 323.75 133.322C324.27 132.8 324.627 132.371 324.849 132.081C324.96 131.936 325.038 131.825 325.085 131.755C325.099 131.735 325.11 131.718 325.118 131.705C325.125 131.695 325.13 131.687 325.134 131.681L325.141 131.669C325.14 131.67 325.14 131.671 326 132.181C326.86 132.691 326.86 132.692 326.859 132.693L326.858 132.695L326.855 132.699L326.848 132.712C326.842 132.722 326.834 132.734 326.824 132.749C326.805 132.78 326.778 132.821 326.744 132.872C326.674 132.975 326.573 133.119 326.437 133.297C326.164 133.653 325.751 134.147 325.167 134.733C324 135.906 322.156 137.441 319.412 138.965C313.918 142.015 304.856 145 290.443 145C276.139 145 263.6 136.795 251.237 128.706C250.956 128.522 250.676 128.338 250.395 128.155Z" fill="url(#paint0_linear_29233_479)"/>
<g id="Group 453">
<path id="Ellipse 1" d="M56.8645 124C56.8645 127.314 54.1729 130 50.8527 130C47.5324 130 44.8408 127.314 44.8408 124C44.8408 120.686 47.5324 118 50.8527 118C54.1729 118 56.8645 120.686 56.8645 124Z" fill="#BADCFF"/>
<path id="Ellipse 2" d="M54.8605 124C54.8605 126.209 53.0661 128 50.8526 128C48.6391 128 46.8447 126.209 46.8447 124C46.8447 121.791 48.6391 120 50.8526 120C53.0661 120 54.8605 121.791 54.8605 124Z" fill="white"/>
</g>
<g id="Group 454">
<path id="Ellipse 1_2" d="M137.022 137C137.022 140.314 134.33 143 131.01 143C127.69 143 124.998 140.314 124.998 137C124.998 133.686 127.69 131 131.01 131C134.33 131 137.022 133.686 137.022 137Z" fill="#BADCFF"/>
<path id="Ellipse 2_2" d="M135.018 137C135.018 139.209 133.223 141 131.01 141C128.796 141 127.002 139.209 127.002 137C127.002 134.791 128.796 133 131.01 133C133.223 133 135.018 134.791 135.018 137Z" fill="white"/>
</g>
<g id="Group 455">
<path id="Ellipse 1_3" d="M217.18 111C217.18 114.314 214.488 117 211.168 117C207.848 117 205.156 114.314 205.156 111C205.156 107.686 207.848 105 211.168 105C214.488 105 217.18 107.686 217.18 111Z" fill="#BADCFF"/>
<path id="Ellipse 2_3" d="M215.176 111C215.176 113.209 213.382 115 211.168 115C208.955 115 207.16 113.209 207.16 111C207.16 108.791 208.955 107 211.168 107C213.382 107 215.176 108.791 215.176 111Z" fill="white"/>
</g>
<g id="Group 456">
<path id="Ellipse 1_4" d="M297.024 144C297.024 147.314 294.332 150 291.012 150C287.692 150 285 147.314 285 144C285 140.686 287.692 138 291.012 138C294.332 138 297.024 140.686 297.024 144Z" fill="#BADCFF"/>
<path id="Ellipse 2_4" d="M295.02 144C295.02 146.209 293.225 148 291.012 148C288.798 148 287.004 146.209 287.004 144C287.004 141.791 288.798 140 291.012 140C293.225 140 295.02 141.791 295.02 144Z" fill="white"/>
</g>
<g id="Temperature">
<path id="Vector_40" d="M141.629 46.2414C140.549 46.2414 139.589 45.9947 138.749 45.5014C137.923 44.9947 137.276 44.3147 136.809 43.4614C136.343 42.5947 136.109 41.6281 136.109 40.5614C136.109 39.4681 136.343 38.5014 136.809 37.6614C137.289 36.8214 137.929 36.1614 138.729 35.6814C139.529 35.1881 140.436 34.9414 141.449 34.9414C142.263 34.9414 142.989 35.0814 143.629 35.3614C144.269 35.6414 144.809 36.0281 145.249 36.5214C145.689 37.0014 146.023 37.5547 146.249 38.1814C146.489 38.8081 146.609 39.4747 146.609 40.1814C146.609 40.3547 146.603 40.5347 146.589 40.7214C146.576 40.9081 146.549 41.0814 146.509 41.2414H137.889V39.4414H145.229L144.149 40.2614C144.283 39.6081 144.236 39.0281 144.009 38.5214C143.796 38.0014 143.463 37.5947 143.009 37.3014C142.569 36.9947 142.049 36.8414 141.449 36.8414C140.849 36.8414 140.316 36.9947 139.849 37.3014C139.383 37.5947 139.023 38.0214 138.769 38.5814C138.516 39.1281 138.416 39.7947 138.469 40.5814C138.403 41.3147 138.503 41.9547 138.769 42.5014C139.049 43.0481 139.436 43.4747 139.929 43.7814C140.436 44.0881 141.009 44.2414 141.649 44.2414C142.303 44.2414 142.856 44.0947 143.309 43.8014C143.776 43.5081 144.143 43.1281 144.409 42.6614L146.249 43.5614C146.036 44.0681 145.703 44.5281 145.249 44.9414C144.809 45.3414 144.276 45.6614 143.649 45.9014C143.036 46.1281 142.363 46.2414 141.629 46.2414Z" fill="white"/>
<path id="Vector_41" d="M129.305 46.003V35.183H131.465V37.363L131.265 37.043C131.505 36.3363 131.891 35.8296 132.425 35.523C132.958 35.203 133.598 35.043 134.345 35.043H135.005V37.103H134.065C133.318 37.103 132.711 37.3363 132.245 37.803C131.791 38.2563 131.565 38.9096 131.565 39.763V46.003H129.305Z" fill="white"/>
<path id="Vector_42" d="M121.445 46.2397C120.632 46.2397 119.919 46.0597 119.305 45.6997C118.692 45.3264 118.212 44.813 117.865 44.1597C117.532 43.493 117.365 42.7264 117.365 41.8597V35.1797H119.625V41.6597C119.625 42.153 119.725 42.5864 119.925 42.9597C120.125 43.333 120.405 43.6264 120.765 43.8397C121.125 44.0397 121.539 44.1397 122.005 44.1397C122.485 44.1397 122.905 44.033 123.265 43.8197C123.625 43.6064 123.905 43.3064 124.105 42.9197C124.319 42.533 124.425 42.0797 124.425 41.5597V35.1797H126.665V45.9997H124.525V43.8797L124.765 44.1597C124.512 44.8264 124.092 45.3397 123.505 45.6997C122.919 46.0597 122.232 46.2397 121.445 46.2397Z" fill="white"/>
<path id="Vector_43" d="M114.16 46.1231C113.026 46.1231 112.146 45.8031 111.52 45.1631C110.893 44.5231 110.58 43.6231 110.58 42.4631V37.2231H108.68V35.1831H108.98C109.486 35.1831 109.88 35.0365 110.16 34.7431C110.44 34.4498 110.58 34.0498 110.58 33.5431V32.7031H112.84V35.1831H115.3V37.2231H112.84V42.3631C112.84 42.7365 112.9 43.0565 113.02 43.3231C113.14 43.5765 113.333 43.7765 113.6 43.9231C113.866 44.0565 114.213 44.1231 114.64 44.1231C114.746 44.1231 114.866 44.1165 115 44.1031C115.133 44.0898 115.26 44.0765 115.38 44.0631V46.0031C115.193 46.0298 114.986 46.0565 114.76 46.0831C114.533 46.1098 114.333 46.1231 114.16 46.1231Z" fill="white"/>
<path id="Vector_44" d="M101.352 46.2414C100.619 46.2414 99.9719 46.1147 99.4119 45.8614C98.8652 45.5947 98.4385 45.2347 98.1319 44.7814C97.8252 44.3147 97.6719 43.7681 97.6719 43.1414C97.6719 42.5547 97.7985 42.0281 98.0519 41.5614C98.3185 41.0947 98.7252 40.7014 99.2719 40.3814C99.8185 40.0614 100.505 39.8347 101.332 39.7014L105.092 39.0814V40.8614L101.772 41.4414C101.172 41.5481 100.732 41.7414 100.452 42.0214C100.172 42.2881 100.032 42.6347 100.032 43.0614C100.032 43.4747 100.185 43.8147 100.492 44.0814C100.812 44.3347 101.219 44.4614 101.712 44.4614C102.325 44.4614 102.859 44.3281 103.312 44.0614C103.779 43.7947 104.139 43.4414 104.392 43.0014C104.645 42.5481 104.772 42.0481 104.772 41.5014V38.7214C104.772 38.1881 104.572 37.7547 104.172 37.4214C103.785 37.0747 103.265 36.9014 102.612 36.9014C102.012 36.9014 101.485 37.0614 101.032 37.3814C100.592 37.6881 100.265 38.0881 100.052 38.5814L98.1719 37.6414C98.3719 37.1081 98.6985 36.6414 99.1519 36.2414C99.6052 35.8281 100.132 35.5081 100.732 35.2814C101.345 35.0547 101.992 34.9414 102.672 34.9414C103.525 34.9414 104.279 35.1014 104.932 35.4214C105.599 35.7414 106.112 36.1881 106.472 36.7614C106.845 37.3214 107.032 37.9747 107.032 38.7214V46.0014H104.872V44.0414L105.332 44.1014C105.079 44.5414 104.752 44.9214 104.352 45.2414C103.965 45.5614 103.519 45.8081 103.012 45.9814C102.519 46.1547 101.965 46.2414 101.352 46.2414Z" fill="white"/>
<path id="Vector_45" d="M90.8672 46.003V35.183H93.0272V37.363L92.8272 37.043C93.0672 36.3363 93.4539 35.8296 93.9872 35.523C94.5205 35.203 95.1605 35.043 95.9072 35.043H96.5672V37.103H95.6272C94.8805 37.103 94.2739 37.3363 93.8072 37.803C93.3539 38.2563 93.1272 38.9096 93.1272 39.763V46.003H90.8672Z" fill="white"/>
<path id="Vector_46" d="M83.6802 46.2414C82.6002 46.2414 81.6402 45.9947 80.8002 45.5014C79.9735 44.9947 79.3268 44.3147 78.8602 43.4614C78.3935 42.5947 78.1602 41.6281 78.1602 40.5614C78.1602 39.4681 78.3935 38.5014 78.8602 37.6614C79.3402 36.8214 79.9802 36.1614 80.7802 35.6814C81.5802 35.1881 82.4868 34.9414 83.5002 34.9414C84.3135 34.9414 85.0402 35.0814 85.6802 35.3614C86.3202 35.6414 86.8602 36.0281 87.3002 36.5214C87.7402 37.0014 88.0735 37.5547 88.3002 38.1814C88.5402 38.8081 88.6602 39.4747 88.6602 40.1814C88.6602 40.3547 88.6535 40.5347 88.6402 40.7214C88.6268 40.9081 88.6002 41.0814 88.5602 41.2414H79.9402V39.4414H87.2802L86.2002 40.2614C86.3335 39.6081 86.2868 39.0281 86.0602 38.5214C85.8468 38.0014 85.5135 37.5947 85.0602 37.3014C84.6202 36.9947 84.1002 36.8414 83.5002 36.8414C82.9002 36.8414 82.3668 36.9947 81.9002 37.3014C81.4335 37.5947 81.0735 38.0214 80.8202 38.5814C80.5668 39.1281 80.4668 39.7947 80.5202 40.5814C80.4535 41.3147 80.5535 41.9547 80.8202 42.5014C81.1002 43.0481 81.4868 43.4747 81.9802 43.7814C82.4868 44.0881 83.0602 44.2414 83.7002 44.2414C84.3535 44.2414 84.9068 44.0947 85.3602 43.8014C85.8268 43.5081 86.1935 43.1281 86.4602 42.6614L88.3002 43.5614C88.0868 44.0681 87.7535 44.5281 87.3002 44.9414C86.8602 45.3414 86.3268 45.6614 85.7002 45.9014C85.0868 46.1281 84.4135 46.2414 83.6802 46.2414Z" fill="white"/>
<path id="Vector_47" d="M65.2031 50.0014V35.1814H67.3631V37.4214L67.1031 36.9014C67.5031 36.2881 68.0365 35.8081 68.7031 35.4614C69.3698 35.1147 70.1298 34.9414 70.9831 34.9414C72.0098 34.9414 72.9298 35.1881 73.7431 35.6814C74.5698 36.1747 75.2165 36.8481 75.6831 37.7014C76.1631 38.5547 76.4031 39.5147 76.4031 40.5814C76.4031 41.6481 76.1631 42.6081 75.6831 43.4614C75.2165 44.3147 74.5765 44.9947 73.7631 45.5014C72.9498 45.9947 72.0231 46.2414 70.9831 46.2414C70.1431 46.2414 69.3765 46.0681 68.6831 45.7214C68.0031 45.3747 67.4765 44.8747 67.1031 44.2214L67.4631 43.8014V50.0014H65.2031ZM70.7631 44.1414C71.4031 44.1414 71.9698 43.9881 72.4631 43.6814C72.9565 43.3747 73.3431 42.9547 73.6231 42.4214C73.9165 41.8747 74.0631 41.2614 74.0631 40.5814C74.0631 39.9014 73.9165 39.2947 73.6231 38.7614C73.3431 38.2281 72.9565 37.8081 72.4631 37.5014C71.9698 37.1947 71.4031 37.0414 70.7631 37.0414C70.1365 37.0414 69.5698 37.1947 69.0631 37.5014C68.5698 37.8081 68.1765 38.2281 67.8831 38.7614C67.6031 39.2947 67.4631 39.9014 67.4631 40.5814C67.4631 41.2614 67.6031 41.8747 67.8831 42.4214C68.1765 42.9547 68.5698 43.3747 69.0631 43.6814C69.5698 43.9881 70.1365 44.1414 70.7631 44.1414Z" fill="white"/>
<path id="Vector_48" d="M46.8232 46.0014V35.1814H48.9832V37.5214L48.7032 37.1614C48.9299 36.4281 49.3432 35.8747 49.9432 35.5014C50.5432 35.1281 51.2299 34.9414 52.0032 34.9414C52.8699 34.9414 53.6366 35.1747 54.3032 35.6414C54.9832 36.0947 55.4366 36.7014 55.6632 37.4614L55.0232 37.5214C55.3432 36.6547 55.8299 36.0081 56.4832 35.5814C57.1499 35.1547 57.9099 34.9414 58.7632 34.9414C59.5099 34.9414 60.1832 35.1147 60.7832 35.4614C61.3966 35.8081 61.8832 36.2881 62.2432 36.9014C62.6032 37.5147 62.7832 38.2147 62.7832 39.0014V46.0014H60.5232V39.6214C60.5232 39.0747 60.4232 38.6147 60.2232 38.2414C60.0366 37.8547 59.7699 37.5614 59.4232 37.3614C59.0899 37.1481 58.6966 37.0414 58.2432 37.0414C57.7899 37.0414 57.3899 37.1481 57.0432 37.3614C56.6966 37.5614 56.4232 37.8547 56.2232 38.2414C56.0232 38.6281 55.9232 39.0881 55.9232 39.6214V46.0014H53.6832V39.6214C53.6832 39.0747 53.5832 38.6147 53.3832 38.2414C53.1966 37.8547 52.9299 37.5614 52.5832 37.3614C52.2499 37.1481 51.8499 37.0414 51.3832 37.0414C50.9299 37.0414 50.5299 37.1481 50.1832 37.3614C49.8366 37.5614 49.5632 37.8547 49.3632 38.2414C49.1766 38.6281 49.0832 39.0881 49.0832 39.6214V46.0014H46.8232Z" fill="white"/>
<path id="Vector_49" d="M39.6382 46.2414C38.5582 46.2414 37.5982 45.9947 36.7582 45.5014C35.9315 44.9947 35.2848 44.3147 34.8182 43.4614C34.3515 42.5947 34.1182 41.6281 34.1182 40.5614C34.1182 39.4681 34.3515 38.5014 34.8182 37.6614C35.2982 36.8214 35.9382 36.1614 36.7382 35.6814C37.5382 35.1881 38.4448 34.9414 39.4582 34.9414C40.2715 34.9414 40.9982 35.0814 41.6382 35.3614C42.2782 35.6414 42.8182 36.0281 43.2582 36.5214C43.6982 37.0014 44.0315 37.5547 44.2582 38.1814C44.4982 38.8081 44.6182 39.4747 44.6182 40.1814C44.6182 40.3547 44.6115 40.5347 44.5982 40.7214C44.5848 40.9081 44.5582 41.0814 44.5182 41.2414H35.8982V39.4414H43.2382L42.1582 40.2614C42.2915 39.6081 42.2448 39.0281 42.0182 38.5214C41.8048 38.0014 41.4715 37.5947 41.0182 37.3014C40.5782 36.9947 40.0582 36.8414 39.4582 36.8414C38.8582 36.8414 38.3248 36.9947 37.8582 37.3014C37.3915 37.5947 37.0315 38.0214 36.7782 38.5814C36.5248 39.1281 36.4248 39.7947 36.4782 40.5814C36.4115 41.3147 36.5115 41.9547 36.7782 42.5014C37.0582 43.0481 37.4448 43.4747 37.9382 43.7814C38.4448 44.0881 39.0182 44.2414 39.6582 44.2414C40.3115 44.2414 40.8648 44.0947 41.3182 43.8014C41.7848 43.5081 42.1515 43.1281 42.4182 42.6614L44.2582 43.5614C44.0448 44.0681 43.7115 44.5281 43.2582 44.9414C42.8182 45.3414 42.2848 45.6614 41.6582 45.9014C41.0448 46.1281 40.3715 46.2414 39.6382 46.2414Z" fill="white"/>
<path id="Vector_50" d="M28.1797 46.0016V33.2016H24.2197V31.1016H34.4197V33.2016H30.5197V46.0016H28.1797Z" fill="white"/>
</g>
</g>
</g>
<defs>
<linearGradient id="paint0_linear_29233_479" x1="13" y1="142.03" x2="328.503" y2="144.576" gradientUnits="userSpaceOnUse">
<stop stop-color="white" stop-opacity="0.11"/>
<stop offset="0.484375" stop-color="white"/>
<stop offset="1" stop-color="white" stop-opacity="0.1"/>
</linearGradient>
</defs>
</svg>
