<svg width="108" height="86" viewBox="0 0 108 86" fill="none" xmlns="http://www.w3.org/2000/svg">
<path fill-rule="evenodd" clip-rule="evenodd" d="M54.9977 5.5C54.6866 5.50002 54.3757 5.50309 54.0651 5.5092L53.9667 0.510167C54.31 0.50341 54.6536 0.500017 54.9975 0.5C55.3413 0.499983 55.6849 0.503343 56.0282 0.510066L55.9303 5.50911C55.6197 5.50303 55.3088 5.49998 54.9977 5.5ZM59.6533 5.72845C59.0351 5.6676 58.4152 5.61883 57.794 5.58223L58.088 0.590881C58.7747 0.631337 59.4598 0.685244 60.1431 0.752497L59.6533 5.72845ZM52.2014 5.5825C51.5802 5.61916 50.9603 5.668 50.3422 5.7289L49.8519 0.752999C50.5351 0.68568 51.2202 0.631705 51.9069 0.591183L52.2014 5.5825ZM63.3475 6.23921C62.7358 6.13 62.1216 6.03275 61.5053 5.94755L62.1901 0.994665C62.8712 1.08884 63.5501 1.19633 64.2262 1.31703L63.3475 6.23921ZM48.4901 5.94819C47.8739 6.03345 47.2597 6.13076 46.648 6.24003L45.7688 1.31793C46.4449 1.19716 47.1237 1.0896 47.8048 0.995367L48.4901 5.94819ZM66.9903 7.03824C66.3888 6.88132 65.7841 6.7362 65.1767 6.60296L66.248 1.71907C66.9193 1.86633 67.5876 2.02673 68.2524 2.20016L66.9903 7.03824ZM44.8188 6.60395C44.2114 6.73725 43.6068 6.88243 43.0053 7.03941L41.7427 2.20145C42.4075 2.02795 43.0757 1.86749 43.747 1.72017L44.8188 6.60395ZM70.5592 8.12057C69.9716 7.91687 69.3802 7.72477 68.7854 7.54437L70.2364 2.75956C70.8939 2.95895 71.5476 3.17127 72.197 3.39641L70.5592 8.12057ZM41.2102 7.54571C40.6154 7.72618 40.024 7.91833 39.4365 8.12209L37.7982 3.39809C38.4476 3.17289 39.1012 2.96051 39.7587 2.76105L41.2102 7.54571ZM74.0322 9.47955C73.4622 9.23029 72.8877 8.99239 72.309 8.76596L74.131 4.10973C74.7706 4.36001 75.4056 4.62295 76.0356 4.89845L74.0322 9.47955ZM37.6867 8.76765C37.1081 8.99414 36.5336 9.23209 35.9636 9.48141L33.9598 4.90051C34.5898 4.62494 35.2247 4.36194 35.8643 4.1116L37.6867 8.76765ZM77.3877 11.1068C76.8389 10.8135 76.2848 10.5312 75.7259 10.2602L77.9076 5.76129C78.5253 6.06085 79.1377 6.37279 79.7444 6.69699L77.3877 11.1068ZM34.2699 10.2622C33.7111 10.5333 33.1571 10.8156 32.6082 11.109L30.2511 6.69941C30.8578 6.37515 31.4701 6.06315 32.0878 5.76353L34.2699 10.2622ZM79.8151 12.4974C79.5498 12.3349 79.2832 12.1751 79.0151 12.018L81.543 7.7041C81.8393 7.87771 82.134 8.05433 82.4272 8.23396C82.7204 8.41359 83.0116 8.59597 83.3008 8.78107L80.6055 12.9924C80.3439 12.8249 80.0804 12.6599 79.8151 12.4974ZM30.9809 12.0203C30.7129 12.1774 30.4462 12.3373 30.181 12.4998C29.9157 12.6624 29.6523 12.8274 29.3906 12.9949L26.6949 8.78384C26.9841 8.5987 27.2753 8.41629 27.5684 8.23664C27.8616 8.05698 28.1563 7.88033 28.4526 7.7067L30.9809 12.0203ZM83.6654 15.1245C83.1701 14.7497 82.667 14.3843 82.1564 14.0285L85.015 9.92617C85.5793 10.3194 86.1353 10.7233 86.6828 11.1377L83.6654 15.1245ZM27.8398 14.0311C27.3292 14.387 26.8262 14.7525 26.331 15.1273L23.3132 11.1407C23.8606 10.7264 24.4166 10.3224 24.9809 9.9291L27.8398 14.0311ZM86.5484 17.4902C86.0839 17.0774 85.611 16.6736 85.1301 16.279L88.3017 12.4137C88.8333 12.8498 89.3559 13.2961 89.8693 13.7523L86.5484 17.4902ZM24.8664 16.282C24.3855 16.6766 23.9126 17.0805 23.4481 17.4932L20.1269 13.7557C20.6403 13.2995 21.1629 12.8531 21.6944 12.4169L24.8664 16.282ZM89.237 20.0747C88.8062 19.6266 88.3664 19.187 87.9181 18.756L91.3832 15.1514C91.8787 15.6277 92.3647 16.1136 92.8409 16.6089L89.237 20.0747ZM22.0786 18.7592C21.6303 19.1902 21.1906 19.6299 20.7598 20.078L17.1555 16.6126C17.6317 16.1173 18.1177 15.6313 18.6132 15.155L22.0786 18.7592ZM91.7146 22.8622C91.3201 22.3815 90.9162 21.9087 90.5032 21.4441L94.2404 18.1224C94.6968 18.636 95.1432 19.1585 95.5793 19.6897L91.7146 22.8622ZM19.4938 21.4476C19.0808 21.9122 18.677 22.385 18.2825 22.8657L14.4175 19.6937C14.8535 19.1624 15.2999 18.6398 15.7563 18.1263L19.4938 21.4476ZM93.9659 25.8354C93.6101 25.3251 93.2446 24.8221 92.8694 24.3267L96.8557 21.3084C97.2703 21.856 97.6743 22.4119 98.0676 22.976L93.9659 25.8354ZM17.1278 24.3304C16.7527 24.8258 16.3872 25.3289 16.0315 25.8392L11.9296 22.9802C12.3227 22.4161 12.7267 21.8601 13.1413 21.3125L17.1278 24.3304ZM95.9769 28.9761C95.6621 28.4392 95.3372 27.9091 95.0022 27.386L99.213 24.6898C99.5832 25.268 99.9424 25.8539 100.29 26.4473L95.9769 28.9761ZM14.9953 27.3899C14.6604 27.913 14.3355 28.4432 14.0208 28.9801L9.7072 26.4517C10.055 25.8583 10.4142 25.2723 10.7843 24.6941L14.9953 27.3899ZM97.3201 31.43C97.1788 31.1528 97.0349 30.8772 96.8884 30.6033L101.298 28.2457C101.46 28.5486 101.619 28.8531 101.775 29.1595C101.931 29.4658 102.084 29.7735 102.234 30.0824L97.7354 32.2651C97.5998 31.9855 97.4613 31.7072 97.3201 31.43ZM13.1094 30.6074C12.963 30.8814 12.8191 31.157 12.6779 31.4341C12.5366 31.7113 12.3982 31.9897 12.2626 32.2692L7.76395 30.087C7.91382 29.7781 8.06681 29.4704 8.22291 29.1641C8.37902 28.8577 8.53803 28.5531 8.6999 28.2503L13.1094 30.6074ZM99.2304 35.6817C99.004 35.1033 98.766 34.5289 98.5165 33.9587L103.097 31.9544C103.373 32.5845 103.636 33.2194 103.886 33.8587L99.2304 35.6817ZM11.4817 33.963C11.2323 34.5332 10.9943 35.1076 10.7679 35.686L6.11192 33.8635C6.36216 33.2242 6.62516 32.5893 6.90084 31.9591L11.4817 33.963ZM100.453 39.2051C100.272 38.6104 100.08 38.0191 99.8762 37.4313L104.6 35.7925C104.825 36.4422 105.038 37.0958 105.237 37.753L100.453 39.2051ZM10.1223 37.4357C9.9185 38.0235 9.72634 38.6149 9.54593 39.2095L4.76129 37.7579C4.96069 37.1007 5.17308 36.447 5.39838 35.7974L10.1223 37.4357ZM101.395 42.8135C101.262 42.2063 101.116 41.6017 100.959 41L105.797 39.7369C105.971 40.4019 106.131 41.0702 106.279 41.7412L101.395 42.8135ZM9.03961 41.0045C8.88257 41.6062 8.73739 42.2108 8.60414 42.818L3.72036 41.7462C3.86764 41.0752 4.0281 40.4069 4.20167 39.7419L9.03961 41.0045ZM102.051 46.4847C101.966 45.8687 101.868 45.2546 101.759 44.6427L106.681 43.7629C106.802 44.4393 106.91 45.1181 107.004 45.7989L102.051 46.4847ZM8.24019 44.6472C8.13088 45.2592 8.03357 45.8733 7.94833 46.4893L2.99552 45.804C3.08974 45.1231 3.19729 44.4443 3.31811 43.768L8.24019 44.6472ZM102.417 50.1961C102.38 49.5751 102.332 48.9552 102.271 48.3368L107.246 47.8459C107.314 48.5294 107.368 49.2146 107.409 49.901L102.417 50.1961ZM7.729 48.3414C7.66805 48.9598 7.61921 49.5797 7.58255 50.2008L2.59124 49.9061C2.63176 49.2197 2.68575 48.5345 2.75311 47.851L7.729 48.3414ZM102.491 53.9247C102.503 53.3025 102.503 52.6807 102.491 52.0597L107.49 51.9607C107.503 52.6471 107.503 53.3343 107.49 54.0221L102.491 53.9247ZM7.50921 52.0643C7.49698 52.6853 7.49692 53.3071 7.5091 53.9293L2.51006 54.0272C2.49659 53.3395 2.49666 52.6522 2.51018 51.9658L7.50921 52.0643ZM102.354 56.7188C102.379 56.4087 102.4 56.0985 102.418 55.7884L107.409 56.0819C107.389 56.4247 107.366 56.7675 107.339 57.1103C107.312 57.4531 107.282 57.7953 107.248 58.1371L102.272 57.6479C102.302 57.3387 102.33 57.029 102.354 56.7188ZM7.5822 55.793C7.60047 56.1032 7.6218 56.4133 7.64618 56.7235C7.67057 57.0336 7.69799 57.3433 7.72841 57.6525L2.75245 58.1422C2.71882 57.8004 2.68852 57.4582 2.66157 57.1154C2.63462 56.7726 2.61105 56.4298 2.59086 56.087L7.5822 55.793ZM101.762 61.3422C101.871 60.7307 101.968 60.1166 102.053 59.5001L107.006 60.1843C106.912 60.8656 106.805 61.5444 106.684 62.2203L101.762 61.3422ZM7.94749 59.5047C8.03271 60.1211 8.12995 60.7353 8.2391 61.3468L3.3169 62.2254C3.19626 61.5495 3.08878 60.8707 2.99459 60.1893L7.94749 59.5047ZM100.963 64.9851C101.12 64.3838 101.265 63.7791 101.398 63.1714L106.282 64.2421C106.135 64.9138 105.975 65.5821 105.801 66.2467L100.963 64.9851ZM8.6028 63.1759C8.73607 63.7836 8.8812 64.3883 9.03805 64.9895L4.19996 66.2516C4.02659 65.587 3.86619 64.9187 3.71888 64.2471L8.6028 63.1759ZM99.8812 68.5541C100.085 67.9667 100.277 67.3753 100.457 66.7802L105.242 68.2307C105.043 68.8885 104.831 69.5422 104.606 70.1913L99.8812 68.5541ZM9.54416 66.7846C9.72463 67.3797 9.91673 67.9711 10.1203 68.5584L5.39617 70.1962C5.17113 69.547 4.95881 68.8934 4.75934 68.2356L9.54416 66.7846ZM98.5226 72.0272C98.7717 71.4574 99.0096 70.8829 99.236 70.304L103.892 72.1254C103.642 72.7653 103.379 73.4003 103.104 74.03L98.5226 72.0272ZM10.7657 70.3083C10.9922 70.8872 11.2301 71.4617 11.4793 72.0314L6.89814 74.0347C6.62276 73.405 6.35982 72.77 6.10947 72.1302L10.7657 70.3083ZM96.8957 75.3831C97.1889 74.8343 97.4711 74.2802 97.7421 73.7211L102.241 75.9022C101.942 76.5202 101.63 77.1327 101.306 77.7392L96.8957 75.3831ZM12.2599 73.7253C12.5311 74.2844 12.8133 74.8385 13.1065 75.3871L8.69664 77.7437C8.37257 77.1372 8.06063 76.5248 7.76096 75.9068L12.2599 73.7253ZM95.0106 78.6008C95.3461 78.0766 95.6708 77.5464 95.9848 77.0104L100.299 79.5379C99.9519 80.1302 99.593 80.7163 99.2223 81.2957L95.0106 78.6008ZM14.0176 77.0144C14.3316 77.5503 14.6564 78.0806 14.9919 78.6047L10.7805 81.3C10.4098 80.7206 10.0508 80.1346 9.70367 79.5423L14.0176 77.0144ZM93.4341 80.9118C93.617 80.6601 93.7972 80.4067 93.9748 80.1518L98.0773 83.0099C97.8811 83.2917 97.6819 83.5717 97.4798 83.8499L93.4341 80.9118ZM16.0279 80.1556C16.2056 80.4105 16.3858 80.6638 16.5686 80.9156L12.5232 83.854C12.3212 83.5758 12.122 83.2959 11.9256 83.0141L16.0279 80.1556Z" fill="#C4E2FF"/>
<path fill-rule="evenodd" clip-rule="evenodd" d="M5.99543 28.028C10.6003 18.9911 17.6143 11.4035 26.2622 6.10401L31.4872 14.6304C24.4117 18.9663 18.673 25.1743 14.9054 32.5682C11.1377 39.962 9.48799 48.2536 10.1385 56.5264C10.789 64.7993 13.7144 72.7312 18.5913 79.4453L10.5005 85.3222C4.53982 77.1161 0.96432 67.4216 0.169264 57.3103C-0.625791 47.1991 1.39056 37.0649 5.99543 28.028Z" fill="url(#paint0_linear_1_3)"/>
<path d="M24.4557 3.71046C24.204 3.21885 24.3985 2.6163 24.8902 2.36465L26.6705 1.45331C27.1621 1.20165 27.7646 1.39618 28.0163 1.8878L34.8513 15.2401C35.1029 15.7317 34.9084 16.3342 34.4168 16.5859L32.6365 17.4972C32.1449 17.7489 31.5423 17.5543 31.2907 17.0627L24.4557 3.71046Z" fill="#24609B"/>
<path fill-rule="evenodd" clip-rule="evenodd" d="M36.9752 25.0486C37.9709 24.5705 39.1657 24.9902 39.6438 25.9859L61.8073 72.149C62.2853 73.1448 61.8657 74.3395 60.8699 74.8176C59.8742 75.2957 58.6794 74.876 58.2013 73.8803L36.0379 27.7172C35.5598 26.7214 35.9794 25.5267 36.9752 25.0486Z" fill="#24609B"/>
<path fill-rule="evenodd" clip-rule="evenodd" d="M35.6787 22.6649L49.7436 30.6975C50.463 31.1083 50.7131 32.0245 50.3023 32.7439C49.8915 33.4633 48.9752 33.7134 48.2559 33.3025L37.9518 27.4178C37.7079 29.0664 37.4278 31.0893 37.1776 32.9728C36.9901 34.3843 36.8205 35.7096 36.6969 36.7296C36.635 37.2401 36.5851 37.6702 36.5503 37.9947C36.5329 38.1573 36.5197 38.2889 36.5108 38.3885C36.5026 38.4811 36.5001 38.5239 36.4995 38.5334C36.4994 38.5353 36.4994 38.5358 36.4994 38.5352C36.48 39.3634 35.7928 40.019 34.9646 39.9996C34.1364 39.9802 33.4808 39.293 33.5002 38.4648C33.5071 38.1716 33.5996 37.3505 33.7187 36.3686C33.8441 35.3338 34.0153 33.9966 34.2037 32.5778C34.5798 29.7467 35.0289 26.5586 35.3244 24.788L35.6787 22.6649Z" fill="#24609B"/>
<path d="M61.1314 62.7771C61.4052 66.0795 58.95 68.9786 55.6477 69.2523C52.3453 69.5261 49.4462 67.0709 49.1725 63.7686C48.8987 60.4662 51.3539 57.5671 54.6562 57.2934C57.9586 57.0196 60.8577 59.4747 61.1314 62.7771Z" fill="white"/>
<path fill-rule="evenodd" clip-rule="evenodd" d="M55.565 68.2557C58.317 68.0276 60.363 65.6117 60.1349 62.8597C59.9067 60.1078 57.4908 58.0618 54.7389 58.2899C51.9869 58.5181 49.9409 60.9339 50.169 63.6859C50.3972 66.4379 52.8131 68.4839 55.565 68.2557ZM55.6477 69.2523C58.95 68.9786 61.4052 66.0795 61.1314 62.7771C60.8577 59.4747 57.9586 57.0196 54.6562 57.2934C51.3539 57.5671 48.8987 60.4662 49.1725 63.7686C49.4462 67.0709 52.3453 69.5261 55.6477 69.2523Z" fill="#24609B"/>
<defs>
<linearGradient id="paint0_linear_1_3" x1="29" y1="9.99902" x2="-13.5" y2="64.999" gradientUnits="userSpaceOnUse">
<stop stop-color="#90C8FD"/>
<stop offset="1" stop-color="#C4E2FF" stop-opacity="0"/>
</linearGradient>
</defs>
</svg>
