<svg width="100" height="100" viewBox="0 0 100 100" fill="none" xmlns="http://www.w3.org/2000/svg">
<path d="M57.5138 58H59.2938L61.8538 49.88L64.4138 58H66.1938L69.8938 47.22H67.8538L65.2538 55.12L62.7338 47.22H60.9738L58.4538 55.12L55.8738 47.22H53.8138L57.5138 58Z" fill="black"/>
<path d="M47.2631 58.24C48.2765 58.24 49.2031 58 50.0431 57.52C50.8831 57.04 51.5498 56.3733 52.0431 55.52C52.5498 54.6667 52.8031 53.6933 52.8031 52.6C52.8031 51.52 52.5565 50.56 52.0631 49.72C51.5831 48.8667 50.9231 48.2 50.0831 47.72C49.2431 47.2267 48.3031 46.98 47.2631 46.98C46.2098 46.98 45.2631 47.2267 44.4231 47.72C43.5831 48.2 42.9165 48.8667 42.4231 49.72C41.9431 50.56 41.7031 51.52 41.7031 52.6C41.7031 53.68 41.9498 54.6467 42.4431 55.5C42.9365 56.3533 43.6031 57.0267 44.4431 57.52C45.2831 58 46.2231 58.24 47.2631 58.24ZM47.2631 56.44C46.5831 56.44 45.9698 56.2733 45.4231 55.94C44.8898 55.6067 44.4631 55.1533 44.1431 54.58C43.8231 53.9933 43.6631 53.3333 43.6631 52.6C43.6631 51.8667 43.8231 51.2133 44.1431 50.64C44.4631 50.0667 44.8898 49.6133 45.4231 49.28C45.9698 48.9467 46.5831 48.78 47.2631 48.78C47.9298 48.78 48.5298 48.9467 49.0631 49.28C49.6098 49.6133 50.0365 50.0667 50.3431 50.64C50.6631 51.2133 50.8231 51.8667 50.8231 52.6C50.8231 53.3333 50.6631 53.9933 50.3431 54.58C50.0365 55.1533 49.6098 55.6067 49.0631 55.94C48.5298 56.2733 47.9298 56.44 47.2631 56.44Z" fill="black"/>
<path d="M31.66 58H40.16V56.2H33.62V43.1H31.66V58Z" fill="black"/>
<path d="M100 50C100 77.6142 77.6142 100 50 100C22.3858 100 0 77.6142 0 50C0 22.3858 22.3858 0 50 0C77.6142 0 100 22.3858 100 50ZM6.97337 50C6.97337 73.763 26.237 93.0266 50 93.0266C73.763 93.0266 93.0266 73.763 93.0266 50C93.0266 26.237 73.763 6.97337 50 6.97337C26.237 6.97337 6.97337 26.237 6.97337 50Z" fill="#C4E2FF"/>
<path d="M50 3.48668C50 1.56104 51.563 -0.0126694 53.484 0.121448C64.9368 0.92105 75.8068 5.64412 84.2274 13.5516C92.6479 21.459 98.0442 32.011 99.5614 43.391C99.8158 45.2997 98.3434 46.9585 96.4215 47.0794C94.4997 47.2003 92.8582 45.7367 92.5822 43.8309C91.1904 34.2223 86.581 25.3278 79.4538 18.6349C72.3266 11.9421 63.1602 7.90017 53.4832 7.1145C51.5638 6.95867 50 5.41232 50 3.48668Z" fill="#24609B"/>
</svg>
