<svg width="324" height="716" viewBox="0 0 324 716" fill="none" xmlns="http://www.w3.org/2000/svg">
<path d="M147.52 218H149.86V203.1H144.66V205.1H147.52V218ZM157.657 218.24C158.63 218.24 159.497 218.027 160.257 217.6C161.017 217.173 161.617 216.593 162.057 215.86C162.497 215.113 162.717 214.273 162.717 213.34C162.717 212.42 162.51 211.607 162.097 210.9C161.697 210.18 161.143 209.62 160.437 209.22C159.73 208.807 158.93 208.6 158.037 208.6C157.69 208.6 157.377 208.64 157.097 208.72L161.437 203.1H158.617L154.457 208.56C153.75 209.48 153.263 210.313 152.997 211.06C152.743 211.807 152.617 212.553 152.617 213.3C152.617 214.247 152.83 215.093 153.257 215.84C153.697 216.587 154.297 217.173 155.057 217.6C155.817 218.027 156.683 218.24 157.657 218.24ZM157.657 216.14C157.15 216.14 156.69 216.02 156.277 215.78C155.877 215.54 155.557 215.213 155.317 214.8C155.077 214.373 154.957 213.893 154.957 213.36C154.957 212.547 155.21 211.887 155.717 211.38C156.237 210.86 156.883 210.6 157.657 210.6C158.43 210.6 159.07 210.86 159.577 211.38C160.097 211.887 160.357 212.547 160.357 213.36C160.357 214.173 160.097 214.84 159.577 215.36C159.07 215.88 158.43 216.14 157.657 216.14ZM168.828 209.42C169.442 209.42 169.995 209.273 170.488 208.98C170.995 208.687 171.395 208.293 171.688 207.8C171.982 207.307 172.128 206.753 172.128 206.14C172.128 205.527 171.982 204.973 171.688 204.48C171.395 203.987 170.995 203.593 170.488 203.3C169.995 203.007 169.442 202.86 168.828 202.86C168.215 202.86 167.655 203.007 167.148 203.3C166.655 203.593 166.262 203.987 165.968 204.48C165.675 204.973 165.528 205.527 165.528 206.14C165.528 206.753 165.675 207.307 165.968 207.8C166.262 208.293 166.655 208.687 167.148 208.98C167.655 209.273 168.215 209.42 168.828 209.42ZM168.808 207.8C168.355 207.8 167.962 207.647 167.628 207.34C167.308 207.033 167.148 206.633 167.148 206.14C167.148 205.66 167.308 205.267 167.628 204.96C167.962 204.64 168.355 204.48 168.808 204.48C169.275 204.48 169.668 204.64 169.988 204.96C170.322 205.267 170.488 205.66 170.488 206.14C170.488 206.633 170.322 207.033 169.988 207.34C169.668 207.647 169.275 207.8 168.808 207.8Z" fill="#1F1E31"/>
<path d="M3.408 202H4.992V191.52H8.176V190.08H0.176V191.52H3.408V202ZM12.4824 202.192C13.293 202.192 14.0344 202 14.7064 201.616C15.3784 201.232 15.9117 200.699 16.3064 200.016C16.7117 199.333 16.9144 198.555 16.9144 197.68C16.9144 196.816 16.717 196.048 16.3224 195.376C15.9384 194.693 15.4104 194.16 14.7384 193.776C14.0664 193.381 13.3144 193.184 12.4824 193.184C11.6397 193.184 10.8824 193.381 10.2104 193.776C9.53838 194.16 9.00504 194.693 8.61038 195.376C8.22638 196.048 8.03438 196.816 8.03438 197.68C8.03438 198.544 8.23171 199.317 8.62638 200C9.02104 200.683 9.55438 201.221 10.2264 201.616C10.8984 202 11.6504 202.192 12.4824 202.192ZM12.4824 200.752C11.9384 200.752 11.4477 200.619 11.0104 200.352C10.5837 200.085 10.2424 199.723 9.98638 199.264C9.73038 198.795 9.60238 198.267 9.60238 197.68C9.60238 197.093 9.73038 196.571 9.98638 196.112C10.2424 195.653 10.5837 195.291 11.0104 195.024C11.4477 194.757 11.9384 194.624 12.4824 194.624C13.0157 194.624 13.4957 194.757 13.9224 195.024C14.3597 195.291 14.701 195.653 14.9464 196.112C15.2024 196.571 15.3304 197.093 15.3304 197.68C15.3304 198.267 15.2024 198.795 14.9464 199.264C14.701 199.723 14.3597 200.085 13.9224 200.352C13.4957 200.619 13.0157 200.752 12.4824 200.752ZM18.8551 202H20.3431V196.896C20.3431 196.192 20.5351 195.637 20.9191 195.232C21.3031 194.827 21.7831 194.624 22.3591 194.624C22.9458 194.624 23.4205 194.827 23.7831 195.232C24.1565 195.627 24.3431 196.181 24.3431 196.896V202H25.8471V196.896C25.8471 196.192 26.0338 195.637 26.4071 195.232C26.7911 194.827 27.2765 194.624 27.8631 194.624C28.4391 194.624 28.9138 194.827 29.2871 195.232C29.6605 195.627 29.8471 196.181 29.8471 196.896V202H31.3511V196.416C31.3511 195.797 31.2071 195.248 30.9191 194.768C30.6311 194.277 30.2418 193.893 29.7511 193.616C29.2711 193.328 28.7325 193.184 28.1351 193.184C27.5591 193.184 27.0311 193.317 26.5511 193.584C26.0818 193.851 25.7085 194.24 25.4311 194.752C25.1751 194.272 24.8018 193.893 24.3111 193.616C23.8311 193.328 23.2978 193.184 22.7111 193.184C22.1991 193.184 21.7298 193.296 21.3031 193.52C20.8871 193.733 20.5565 194.043 20.3111 194.448V193.376H18.8551V202ZM33.4645 202H34.9525V196.896C34.9525 196.192 35.1445 195.637 35.5285 195.232C35.9125 194.827 36.3925 194.624 36.9685 194.624C37.5552 194.624 38.0298 194.827 38.3925 195.232C38.7658 195.627 38.9525 196.181 38.9525 196.896V202H40.4565V196.896C40.4565 196.192 40.6432 195.637 41.0165 195.232C41.4005 194.827 41.8858 194.624 42.4725 194.624C43.0485 194.624 43.5232 194.827 43.8965 195.232C44.2698 195.627 44.4565 196.181 44.4565 196.896V202H45.9605V196.416C45.9605 195.797 45.8165 195.248 45.5285 194.768C45.2405 194.277 44.8512 193.893 44.3605 193.616C43.8805 193.328 43.3418 193.184 42.7445 193.184C42.1685 193.184 41.6405 193.317 41.1605 193.584C40.6912 193.851 40.3178 194.24 40.0405 194.752C39.7845 194.272 39.4112 193.893 38.9205 193.616C38.4405 193.328 37.9072 193.184 37.3205 193.184C36.8085 193.184 36.3392 193.296 35.9125 193.52C35.4965 193.733 35.1658 194.043 34.9205 194.448V193.376H33.4645V202ZM52.1699 202.192C52.9805 202.192 53.7219 202 54.3939 201.616C55.0659 201.232 55.5992 200.699 55.9939 200.016C56.3992 199.333 56.6019 198.555 56.6019 197.68C56.6019 196.816 56.4045 196.048 56.0099 195.376C55.6259 194.693 55.0979 194.16 54.4259 193.776C53.7539 193.381 53.0019 193.184 52.1699 193.184C51.3272 193.184 50.5699 193.381 49.8979 193.776C49.2259 194.16 48.6925 194.693 48.2979 195.376C47.9139 196.048 47.7219 196.816 47.7219 197.68C47.7219 198.544 47.9192 199.317 48.3139 200C48.7085 200.683 49.2419 201.221 49.9139 201.616C50.5859 202 51.3379 202.192 52.1699 202.192ZM52.1699 200.752C51.6259 200.752 51.1352 200.619 50.6979 200.352C50.2712 200.085 49.9299 199.723 49.6739 199.264C49.4179 198.795 49.2899 198.267 49.2899 197.68C49.2899 197.093 49.4179 196.571 49.6739 196.112C49.9299 195.653 50.2712 195.291 50.6979 195.024C51.1352 194.757 51.6259 194.624 52.1699 194.624C52.7032 194.624 53.1832 194.757 53.6099 195.024C54.0472 195.291 54.3885 195.653 54.6339 196.112C54.8899 196.571 55.0179 197.093 55.0179 197.68C55.0179 198.267 54.8899 198.795 54.6339 199.264C54.3885 199.723 54.0472 200.085 53.6099 200.352C53.1832 200.619 52.7032 200.752 52.1699 200.752ZM58.5426 202H60.0306V196.864C60.0306 196.171 60.2173 195.637 60.5906 195.264C60.964 194.88 61.4546 194.688 62.0626 194.688H62.8146V193.28H62.2866C61.7533 193.28 61.2946 193.376 60.9106 193.568C60.5266 193.749 60.2226 194.027 59.9986 194.4V193.376H58.5426V202ZM68.2324 202.192C69.043 202.192 69.7844 202 70.4564 201.616C71.1284 201.232 71.6617 200.699 72.0564 200.016C72.4617 199.333 72.6644 198.555 72.6644 197.68C72.6644 196.816 72.467 196.048 72.0724 195.376C71.6884 194.693 71.1604 194.16 70.4884 193.776C69.8164 193.381 69.0644 193.184 68.2324 193.184C67.3897 193.184 66.6324 193.381 65.9604 193.776C65.2884 194.16 64.755 194.693 64.3604 195.376C63.9764 196.048 63.7844 196.816 63.7844 197.68C63.7844 198.544 63.9817 199.317 64.3764 200C64.771 200.683 65.3044 201.221 65.9764 201.616C66.6484 202 67.4004 202.192 68.2324 202.192ZM68.2324 200.752C67.6884 200.752 67.1977 200.619 66.7604 200.352C66.3337 200.085 65.9924 199.723 65.7364 199.264C65.4804 198.795 65.3524 198.267 65.3524 197.68C65.3524 197.093 65.4804 196.571 65.7364 196.112C65.9924 195.653 66.3337 195.291 66.7604 195.024C67.1977 194.757 67.6884 194.624 68.2324 194.624C68.7657 194.624 69.2457 194.757 69.6724 195.024C70.1097 195.291 70.451 195.653 70.6964 196.112C70.9524 196.571 71.0804 197.093 71.0804 197.68C71.0804 198.267 70.9524 198.795 70.6964 199.264C70.451 199.723 70.1097 200.085 69.6724 200.352C69.2457 200.619 68.7657 200.752 68.2324 200.752ZM76.4329 202H77.8569L79.9049 195.504L81.9529 202H83.3769L86.3369 193.376H84.7049L82.6249 199.696L80.6089 193.376H79.2009L77.1849 199.696L75.1209 193.376H73.4729L76.4329 202Z" fill="#1F1E31"/>
<path d="M2.896 232H4.176V220.08H0.656V221.2H2.896V232ZM6.8655 232H14.6095V230.88H8.7055L11.7295 227.552C12.3162 226.912 12.7962 226.352 13.1695 225.872C13.5428 225.392 13.8202 224.944 14.0015 224.528C14.1935 224.112 14.2895 223.68 14.2895 223.232C14.2895 222.581 14.1348 222.005 13.8255 221.504C13.5268 221.003 13.1108 220.608 12.5775 220.32C12.0442 220.032 11.4202 219.888 10.7055 219.888C9.70283 219.888 8.8495 220.176 8.1455 220.752C7.4415 221.317 6.98283 222.085 6.7695 223.056L7.9375 223.312C8.10817 222.587 8.4335 222.021 8.9135 221.616C9.40417 221.211 10.0068 221.008 10.7215 221.008C11.4148 221.008 11.9695 221.2 12.3855 221.584C12.8015 221.968 13.0095 222.517 13.0095 223.232C13.0095 223.68 12.9082 224.096 12.7055 224.48C12.5028 224.864 12.1935 225.291 11.7775 225.76C11.3722 226.229 10.8442 226.821 10.1935 227.536L6.8655 231.2V232ZM18.426 232H19.77L20.81 229.088H26.138L27.162 232H28.506L24.154 220.08H22.778L18.426 232ZM21.226 227.888L23.466 221.584L25.69 227.888H21.226ZM29.9195 235.2H31.1195V230.608C31.4395 231.109 31.8768 231.499 32.4315 231.776C32.9862 232.053 33.5942 232.192 34.2555 232.192C35.0662 232.192 35.7862 232 36.4155 231.616C37.0555 231.221 37.5568 230.688 37.9195 230.016C38.2928 229.333 38.4795 228.565 38.4795 227.712C38.4795 226.848 38.2928 226.08 37.9195 225.408C37.5568 224.736 37.0555 224.208 36.4155 223.824C35.7862 223.429 35.0662 223.232 34.2555 223.232C33.5835 223.232 32.9808 223.365 32.4475 223.632C31.9142 223.899 31.4715 224.261 31.1195 224.72V223.424H29.9195V235.2ZM34.1915 230.992C33.6155 230.992 33.0928 230.848 32.6235 230.56C32.1648 230.272 31.7968 229.883 31.5195 229.392C31.2528 228.891 31.1195 228.331 31.1195 227.712C31.1195 227.093 31.2528 226.539 31.5195 226.048C31.7968 225.547 32.1648 225.152 32.6235 224.864C33.0928 224.576 33.6155 224.432 34.1915 224.432C34.7675 224.432 35.2795 224.576 35.7275 224.864C36.1862 225.152 36.5435 225.541 36.7995 226.032C37.0662 226.523 37.1995 227.083 37.1995 227.712C37.1995 228.331 37.0662 228.891 36.7995 229.392C36.5435 229.883 36.1862 230.272 35.7275 230.56C35.2795 230.848 34.7675 230.992 34.1915 230.992ZM40.5914 232H41.7914V226.72C41.7914 226.016 41.978 225.472 42.3514 225.088C42.7247 224.704 43.2207 224.512 43.8394 224.512H44.5914V223.312H44.0474C43.5247 223.312 43.0714 223.403 42.6874 223.584C42.314 223.765 42.0154 224.021 41.7914 224.352V223.424H40.5914V232Z" fill="#999999"/>
<rect x="240" y="186" width="48" height="48" rx="24" fill="#FED402"/>
<path d="M147.52 298H149.86V283.1H144.66V285.1H147.52V298ZM157.812 298.24C158.812 298.24 159.705 298.02 160.492 297.58C161.279 297.14 161.892 296.54 162.332 295.78C162.785 295.02 163.012 294.167 163.012 293.22C163.012 292.287 162.805 291.453 162.392 290.72C161.992 289.973 161.425 289.387 160.692 288.96C159.972 288.52 159.125 288.3 158.152 288.3C157.152 288.3 156.325 288.527 155.672 288.98L156.192 285.1H162.452V283.1H154.512L153.352 291.3L155.252 291.72C155.465 291.293 155.799 290.953 156.252 290.7C156.719 290.447 157.239 290.32 157.812 290.32C158.639 290.32 159.319 290.593 159.852 291.14C160.399 291.673 160.672 292.367 160.672 293.22C160.672 294.073 160.399 294.773 159.852 295.32C159.319 295.867 158.639 296.14 157.812 296.14C157.119 296.14 156.492 295.953 155.932 295.58C155.372 295.207 154.959 294.667 154.692 293.96L152.712 294.72C152.925 295.44 153.279 296.067 153.772 296.6C154.279 297.12 154.879 297.527 155.572 297.82C156.279 298.1 157.025 298.24 157.812 298.24ZM169.317 289.42C169.93 289.42 170.483 289.273 170.977 288.98C171.483 288.687 171.883 288.293 172.177 287.8C172.47 287.307 172.617 286.753 172.617 286.14C172.617 285.527 172.47 284.973 172.177 284.48C171.883 283.987 171.483 283.593 170.977 283.3C170.483 283.007 169.93 282.86 169.317 282.86C168.703 282.86 168.143 283.007 167.637 283.3C167.143 283.593 166.75 283.987 166.457 284.48C166.163 284.973 166.017 285.527 166.017 286.14C166.017 286.753 166.163 287.307 166.457 287.8C166.75 288.293 167.143 288.687 167.637 288.98C168.143 289.273 168.703 289.42 169.317 289.42ZM169.297 287.8C168.843 287.8 168.45 287.647 168.117 287.34C167.797 287.033 167.637 286.633 167.637 286.14C167.637 285.66 167.797 285.267 168.117 284.96C168.45 284.64 168.843 284.48 169.297 284.48C169.763 284.48 170.157 284.64 170.477 284.96C170.81 285.267 170.977 285.66 170.977 286.14C170.977 286.633 170.81 287.033 170.477 287.34C170.157 287.647 169.763 287.8 169.297 287.8Z" fill="#1F1E31"/>
<path d="M1.328 282H2.896V272.944L6.784 278.48H6.912L10.784 273.024V282H12.368V270.08H10.928L6.864 275.904L2.768 270.08H1.328V282ZM18.9355 282.192C19.7462 282.192 20.4875 282 21.1595 281.616C21.8315 281.232 22.3648 280.699 22.7595 280.016C23.1648 279.333 23.3675 278.555 23.3675 277.68C23.3675 276.816 23.1702 276.048 22.7755 275.376C22.3915 274.693 21.8635 274.16 21.1915 273.776C20.5195 273.381 19.7675 273.184 18.9355 273.184C18.0928 273.184 17.3355 273.381 16.6635 273.776C15.9915 274.16 15.4582 274.693 15.0635 275.376C14.6795 276.048 14.4875 276.816 14.4875 277.68C14.4875 278.544 14.6848 279.317 15.0795 280C15.4742 280.683 16.0075 281.221 16.6795 281.616C17.3515 282 18.1035 282.192 18.9355 282.192ZM18.9355 280.752C18.3915 280.752 17.9008 280.619 17.4635 280.352C17.0368 280.085 16.6955 279.723 16.4395 279.264C16.1835 278.795 16.0555 278.267 16.0555 277.68C16.0555 277.093 16.1835 276.571 16.4395 276.112C16.6955 275.653 17.0368 275.291 17.4635 275.024C17.9008 274.757 18.3915 274.624 18.9355 274.624C19.4688 274.624 19.9488 274.757 20.3755 275.024C20.8128 275.291 21.1542 275.653 21.3995 276.112C21.6555 276.571 21.7835 277.093 21.7835 277.68C21.7835 278.267 21.6555 278.795 21.3995 279.264C21.1542 279.723 20.8128 280.085 20.3755 280.352C19.9488 280.619 19.4688 280.752 18.9355 280.752ZM25.3083 282H26.7963V276.896C26.7963 276.192 26.9936 275.637 27.3883 275.232C27.7829 274.827 28.2843 274.624 28.8923 274.624C29.5003 274.624 29.9963 274.827 30.3803 275.232C30.7643 275.627 30.9563 276.181 30.9563 276.896V282H32.4603V276.416C32.4603 275.797 32.3163 275.248 32.0283 274.768C31.7509 274.277 31.3669 273.893 30.8763 273.616C30.3963 273.328 29.8469 273.184 29.2283 273.184C28.6949 273.184 28.2149 273.296 27.7883 273.52C27.3616 273.733 27.0203 274.037 26.7643 274.432V273.376H25.3083V282ZM38.5095 282.192C39.1495 282.192 39.7308 282.069 40.2535 281.824C40.7868 281.568 41.2135 281.205 41.5335 280.736V282H42.9895V270.08H41.4855V274.528C41.1548 274.101 40.7335 273.771 40.2215 273.536C39.7095 273.301 39.1388 273.184 38.5095 273.184C37.6988 273.184 36.9682 273.381 36.3175 273.776C35.6775 274.171 35.1708 274.709 34.7975 275.392C34.4242 276.064 34.2375 276.832 34.2375 277.696C34.2375 278.549 34.4242 279.317 34.7975 280C35.1708 280.672 35.6775 281.205 36.3175 281.6C36.9682 281.995 37.6988 282.192 38.5095 282.192ZM38.6375 280.752C38.0935 280.752 37.6082 280.619 37.1815 280.352C36.7548 280.085 36.4188 279.723 36.1735 279.264C35.9282 278.795 35.8055 278.272 35.8055 277.696C35.8055 277.109 35.9282 276.587 36.1735 276.128C36.4188 275.659 36.7548 275.291 37.1815 275.024C37.6188 274.757 38.1042 274.624 38.6375 274.624C39.1815 274.624 39.6668 274.763 40.0935 275.04C40.5202 275.307 40.8562 275.669 41.1015 276.128C41.3575 276.587 41.4855 277.109 41.4855 277.696C41.4855 278.272 41.3575 278.795 41.1015 279.264C40.8562 279.723 40.5202 280.085 40.0935 280.352C39.6668 280.619 39.1815 280.752 38.6375 280.752ZM47.8206 282.192C48.45 282.192 49.0153 282.075 49.5166 281.84C50.018 281.595 50.4233 281.275 50.7326 280.88V282H52.1886V276.144C52.1886 275.557 52.0446 275.045 51.7566 274.608C51.4793 274.16 51.09 273.813 50.5886 273.568C50.0873 273.312 49.506 273.184 48.8446 273.184C48.3326 273.184 47.842 273.275 47.3726 273.456C46.9033 273.637 46.4926 273.888 46.1406 274.208C45.7886 274.517 45.5326 274.869 45.3726 275.264L46.6686 275.936C46.85 275.531 47.1273 275.2 47.5006 274.944C47.874 274.688 48.3113 274.56 48.8126 274.56C49.378 274.56 49.8313 274.709 50.1726 275.008C50.5246 275.296 50.7006 275.675 50.7006 276.144V276.544L47.7566 277.024C46.786 277.184 46.0713 277.509 45.6126 278C45.1646 278.48 44.9406 279.061 44.9406 279.744C44.9406 280.469 45.2073 281.061 45.7406 281.52C46.2846 281.968 46.978 282.192 47.8206 282.192ZM46.5086 279.696C46.5086 279.323 46.6313 279.008 46.8766 278.752C47.1326 278.496 47.538 278.32 48.0926 278.224L50.7006 277.792V278.336C50.7006 278.816 50.5886 279.253 50.3646 279.648C50.1406 280.043 49.826 280.357 49.4206 280.592C49.0153 280.816 48.5406 280.928 47.9966 280.928C47.57 280.928 47.2126 280.811 46.9246 280.576C46.6473 280.341 46.5086 280.048 46.5086 279.696ZM54.9598 285.52C55.5251 285.52 56.0051 285.408 56.3998 285.184C56.8051 284.96 57.1464 284.656 57.4238 284.272C57.7118 283.899 57.9464 283.483 58.1278 283.024L62.0158 273.376H60.3678L57.7598 280.112L55.1358 273.376H53.5198L56.9438 282.016L56.6878 282.64C56.4531 283.173 56.2024 283.552 55.9358 283.776C55.6798 284 55.3011 284.112 54.7998 284.112C54.6291 284.112 54.4531 284.096 54.2718 284.064C54.1011 284.043 53.9571 284.021 53.8398 284V285.328C54.0104 285.403 54.1918 285.451 54.3838 285.472C54.5758 285.504 54.7678 285.52 54.9598 285.52Z" fill="#1F1E31"/>
<path d="M2.896 312H4.176V300.08H0.656V301.2H2.896V312ZM10.6415 312.192C11.4308 312.192 12.1295 312.027 12.7375 311.696C13.3455 311.355 13.8202 310.901 14.1615 310.336C14.5028 309.76 14.6735 309.12 14.6735 308.416C14.6735 307.744 14.5295 307.152 14.2415 306.64C13.9535 306.117 13.5535 305.701 13.0415 305.392C12.5402 305.072 11.9588 304.875 11.2975 304.8L14.1615 301.2V300.08H7.2335V301.2H12.7215L9.5055 305.28L9.7615 305.84C9.86817 305.819 10.0015 305.803 10.1615 305.792C10.3322 305.781 10.4868 305.776 10.6255 305.776C11.4148 305.776 12.0708 306.005 12.5935 306.464C13.1268 306.912 13.3935 307.563 13.3935 308.416C13.3935 309.259 13.1322 309.915 12.6095 310.384C12.0975 310.843 11.4415 311.072 10.6415 311.072C9.9695 311.072 9.37217 310.896 8.8495 310.544C8.32683 310.181 7.94283 309.691 7.6975 309.072L6.6735 309.552C6.98283 310.373 7.4895 311.019 8.1935 311.488C8.8975 311.957 9.7135 312.192 10.6415 312.192ZM18.5823 312H19.9263L20.9663 309.088H26.2943L27.3183 312H28.6623L24.3103 300.08H22.9343L18.5823 312ZM21.3823 307.888L23.6223 301.584L25.8463 307.888H21.3823ZM30.0758 315.2H31.2758V310.608C31.5958 311.109 32.0331 311.499 32.5878 311.776C33.1424 312.053 33.7504 312.192 34.4118 312.192C35.2224 312.192 35.9424 312 36.5718 311.616C37.2118 311.221 37.7131 310.688 38.0758 310.016C38.4491 309.333 38.6358 308.565 38.6358 307.712C38.6358 306.848 38.4491 306.08 38.0758 305.408C37.7131 304.736 37.2118 304.208 36.5718 303.824C35.9424 303.429 35.2224 303.232 34.4118 303.232C33.7398 303.232 33.1371 303.365 32.6038 303.632C32.0704 303.899 31.6278 304.261 31.2758 304.72V303.424H30.0758V315.2ZM34.3478 310.992C33.7718 310.992 33.2491 310.848 32.7798 310.56C32.3211 310.272 31.9531 309.883 31.6758 309.392C31.4091 308.891 31.2758 308.331 31.2758 307.712C31.2758 307.093 31.4091 306.539 31.6758 306.048C31.9531 305.547 32.3211 305.152 32.7798 304.864C33.2491 304.576 33.7718 304.432 34.3478 304.432C34.9238 304.432 35.4358 304.576 35.8838 304.864C36.3424 305.152 36.6998 305.541 36.9558 306.032C37.2224 306.523 37.3558 307.083 37.3558 307.712C37.3558 308.331 37.2224 308.891 36.9558 309.392C36.6998 309.883 36.3424 310.272 35.8838 310.56C35.4358 310.848 34.9238 310.992 34.3478 310.992ZM40.7476 312H41.9476V306.72C41.9476 306.016 42.1343 305.472 42.5076 305.088C42.881 304.704 43.377 304.512 43.9956 304.512H44.7476V303.312H44.2036C43.681 303.312 43.2276 303.403 42.8436 303.584C42.4703 303.765 42.1716 304.021 41.9476 304.352V303.424H40.7476V312Z" fill="#999999"/>
<rect x="240" y="266" width="48" height="48" rx="24" fill="#FED402"/>
<path d="M147.52 378H149.86V363.1H144.66V365.1H147.52V378ZM159.712 378H161.952V374.64H164.012V372.68H161.952V363.1H159.612L152.612 372.68V374.64H159.712V378ZM159.712 372.68H154.972L159.712 366.08V372.68ZM169.942 369.42C170.555 369.42 171.108 369.273 171.602 368.98C172.108 368.687 172.508 368.293 172.802 367.8C173.095 367.307 173.242 366.753 173.242 366.14C173.242 365.527 173.095 364.973 172.802 364.48C172.508 363.987 172.108 363.593 171.602 363.3C171.108 363.007 170.555 362.86 169.942 362.86C169.328 362.86 168.768 363.007 168.262 363.3C167.768 363.593 167.375 363.987 167.082 364.48C166.788 364.973 166.642 365.527 166.642 366.14C166.642 366.753 166.788 367.307 167.082 367.8C167.375 368.293 167.768 368.687 168.262 368.98C168.768 369.273 169.328 369.42 169.942 369.42ZM169.922 367.8C169.468 367.8 169.075 367.647 168.742 367.34C168.422 367.033 168.262 366.633 168.262 366.14C168.262 365.66 168.422 365.267 168.742 364.96C169.075 364.64 169.468 364.48 169.922 364.48C170.388 364.48 170.782 364.64 171.102 364.96C171.435 365.267 171.602 365.66 171.602 366.14C171.602 366.633 171.435 367.033 171.102 367.34C170.782 367.647 170.388 367.8 169.922 367.8Z" fill="#1F1E31"/>
<path d="M3.408 362H4.992V351.52H8.176V350.08H0.176V351.52H3.408V362ZM11.9268 362.192C12.4601 362.192 12.9401 362.085 13.3668 361.872C13.7934 361.648 14.1348 361.339 14.3908 360.944V362H15.8468V353.376H14.3428V358.48C14.3428 359.184 14.1454 359.739 13.7508 360.144C13.3668 360.549 12.8708 360.752 12.2628 360.752C11.6441 360.752 11.1428 360.56 10.7588 360.176C10.3748 359.781 10.1828 359.259 10.1828 358.608V353.376H8.69475V358.768C8.69475 359.44 8.83342 360.037 9.11075 360.56C9.38808 361.072 9.76675 361.472 10.2468 361.76C10.7374 362.048 11.2974 362.192 11.9268 362.192ZM22.12 362.192C23.0053 362.192 23.7733 361.984 24.424 361.568C25.0747 361.152 25.5333 360.645 25.8 360.048L24.552 359.408C24.3067 359.824 23.9867 360.165 23.592 360.432C23.1973 360.699 22.712 360.832 22.136 360.832C21.656 360.832 21.208 360.725 20.792 360.512C20.3867 360.288 20.0507 359.973 19.784 359.568C19.528 359.163 19.3893 358.683 19.368 358.128H25.96C26.0133 357.84 26.04 357.573 26.04 357.328C26.04 356.613 25.88 355.941 25.56 355.312C25.24 354.683 24.776 354.171 24.168 353.776C23.5707 353.381 22.8453 353.184 21.992 353.184C21.192 353.184 20.4773 353.376 19.848 353.76C19.2187 354.144 18.7173 354.677 18.344 355.36C17.9813 356.032 17.8 356.8 17.8 357.664C17.8 358.528 17.9867 359.301 18.36 359.984C18.7333 360.667 19.2453 361.205 19.896 361.6C20.5467 361.995 21.288 362.192 22.12 362.192ZM21.992 354.512C22.4293 354.512 22.8293 354.613 23.192 354.816C23.5547 355.008 23.848 355.28 24.072 355.632C24.296 355.984 24.4133 356.389 24.424 356.848H19.4C19.5067 356.123 19.8053 355.552 20.296 355.136C20.7867 354.72 21.352 354.512 21.992 354.512ZM31.0681 362.192C31.6868 362.192 32.2308 362.085 32.7001 361.872C33.1695 361.659 33.5375 361.365 33.8041 360.992C34.0708 360.608 34.2041 360.171 34.2041 359.68C34.2041 359.083 34.0068 358.571 33.6121 358.144C33.2175 357.717 32.6735 357.403 31.9801 357.2L30.5721 356.784C30.4015 356.731 30.2255 356.667 30.0441 356.592C29.8628 356.507 29.7081 356.389 29.5801 356.24C29.4521 356.08 29.3881 355.877 29.3881 355.632C29.3881 355.291 29.5161 355.013 29.7721 354.8C30.0388 354.587 30.3855 354.48 30.8121 354.48C31.2815 354.48 31.7081 354.613 32.0921 354.88C32.4868 355.136 32.7801 355.488 32.9721 355.936L34.1881 355.376C33.9321 354.683 33.5001 354.144 32.8921 353.76C32.2948 353.376 31.6175 353.184 30.8601 353.184C30.2948 353.184 29.7828 353.291 29.3241 353.504C28.8761 353.717 28.5188 354.016 28.2521 354.4C27.9961 354.773 27.8681 355.216 27.8681 355.728C27.8681 356.283 28.0441 356.773 28.3961 357.2C28.7588 357.616 29.3295 357.931 30.1081 358.144L31.4041 358.512C31.5855 358.555 31.7721 358.624 31.9641 358.72C32.1668 358.805 32.3375 358.928 32.4761 359.088C32.6255 359.237 32.7001 359.44 32.7001 359.696C32.7001 360.059 32.5455 360.352 32.2361 360.576C31.9268 360.8 31.5375 360.912 31.0681 360.912C30.5455 360.912 30.0708 360.768 29.6441 360.48C29.2175 360.181 28.8815 359.771 28.6361 359.248L27.4521 359.824C27.7188 360.549 28.1721 361.125 28.8121 361.552C29.4521 361.979 30.2041 362.192 31.0681 362.192ZM40.072 362.192C40.712 362.192 41.2933 362.069 41.816 361.824C42.3493 361.568 42.776 361.205 43.096 360.736V362H44.552V350.08H43.048V354.528C42.7173 354.101 42.296 353.771 41.784 353.536C41.272 353.301 40.7013 353.184 40.072 353.184C39.2613 353.184 38.5307 353.381 37.88 353.776C37.24 354.171 36.7333 354.709 36.36 355.392C35.9867 356.064 35.8 356.832 35.8 357.696C35.8 358.549 35.9867 359.317 36.36 360C36.7333 360.672 37.24 361.205 37.88 361.6C38.5307 361.995 39.2613 362.192 40.072 362.192ZM40.2 360.752C39.656 360.752 39.1707 360.619 38.744 360.352C38.3173 360.085 37.9813 359.723 37.736 359.264C37.4907 358.795 37.368 358.272 37.368 357.696C37.368 357.109 37.4907 356.587 37.736 356.128C37.9813 355.659 38.3173 355.291 38.744 355.024C39.1813 354.757 39.6667 354.624 40.2 354.624C40.744 354.624 41.2293 354.763 41.656 355.04C42.0827 355.307 42.4187 355.669 42.664 356.128C42.92 356.587 43.048 357.109 43.048 357.696C43.048 358.272 42.92 358.795 42.664 359.264C42.4187 359.723 42.0827 360.085 41.656 360.352C41.2293 360.619 40.744 360.752 40.2 360.752ZM49.3831 362.192C50.0125 362.192 50.5778 362.075 51.0791 361.84C51.5805 361.595 51.9858 361.275 52.2951 360.88V362H53.7511V356.144C53.7511 355.557 53.6071 355.045 53.3191 354.608C53.0418 354.16 52.6525 353.813 52.1511 353.568C51.6498 353.312 51.0685 353.184 50.4071 353.184C49.8951 353.184 49.4045 353.275 48.9351 353.456C48.4658 353.637 48.0551 353.888 47.7031 354.208C47.3511 354.517 47.0951 354.869 46.9351 355.264L48.2311 355.936C48.4125 355.531 48.6898 355.2 49.0631 354.944C49.4365 354.688 49.8738 354.56 50.3751 354.56C50.9405 354.56 51.3938 354.709 51.7351 355.008C52.0871 355.296 52.2631 355.675 52.2631 356.144V356.544L49.3191 357.024C48.3485 357.184 47.6338 357.509 47.1751 358C46.7271 358.48 46.5031 359.061 46.5031 359.744C46.5031 360.469 46.7698 361.061 47.3031 361.52C47.8471 361.968 48.5405 362.192 49.3831 362.192ZM48.0711 359.696C48.0711 359.323 48.1938 359.008 48.4391 358.752C48.6951 358.496 49.1005 358.32 49.6551 358.224L52.2631 357.792V358.336C52.2631 358.816 52.1511 359.253 51.9271 359.648C51.7031 360.043 51.3885 360.357 50.9831 360.592C50.5778 360.816 50.1031 360.928 49.5591 360.928C49.1325 360.928 48.7751 360.811 48.4871 360.576C48.2098 360.341 48.0711 360.048 48.0711 359.696ZM56.5223 365.52C57.0876 365.52 57.5676 365.408 57.9623 365.184C58.3676 364.96 58.7089 364.656 58.9863 364.272C59.2743 363.899 59.5089 363.483 59.6903 363.024L63.5783 353.376H61.9303L59.3223 360.112L56.6983 353.376H55.0823L58.5063 362.016L58.2503 362.64C58.0156 363.173 57.7649 363.552 57.4983 363.776C57.2423 364 56.8636 364.112 56.3623 364.112C56.1916 364.112 56.0156 364.096 55.8343 364.064C55.6636 364.043 55.5196 364.021 55.4023 364V365.328C55.5729 365.403 55.7543 365.451 55.9463 365.472C56.1383 365.504 56.3303 365.52 56.5223 365.52Z" fill="#1F1E31"/>
<path d="M2.896 392H4.176V380.08H0.656V381.2H2.896V392ZM12.7375 392H13.8575V389.184H15.3135V388.144H13.8575V380.08H12.7375L6.6735 388.144V389.184H12.7375V392ZM12.7375 388.144H8.0015L12.7375 381.824V388.144ZM18.9104 392H20.2544L21.2944 389.088H26.6224L27.6464 392H28.9904L24.6384 380.08H23.2624L18.9104 392ZM21.7104 387.888L23.9504 381.584L26.1744 387.888H21.7104ZM30.4039 395.2H31.6039V390.608C31.9239 391.109 32.3612 391.499 32.9159 391.776C33.4705 392.053 34.0785 392.192 34.7399 392.192C35.5505 392.192 36.2705 392 36.8999 391.616C37.5399 391.221 38.0412 390.688 38.4039 390.016C38.7772 389.333 38.9639 388.565 38.9639 387.712C38.9639 386.848 38.7772 386.08 38.4039 385.408C38.0412 384.736 37.5399 384.208 36.8999 383.824C36.2705 383.429 35.5505 383.232 34.7399 383.232C34.0679 383.232 33.4652 383.365 32.9319 383.632C32.3985 383.899 31.9559 384.261 31.6039 384.72V383.424H30.4039V395.2ZM34.6759 390.992C34.0999 390.992 33.5772 390.848 33.1079 390.56C32.6492 390.272 32.2812 389.883 32.0039 389.392C31.7372 388.891 31.6039 388.331 31.6039 387.712C31.6039 387.093 31.7372 386.539 32.0039 386.048C32.2812 385.547 32.6492 385.152 33.1079 384.864C33.5772 384.576 34.0999 384.432 34.6759 384.432C35.2519 384.432 35.7639 384.576 36.2119 384.864C36.6705 385.152 37.0279 385.541 37.2839 386.032C37.5505 386.523 37.6839 387.083 37.6839 387.712C37.6839 388.331 37.5505 388.891 37.2839 389.392C37.0279 389.883 36.6705 390.272 36.2119 390.56C35.7639 390.848 35.2519 390.992 34.6759 390.992ZM41.0758 392H42.2758V386.72C42.2758 386.016 42.4624 385.472 42.8358 385.088C43.2091 384.704 43.7051 384.512 44.3238 384.512H45.0758V383.312H44.5318C44.0091 383.312 43.5558 383.403 43.1718 383.584C42.7984 383.765 42.4998 384.021 42.2758 384.352V383.424H41.0758V392Z" fill="#999999"/>
<rect x="240" y="346" width="48" height="48" rx="24" fill="#EAF6FF"/>
<path d="M147.52 458H149.86V443.1H144.66V445.1H147.52V458ZM159.712 458H161.952V454.64H164.012V452.68H161.952V443.1H159.612L152.612 452.68V454.64H159.712V458ZM159.712 452.68H154.972L159.712 446.08V452.68ZM169.942 449.42C170.555 449.42 171.108 449.273 171.602 448.98C172.108 448.687 172.508 448.293 172.802 447.8C173.095 447.307 173.242 446.753 173.242 446.14C173.242 445.527 173.095 444.973 172.802 444.48C172.508 443.987 172.108 443.593 171.602 443.3C171.108 443.007 170.555 442.86 169.942 442.86C169.328 442.86 168.768 443.007 168.262 443.3C167.768 443.593 167.375 443.987 167.082 444.48C166.788 444.973 166.642 445.527 166.642 446.14C166.642 446.753 166.788 447.307 167.082 447.8C167.375 448.293 167.768 448.687 168.262 448.98C168.768 449.273 169.328 449.42 169.942 449.42ZM169.922 447.8C169.468 447.8 169.075 447.647 168.742 447.34C168.422 447.033 168.262 446.633 168.262 446.14C168.262 445.66 168.422 445.267 168.742 444.96C169.075 444.64 169.468 444.48 169.922 444.48C170.388 444.48 170.782 444.64 171.102 444.96C171.435 445.267 171.602 445.66 171.602 446.14C171.602 446.633 171.435 447.033 171.102 447.34C170.782 447.647 170.388 447.8 169.922 447.8Z" fill="#1F1E31"/>
<path d="M3.52 442H5.264L7.968 432.304L10.672 442H12.416L15.76 430.08H14.112L11.488 439.84L8.8 430.08H7.152L4.432 439.872L1.824 430.08H0.176L3.52 442ZM20.4481 442.192C21.3335 442.192 22.1015 441.984 22.7521 441.568C23.4028 441.152 23.8615 440.645 24.1281 440.048L22.8801 439.408C22.6348 439.824 22.3148 440.165 21.9201 440.432C21.5255 440.699 21.0401 440.832 20.4641 440.832C19.9841 440.832 19.5361 440.725 19.1201 440.512C18.7148 440.288 18.3788 439.973 18.1121 439.568C17.8561 439.163 17.7175 438.683 17.6961 438.128H24.2881C24.3415 437.84 24.3681 437.573 24.3681 437.328C24.3681 436.613 24.2081 435.941 23.8881 435.312C23.5681 434.683 23.1041 434.171 22.4961 433.776C21.8988 433.381 21.1735 433.184 20.3201 433.184C19.5201 433.184 18.8055 433.376 18.1761 433.76C17.5468 434.144 17.0455 434.677 16.6721 435.36C16.3095 436.032 16.1281 436.8 16.1281 437.664C16.1281 438.528 16.3148 439.301 16.6881 439.984C17.0615 440.667 17.5735 441.205 18.2241 441.6C18.8748 441.995 19.6161 442.192 20.4481 442.192ZM20.3201 434.512C20.7575 434.512 21.1575 434.613 21.5201 434.816C21.8828 435.008 22.1761 435.28 22.4001 435.632C22.6241 435.984 22.7415 436.389 22.7521 436.848H17.7281C17.8348 436.123 18.1335 435.552 18.6241 435.136C19.1148 434.72 19.6801 434.512 20.3201 434.512ZM30.2283 442.192C30.8683 442.192 31.4496 442.069 31.9723 441.824C32.5056 441.568 32.9323 441.205 33.2523 440.736V442H34.7083V430.08H33.2043V434.528C32.8736 434.101 32.4523 433.771 31.9403 433.536C31.4283 433.301 30.8576 433.184 30.2283 433.184C29.4176 433.184 28.6869 433.381 28.0363 433.776C27.3963 434.171 26.8896 434.709 26.5163 435.392C26.1429 436.064 25.9563 436.832 25.9563 437.696C25.9563 438.549 26.1429 439.317 26.5163 440C26.8896 440.672 27.3963 441.205 28.0363 441.6C28.6869 441.995 29.4176 442.192 30.2283 442.192ZM30.3563 440.752C29.8123 440.752 29.3269 440.619 28.9003 440.352C28.4736 440.085 28.1376 439.723 27.8923 439.264C27.6469 438.795 27.5243 438.272 27.5243 437.696C27.5243 437.109 27.6469 436.587 27.8923 436.128C28.1376 435.659 28.4736 435.291 28.9003 435.024C29.3376 434.757 29.8229 434.624 30.3563 434.624C30.9003 434.624 31.3856 434.763 31.8123 435.04C32.2389 435.307 32.5749 435.669 32.8203 436.128C33.0763 436.587 33.2043 437.109 33.2043 437.696C33.2043 438.272 33.0763 438.795 32.8203 439.264C32.5749 439.723 32.2389 440.085 31.8123 440.352C31.3856 440.619 30.9003 440.752 30.3563 440.752ZM37.0114 442H38.4994V436.896C38.4994 436.192 38.6967 435.637 39.0914 435.232C39.486 434.827 39.9874 434.624 40.5954 434.624C41.2034 434.624 41.6994 434.827 42.0834 435.232C42.4674 435.627 42.6594 436.181 42.6594 436.896V442H44.1634V436.416C44.1634 435.797 44.0194 435.248 43.7314 434.768C43.454 434.277 43.07 433.893 42.5794 433.616C42.0994 433.328 41.55 433.184 40.9314 433.184C40.398 433.184 39.918 433.296 39.4914 433.52C39.0647 433.733 38.7234 434.037 38.4674 434.432V433.376H37.0114V442ZM50.2606 442.192C51.146 442.192 51.914 441.984 52.5646 441.568C53.2153 441.152 53.674 440.645 53.9406 440.048L52.6926 439.408C52.4473 439.824 52.1273 440.165 51.7326 440.432C51.338 440.699 50.8526 440.832 50.2766 440.832C49.7966 440.832 49.3486 440.725 48.9326 440.512C48.5273 440.288 48.1913 439.973 47.9246 439.568C47.6686 439.163 47.53 438.683 47.5086 438.128H54.1006C54.154 437.84 54.1806 437.573 54.1806 437.328C54.1806 436.613 54.0206 435.941 53.7006 435.312C53.3806 434.683 52.9166 434.171 52.3086 433.776C51.7113 433.381 50.986 433.184 50.1326 433.184C49.3326 433.184 48.618 433.376 47.9886 433.76C47.3593 434.144 46.858 434.677 46.4846 435.36C46.122 436.032 45.9406 436.8 45.9406 437.664C45.9406 438.528 46.1273 439.301 46.5006 439.984C46.874 440.667 47.386 441.205 48.0366 441.6C48.6873 441.995 49.4286 442.192 50.2606 442.192ZM50.1326 434.512C50.57 434.512 50.97 434.613 51.3326 434.816C51.6953 435.008 51.9886 435.28 52.2126 435.632C52.4366 435.984 52.554 436.389 52.5646 436.848H47.5406C47.6473 436.123 47.946 435.552 48.4366 435.136C48.9273 434.72 49.4926 434.512 50.1326 434.512ZM59.2088 442.192C59.8274 442.192 60.3714 442.085 60.8408 441.872C61.3101 441.659 61.6781 441.365 61.9448 440.992C62.2114 440.608 62.3448 440.171 62.3448 439.68C62.3448 439.083 62.1474 438.571 61.7528 438.144C61.3581 437.717 60.8141 437.403 60.1208 437.2L58.7128 436.784C58.5421 436.731 58.3661 436.667 58.1848 436.592C58.0034 436.507 57.8488 436.389 57.7208 436.24C57.5928 436.08 57.5288 435.877 57.5288 435.632C57.5288 435.291 57.6568 435.013 57.9128 434.8C58.1794 434.587 58.5261 434.48 58.9528 434.48C59.4221 434.48 59.8488 434.613 60.2328 434.88C60.6274 435.136 60.9208 435.488 61.1128 435.936L62.3288 435.376C62.0728 434.683 61.6408 434.144 61.0328 433.76C60.4354 433.376 59.7581 433.184 59.0008 433.184C58.4354 433.184 57.9234 433.291 57.4648 433.504C57.0168 433.717 56.6594 434.016 56.3928 434.4C56.1368 434.773 56.0088 435.216 56.0088 435.728C56.0088 436.283 56.1848 436.773 56.5368 437.2C56.8994 437.616 57.4701 437.931 58.2488 438.144L59.5448 438.512C59.7261 438.555 59.9128 438.624 60.1048 438.72C60.3074 438.805 60.4781 438.928 60.6168 439.088C60.7661 439.237 60.8408 439.44 60.8408 439.696C60.8408 440.059 60.6861 440.352 60.3768 440.576C60.0674 440.8 59.6781 440.912 59.2088 440.912C58.6861 440.912 58.2114 440.768 57.7848 440.48C57.3581 440.181 57.0221 439.771 56.7768 439.248L55.5928 439.824C55.8594 440.549 56.3128 441.125 56.9528 441.552C57.5928 441.979 58.3448 442.192 59.2088 442.192ZM68.2126 442.192C68.8526 442.192 69.434 442.069 69.9566 441.824C70.49 441.568 70.9166 441.205 71.2366 440.736V442H72.6926V430.08H71.1886V434.528C70.858 434.101 70.4366 433.771 69.9246 433.536C69.4126 433.301 68.842 433.184 68.2126 433.184C67.402 433.184 66.6713 433.381 66.0206 433.776C65.3806 434.171 64.874 434.709 64.5006 435.392C64.1273 436.064 63.9406 436.832 63.9406 437.696C63.9406 438.549 64.1273 439.317 64.5006 440C64.874 440.672 65.3806 441.205 66.0206 441.6C66.6713 441.995 67.402 442.192 68.2126 442.192ZM68.3406 440.752C67.7966 440.752 67.3113 440.619 66.8846 440.352C66.458 440.085 66.122 439.723 65.8766 439.264C65.6313 438.795 65.5086 438.272 65.5086 437.696C65.5086 437.109 65.6313 436.587 65.8766 436.128C66.122 435.659 66.458 435.291 66.8846 435.024C67.322 434.757 67.8073 434.624 68.3406 434.624C68.8846 434.624 69.37 434.763 69.7966 435.04C70.2233 435.307 70.5593 435.669 70.8046 436.128C71.0606 436.587 71.1886 437.109 71.1886 437.696C71.1886 438.272 71.0606 438.795 70.8046 439.264C70.5593 439.723 70.2233 440.085 69.7966 440.352C69.37 440.619 68.8846 440.752 68.3406 440.752ZM77.5238 442.192C78.1531 442.192 78.7184 442.075 79.2198 441.84C79.7211 441.595 80.1264 441.275 80.4358 440.88V442H81.8918V436.144C81.8918 435.557 81.7478 435.045 81.4598 434.608C81.1824 434.16 80.7931 433.813 80.2918 433.568C79.7904 433.312 79.2091 433.184 78.5477 433.184C78.0358 433.184 77.5451 433.275 77.0758 433.456C76.6064 433.637 76.1958 433.888 75.8438 434.208C75.4918 434.517 75.2358 434.869 75.0758 435.264L76.3718 435.936C76.5531 435.531 76.8304 435.2 77.2038 434.944C77.5771 434.688 78.0144 434.56 78.5158 434.56C79.0811 434.56 79.5344 434.709 79.8758 435.008C80.2278 435.296 80.4038 435.675 80.4038 436.144V436.544L77.4598 437.024C76.4891 437.184 75.7744 437.509 75.3158 438C74.8678 438.48 74.6438 439.061 74.6438 439.744C74.6438 440.469 74.9104 441.061 75.4438 441.52C75.9878 441.968 76.6811 442.192 77.5238 442.192ZM76.2118 439.696C76.2118 439.323 76.3344 439.008 76.5798 438.752C76.8358 438.496 77.2411 438.32 77.7958 438.224L80.4038 437.792V438.336C80.4038 438.816 80.2918 439.253 80.0678 439.648C79.8438 440.043 79.5291 440.357 79.1238 440.592C78.7184 440.816 78.2438 440.928 77.6998 440.928C77.2731 440.928 76.9158 440.811 76.6278 440.576C76.3504 440.341 76.2118 440.048 76.2118 439.696ZM84.6629 445.52C85.2282 445.52 85.7082 445.408 86.1029 445.184C86.5082 444.96 86.8495 444.656 87.1269 444.272C87.4149 443.899 87.6495 443.483 87.8309 443.024L91.7189 433.376H90.0709L87.4629 440.112L84.8389 433.376H83.2229L86.6469 442.016L86.3909 442.64C86.1562 443.173 85.9055 443.552 85.6389 443.776C85.3829 444 85.0042 444.112 84.5029 444.112C84.3322 444.112 84.1562 444.096 83.9749 444.064C83.8042 444.043 83.6602 444.021 83.5429 444V445.328C83.7135 445.403 83.8949 445.451 84.0869 445.472C84.2789 445.504 84.4709 445.52 84.6629 445.52Z" fill="#1F1E31"/>
<path d="M2.896 472H4.176V460.08H0.656V461.2H2.896V472ZM10.7695 472.192C11.5375 472.192 12.2202 472.021 12.8175 471.68C13.4255 471.339 13.9002 470.875 14.2415 470.288C14.5935 469.691 14.7695 469.024 14.7695 468.288C14.7695 467.563 14.5988 466.907 14.2575 466.32C13.9268 465.723 13.4682 465.248 12.8815 464.896C12.2948 464.533 11.6175 464.352 10.8495 464.352C10.4548 464.352 10.0655 464.411 9.6815 464.528C9.2975 464.635 8.94017 464.805 8.6095 465.04L9.1535 461.184H14.2895V460.064H8.2575L7.3615 466.544L8.3695 466.736C8.57217 466.395 8.89217 466.107 9.3295 465.872C9.7775 465.627 10.2628 465.504 10.7855 465.504C11.2975 465.504 11.7562 465.627 12.1615 465.872C12.5668 466.107 12.8868 466.432 13.1215 466.848C13.3668 467.264 13.4895 467.744 13.4895 468.288C13.4895 468.811 13.3722 469.285 13.1375 469.712C12.9028 470.128 12.5775 470.459 12.1615 470.704C11.7562 470.949 11.2922 471.072 10.7695 471.072C10.1188 471.072 9.51083 470.896 8.9455 470.544C8.39083 470.181 7.99083 469.691 7.7455 469.072L6.7695 469.552C7.07883 470.363 7.59083 471.008 8.3055 471.488C9.02017 471.957 9.8415 472.192 10.7695 472.192ZM18.6916 472H20.0356L21.0756 469.088H26.4036L27.4276 472H28.7716L24.4196 460.08H23.0436L18.6916 472ZM21.4916 467.888L23.7316 461.584L25.9556 467.888H21.4916ZM30.1851 475.2H31.3851V470.608C31.7051 471.109 32.1425 471.499 32.6971 471.776C33.2518 472.053 33.8598 472.192 34.5211 472.192C35.3318 472.192 36.0518 472 36.6811 471.616C37.3211 471.221 37.8225 470.688 38.1851 470.016C38.5585 469.333 38.7451 468.565 38.7451 467.712C38.7451 466.848 38.5585 466.08 38.1851 465.408C37.8225 464.736 37.3211 464.208 36.6811 463.824C36.0518 463.429 35.3318 463.232 34.5211 463.232C33.8491 463.232 33.2465 463.365 32.7131 463.632C32.1798 463.899 31.7371 464.261 31.3851 464.72V463.424H30.1851V475.2ZM34.4571 470.992C33.8811 470.992 33.3585 470.848 32.8891 470.56C32.4305 470.272 32.0625 469.883 31.7851 469.392C31.5185 468.891 31.3851 468.331 31.3851 467.712C31.3851 467.093 31.5185 466.539 31.7851 466.048C32.0625 465.547 32.4305 465.152 32.8891 464.864C33.3585 464.576 33.8811 464.432 34.4571 464.432C35.0331 464.432 35.5451 464.576 35.9931 464.864C36.4518 465.152 36.8091 465.541 37.0651 466.032C37.3318 466.523 37.4651 467.083 37.4651 467.712C37.4651 468.331 37.3318 468.891 37.0651 469.392C36.8091 469.883 36.4518 470.272 35.9931 470.56C35.5451 470.848 35.0331 470.992 34.4571 470.992ZM40.857 472H42.057V466.72C42.057 466.016 42.2437 465.472 42.617 465.088C42.9903 464.704 43.4863 464.512 44.105 464.512H44.857V463.312H44.313C43.7903 463.312 43.337 463.403 42.953 463.584C42.5797 463.765 42.281 464.021 42.057 464.352V463.424H40.857V472Z" fill="#999999"/>
<rect x="240" y="426" width="48" height="48" rx="24" fill="#C4E2FF"/>
<path d="M147.52 538H149.86V523.1H144.66V525.1H147.52V538ZM157.657 538.24C158.63 538.24 159.497 538.027 160.257 537.6C161.017 537.173 161.617 536.593 162.057 535.86C162.497 535.113 162.717 534.273 162.717 533.34C162.717 532.42 162.51 531.607 162.097 530.9C161.697 530.18 161.143 529.62 160.437 529.22C159.73 528.807 158.93 528.6 158.037 528.6C157.69 528.6 157.377 528.64 157.097 528.72L161.437 523.1H158.617L154.457 528.56C153.75 529.48 153.263 530.313 152.997 531.06C152.743 531.807 152.617 532.553 152.617 533.3C152.617 534.247 152.83 535.093 153.257 535.84C153.697 536.587 154.297 537.173 155.057 537.6C155.817 538.027 156.683 538.24 157.657 538.24ZM157.657 536.14C157.15 536.14 156.69 536.02 156.277 535.78C155.877 535.54 155.557 535.213 155.317 534.8C155.077 534.373 154.957 533.893 154.957 533.36C154.957 532.547 155.21 531.887 155.717 531.38C156.237 530.86 156.883 530.6 157.657 530.6C158.43 530.6 159.07 530.86 159.577 531.38C160.097 531.887 160.357 532.547 160.357 533.36C160.357 534.173 160.097 534.84 159.577 535.36C159.07 535.88 158.43 536.14 157.657 536.14ZM168.828 529.42C169.442 529.42 169.995 529.273 170.488 528.98C170.995 528.687 171.395 528.293 171.688 527.8C171.982 527.307 172.128 526.753 172.128 526.14C172.128 525.527 171.982 524.973 171.688 524.48C171.395 523.987 170.995 523.593 170.488 523.3C169.995 523.007 169.442 522.86 168.828 522.86C168.215 522.86 167.655 523.007 167.148 523.3C166.655 523.593 166.262 523.987 165.968 524.48C165.675 524.973 165.528 525.527 165.528 526.14C165.528 526.753 165.675 527.307 165.968 527.8C166.262 528.293 166.655 528.687 167.148 528.98C167.655 529.273 168.215 529.42 168.828 529.42ZM168.808 527.8C168.355 527.8 167.962 527.647 167.628 527.34C167.308 527.033 167.148 526.633 167.148 526.14C167.148 525.66 167.308 525.267 167.628 524.96C167.962 524.64 168.355 524.48 168.808 524.48C169.275 524.48 169.668 524.64 169.988 524.96C170.322 525.267 170.488 525.66 170.488 526.14C170.488 526.633 170.322 527.033 169.988 527.34C169.668 527.647 169.275 527.8 168.808 527.8Z" fill="#1F1E31"/>
<path d="M3.408 522H4.992V511.52H8.176V510.08H0.176V511.52H3.408V522ZM9.51138 522H10.9994V516.896C10.9994 516.192 11.1967 515.637 11.5914 515.232C11.9967 514.827 12.498 514.624 13.0954 514.624C13.6927 514.624 14.1834 514.827 14.5674 515.232C14.962 515.627 15.1594 516.181 15.1594 516.896V522H16.6634V516.416C16.6634 515.797 16.5194 515.248 16.2314 514.768C15.954 514.277 15.57 513.893 15.0794 513.616C14.5994 513.328 14.05 513.184 13.4314 513.184C12.9087 513.184 12.434 513.291 12.0074 513.504C11.5914 513.707 11.2554 514 10.9994 514.384V510.032H9.51138V522ZM21.8486 522.192C22.382 522.192 22.862 522.085 23.2886 521.872C23.7153 521.648 24.0566 521.339 24.3126 520.944V522H25.7686V513.376H24.2646V518.48C24.2646 519.184 24.0673 519.739 23.6726 520.144C23.2886 520.549 22.7926 520.752 22.1846 520.752C21.566 520.752 21.0646 520.56 20.6806 520.176C20.2966 519.781 20.1046 519.259 20.1046 518.608V513.376H18.6166V518.768C18.6166 519.44 18.7553 520.037 19.0326 520.56C19.31 521.072 19.6886 521.472 20.1686 521.76C20.6593 522.048 21.2193 522.192 21.8486 522.192ZM28.0739 522H29.5619V516.864C29.5619 516.171 29.7485 515.637 30.1219 515.264C30.4952 514.88 30.9859 514.688 31.5939 514.688H32.3459V513.28H31.8179C31.2845 513.28 30.8259 513.376 30.4419 513.568C30.0579 513.749 29.7539 514.027 29.5299 514.4V513.376H28.0739V522ZM36.7556 522.192C37.3743 522.192 37.9183 522.085 38.3876 521.872C38.857 521.659 39.225 521.365 39.4916 520.992C39.7583 520.608 39.8916 520.171 39.8916 519.68C39.8916 519.083 39.6943 518.571 39.2996 518.144C38.905 517.717 38.361 517.403 37.6676 517.2L36.2596 516.784C36.089 516.731 35.913 516.667 35.7316 516.592C35.5503 516.507 35.3956 516.389 35.2676 516.24C35.1396 516.08 35.0756 515.877 35.0756 515.632C35.0756 515.291 35.2036 515.013 35.4596 514.8C35.7263 514.587 36.073 514.48 36.4996 514.48C36.969 514.48 37.3956 514.613 37.7796 514.88C38.1743 515.136 38.4676 515.488 38.6596 515.936L39.8756 515.376C39.6196 514.683 39.1876 514.144 38.5796 513.76C37.9823 513.376 37.305 513.184 36.5476 513.184C35.9823 513.184 35.4703 513.291 35.0116 513.504C34.5636 513.717 34.2063 514.016 33.9396 514.4C33.6836 514.773 33.5556 515.216 33.5556 515.728C33.5556 516.283 33.7316 516.773 34.0836 517.2C34.4463 517.616 35.017 517.931 35.7956 518.144L37.0916 518.512C37.273 518.555 37.4596 518.624 37.6516 518.72C37.8543 518.805 38.025 518.928 38.1636 519.088C38.313 519.237 38.3876 519.44 38.3876 519.696C38.3876 520.059 38.233 520.352 37.9236 520.576C37.6143 520.8 37.225 520.912 36.7556 520.912C36.233 520.912 35.7583 520.768 35.3316 520.48C34.905 520.181 34.569 519.771 34.3236 519.248L33.1396 519.824C33.4063 520.549 33.8596 521.125 34.4996 521.552C35.1396 521.979 35.8916 522.192 36.7556 522.192ZM45.7595 522.192C46.3995 522.192 46.9808 522.069 47.5035 521.824C48.0368 521.568 48.4635 521.205 48.7835 520.736V522H50.2395V510.08H48.7355V514.528C48.4048 514.101 47.9835 513.771 47.4715 513.536C46.9595 513.301 46.3888 513.184 45.7595 513.184C44.9488 513.184 44.2182 513.381 43.5675 513.776C42.9275 514.171 42.4208 514.709 42.0475 515.392C41.6742 516.064 41.4875 516.832 41.4875 517.696C41.4875 518.549 41.6742 519.317 42.0475 520C42.4208 520.672 42.9275 521.205 43.5675 521.6C44.2182 521.995 44.9488 522.192 45.7595 522.192ZM45.8875 520.752C45.3435 520.752 44.8582 520.619 44.4315 520.352C44.0048 520.085 43.6688 519.723 43.4235 519.264C43.1782 518.795 43.0555 518.272 43.0555 517.696C43.0555 517.109 43.1782 516.587 43.4235 516.128C43.6688 515.659 44.0048 515.291 44.4315 515.024C44.8688 514.757 45.3542 514.624 45.8875 514.624C46.4315 514.624 46.9168 514.763 47.3435 515.04C47.7702 515.307 48.1062 515.669 48.3515 516.128C48.6075 516.587 48.7355 517.109 48.7355 517.696C48.7355 518.272 48.6075 518.795 48.3515 519.264C48.1062 519.723 47.7702 520.085 47.3435 520.352C46.9168 520.619 46.4315 520.752 45.8875 520.752ZM55.0706 522.192C55.7 522.192 56.2653 522.075 56.7666 521.84C57.268 521.595 57.6733 521.275 57.9826 520.88V522H59.4386V516.144C59.4386 515.557 59.2946 515.045 59.0066 514.608C58.7293 514.16 58.34 513.813 57.8386 513.568C57.3373 513.312 56.756 513.184 56.0946 513.184C55.5826 513.184 55.092 513.275 54.6226 513.456C54.1533 513.637 53.7426 513.888 53.3906 514.208C53.0386 514.517 52.7826 514.869 52.6226 515.264L53.9186 515.936C54.1 515.531 54.3773 515.2 54.7506 514.944C55.124 514.688 55.5613 514.56 56.0626 514.56C56.628 514.56 57.0813 514.709 57.4226 515.008C57.7746 515.296 57.9506 515.675 57.9506 516.144V516.544L55.0066 517.024C54.036 517.184 53.3213 517.509 52.8626 518C52.4146 518.48 52.1906 519.061 52.1906 519.744C52.1906 520.469 52.4573 521.061 52.9906 521.52C53.5346 521.968 54.228 522.192 55.0706 522.192ZM53.7586 519.696C53.7586 519.323 53.8813 519.008 54.1266 518.752C54.3826 518.496 54.788 518.32 55.3426 518.224L57.9506 517.792V518.336C57.9506 518.816 57.8386 519.253 57.6146 519.648C57.3906 520.043 57.076 520.357 56.6706 520.592C56.2653 520.816 55.7906 520.928 55.2466 520.928C54.82 520.928 54.4626 520.811 54.1746 520.576C53.8973 520.341 53.7586 520.048 53.7586 519.696ZM62.2098 525.52C62.7751 525.52 63.2551 525.408 63.6498 525.184C64.0551 524.96 64.3964 524.656 64.6738 524.272C64.9618 523.899 65.1964 523.483 65.3778 523.024L69.2658 513.376H67.6178L65.0098 520.112L62.3858 513.376H60.7698L64.1938 522.016L63.9378 522.64C63.7031 523.173 63.4524 523.552 63.1858 523.776C62.9298 524 62.5511 524.112 62.0498 524.112C61.8791 524.112 61.7031 524.096 61.5218 524.064C61.3511 524.043 61.2071 524.021 61.0898 524V525.328C61.2604 525.403 61.4418 525.451 61.6338 525.472C61.8258 525.504 62.0178 525.52 62.2098 525.52Z" fill="#1F1E31"/>
<path d="M2.896 552H4.176V540.08H0.656V541.2H2.896V552ZM10.5813 552.192C11.3173 552.192 11.9733 552.027 12.5493 551.696C13.1253 551.365 13.5786 550.917 13.9093 550.352C14.2506 549.776 14.4213 549.131 14.4213 548.416C14.4213 547.669 14.2559 547.013 13.9253 546.448C13.6053 545.883 13.1679 545.44 12.6133 545.12C12.0586 544.789 11.4346 544.624 10.7413 544.624C10.4533 544.624 10.1866 544.651 9.94125 544.704C9.69592 544.757 9.47192 544.848 9.26925 544.976L13.0133 540.08H11.4773L8.11725 544.544C7.19992 545.771 6.74125 547.008 6.74125 548.256C6.74125 549.024 6.90658 549.707 7.23725 550.304C7.56792 550.891 8.02125 551.355 8.59725 551.696C9.17325 552.027 9.83458 552.192 10.5813 552.192ZM10.5813 551.072C10.0906 551.072 9.65325 550.96 9.26925 550.736C8.88525 550.501 8.58125 550.181 8.35725 549.776C8.13325 549.371 8.02125 548.917 8.02125 548.416C8.02125 547.904 8.12792 547.451 8.34125 547.056C8.56525 546.661 8.86925 546.352 9.25325 546.128C9.64792 545.893 10.0906 545.776 10.5813 545.776C11.0826 545.776 11.5253 545.893 11.9093 546.128C12.2933 546.352 12.5919 546.661 12.8053 547.056C13.0293 547.451 13.1413 547.904 13.1413 548.416C13.1413 548.917 13.0293 549.371 12.8053 549.776C12.5813 550.181 12.2773 550.501 11.8933 550.736C11.5093 550.96 11.0719 551.072 10.5813 551.072ZM18.2229 552H19.5669L20.6069 549.088H25.9349L26.9589 552H28.3029L23.9509 540.08H22.5749L18.2229 552ZM21.0229 547.888L23.2629 541.584L25.4869 547.888H21.0229ZM29.7164 555.2H30.9164V550.608C31.2364 551.109 31.6737 551.499 32.2284 551.776C32.783 552.053 33.391 552.192 34.0524 552.192C34.863 552.192 35.583 552 36.2124 551.616C36.8524 551.221 37.3537 550.688 37.7164 550.016C38.0897 549.333 38.2764 548.565 38.2764 547.712C38.2764 546.848 38.0897 546.08 37.7164 545.408C37.3537 544.736 36.8524 544.208 36.2124 543.824C35.583 543.429 34.863 543.232 34.0524 543.232C33.3804 543.232 32.7777 543.365 32.2444 543.632C31.711 543.899 31.2684 544.261 30.9164 544.72V543.424H29.7164V555.2ZM33.9884 550.992C33.4124 550.992 32.8897 550.848 32.4204 550.56C31.9617 550.272 31.5937 549.883 31.3164 549.392C31.0497 548.891 30.9164 548.331 30.9164 547.712C30.9164 547.093 31.0497 546.539 31.3164 546.048C31.5937 545.547 31.9617 545.152 32.4204 544.864C32.8897 544.576 33.4124 544.432 33.9884 544.432C34.5644 544.432 35.0764 544.576 35.5244 544.864C35.983 545.152 36.3404 545.541 36.5964 546.032C36.863 546.523 36.9964 547.083 36.9964 547.712C36.9964 548.331 36.863 548.891 36.5964 549.392C36.3404 549.883 35.983 550.272 35.5244 550.56C35.0764 550.848 34.5644 550.992 33.9884 550.992ZM40.3883 552H41.5883V546.72C41.5883 546.016 41.7749 545.472 42.1483 545.088C42.5216 544.704 43.0176 544.512 43.6363 544.512H44.3883V543.312H43.8443C43.3216 543.312 42.8683 543.403 42.4843 543.584C42.1109 543.765 41.8123 544.021 41.5883 544.352V543.424H40.3883V552Z" fill="#999999"/>
<rect x="240" y="506" width="48" height="48" rx="24" fill="#FED402"/>
<path d="M147.52 618H149.86V603.1H144.66V605.1H147.52V618ZM157.657 618.24C158.63 618.24 159.497 618.027 160.257 617.6C161.017 617.173 161.617 616.593 162.057 615.86C162.497 615.113 162.717 614.273 162.717 613.34C162.717 612.42 162.51 611.607 162.097 610.9C161.697 610.18 161.143 609.62 160.437 609.22C159.73 608.807 158.93 608.6 158.037 608.6C157.69 608.6 157.377 608.64 157.097 608.72L161.437 603.1H158.617L154.457 608.56C153.75 609.48 153.263 610.313 152.997 611.06C152.743 611.807 152.617 612.553 152.617 613.3C152.617 614.247 152.83 615.093 153.257 615.84C153.697 616.587 154.297 617.173 155.057 617.6C155.817 618.027 156.683 618.24 157.657 618.24ZM157.657 616.14C157.15 616.14 156.69 616.02 156.277 615.78C155.877 615.54 155.557 615.213 155.317 614.8C155.077 614.373 154.957 613.893 154.957 613.36C154.957 612.547 155.21 611.887 155.717 611.38C156.237 610.86 156.883 610.6 157.657 610.6C158.43 610.6 159.07 610.86 159.577 611.38C160.097 611.887 160.357 612.547 160.357 613.36C160.357 614.173 160.097 614.84 159.577 615.36C159.07 615.88 158.43 616.14 157.657 616.14ZM168.828 609.42C169.442 609.42 169.995 609.273 170.488 608.98C170.995 608.687 171.395 608.293 171.688 607.8C171.982 607.307 172.128 606.753 172.128 606.14C172.128 605.527 171.982 604.973 171.688 604.48C171.395 603.987 170.995 603.593 170.488 603.3C169.995 603.007 169.442 602.86 168.828 602.86C168.215 602.86 167.655 603.007 167.148 603.3C166.655 603.593 166.262 603.987 165.968 604.48C165.675 604.973 165.528 605.527 165.528 606.14C165.528 606.753 165.675 607.307 165.968 607.8C166.262 608.293 166.655 608.687 167.148 608.98C167.655 609.273 168.215 609.42 168.828 609.42ZM168.808 607.8C168.355 607.8 167.962 607.647 167.628 607.34C167.308 607.033 167.148 606.633 167.148 606.14C167.148 605.66 167.308 605.267 167.628 604.96C167.962 604.64 168.355 604.48 168.808 604.48C169.275 604.48 169.668 604.64 169.988 604.96C170.322 605.267 170.488 605.66 170.488 606.14C170.488 606.633 170.322 607.033 169.988 607.34C169.668 607.647 169.275 607.8 168.808 607.8Z" fill="#1F1E31"/>
<path d="M1.328 602H2.896V596.816H8.32V595.376H2.896V591.52H8.88V590.08H1.328V602ZM9.99575 602H11.4838V596.864C11.4838 596.171 11.6704 595.637 12.0438 595.264C12.4171 594.88 12.9078 594.688 13.5158 594.688H14.2678V593.28H13.7398C13.2064 593.28 12.7478 593.376 12.3638 593.568C11.9798 593.749 11.6758 594.027 11.4518 594.4V593.376H9.99575V602ZM15.5895 592H17.0775V590.08H15.5895V592ZM15.5895 602H17.0775V593.376H15.5895V602ZM23.3064 602.192C23.9464 602.192 24.5277 602.069 25.0504 601.824C25.5837 601.568 26.0104 601.205 26.3304 600.736V602H27.7864V590.08H26.2824V594.528C25.9517 594.101 25.5304 593.771 25.0184 593.536C24.5064 593.301 23.9357 593.184 23.3064 593.184C22.4957 593.184 21.765 593.381 21.1144 593.776C20.4744 594.171 19.9677 594.709 19.5944 595.392C19.221 596.064 19.0344 596.832 19.0344 597.696C19.0344 598.549 19.221 599.317 19.5944 600C19.9677 600.672 20.4744 601.205 21.1144 601.6C21.765 601.995 22.4957 602.192 23.3064 602.192ZM23.4344 600.752C22.8904 600.752 22.405 600.619 21.9784 600.352C21.5517 600.085 21.2157 599.723 20.9704 599.264C20.725 598.795 20.6024 598.272 20.6024 597.696C20.6024 597.109 20.725 596.587 20.9704 596.128C21.2157 595.659 21.5517 595.291 21.9784 595.024C22.4157 594.757 22.901 594.624 23.4344 594.624C23.9784 594.624 24.4637 594.763 24.8904 595.04C25.317 595.307 25.653 595.669 25.8984 596.128C26.1544 596.587 26.2824 597.109 26.2824 597.696C26.2824 598.272 26.1544 598.795 25.8984 599.264C25.653 599.723 25.317 600.085 24.8904 600.352C24.4637 600.619 23.9784 600.752 23.4344 600.752ZM32.6175 602.192C33.2468 602.192 33.8122 602.075 34.3135 601.84C34.8148 601.595 35.2202 601.275 35.5295 600.88V602H36.9855V596.144C36.9855 595.557 36.8415 595.045 36.5535 594.608C36.2762 594.16 35.8868 593.813 35.3855 593.568C34.8842 593.312 34.3028 593.184 33.6415 593.184C33.1295 593.184 32.6388 593.275 32.1695 593.456C31.7002 593.637 31.2895 593.888 30.9375 594.208C30.5855 594.517 30.3295 594.869 30.1695 595.264L31.4655 595.936C31.6468 595.531 31.9242 595.2 32.2975 594.944C32.6708 594.688 33.1082 594.56 33.6095 594.56C34.1748 594.56 34.6282 594.709 34.9695 595.008C35.3215 595.296 35.4975 595.675 35.4975 596.144V596.544L32.5535 597.024C31.5828 597.184 30.8682 597.509 30.4095 598C29.9615 598.48 29.7375 599.061 29.7375 599.744C29.7375 600.469 30.0042 601.061 30.5375 601.52C31.0815 601.968 31.7748 602.192 32.6175 602.192ZM31.3055 599.696C31.3055 599.323 31.4282 599.008 31.6735 598.752C31.9295 598.496 32.3348 598.32 32.8895 598.224L35.4975 597.792V598.336C35.4975 598.816 35.3855 599.253 35.1615 599.648C34.9375 600.043 34.6228 600.357 34.2175 600.592C33.8122 600.816 33.3375 600.928 32.7935 600.928C32.3668 600.928 32.0095 600.811 31.7215 600.576C31.4442 600.341 31.3055 600.048 31.3055 599.696ZM39.7566 605.52C40.322 605.52 40.802 605.408 41.1966 605.184C41.602 604.96 41.9433 604.656 42.2206 604.272C42.5086 603.899 42.7433 603.483 42.9246 603.024L46.8126 593.376H45.1646L42.5566 600.112L39.9326 593.376H38.3166L41.7406 602.016L41.4846 602.64C41.25 603.173 40.9993 603.552 40.7326 603.776C40.4766 604 40.098 604.112 39.5966 604.112C39.426 604.112 39.25 604.096 39.0686 604.064C38.898 604.043 38.754 604.021 38.6366 604V605.328C38.8073 605.403 38.9886 605.451 39.1806 605.472C39.3726 605.504 39.5646 605.52 39.7566 605.52Z" fill="#1F1E31"/>
<path d="M2.896 632H4.176V620.08H0.656V621.2H2.896V632ZM7.2015 632H8.5455L13.9055 621.184V620.064H6.6255V621.184H12.5775L7.2015 632ZM17.5198 632H18.8638L19.9038 629.088H25.2318L26.2558 632H27.5998L23.2478 620.08H21.8718L17.5198 632ZM20.3198 627.888L22.5598 621.584L24.7838 627.888H20.3198ZM29.0133 635.2H30.2133V630.608C30.5333 631.109 30.9706 631.499 31.5253 631.776C32.0799 632.053 32.6879 632.192 33.3493 632.192C34.1599 632.192 34.8799 632 35.5093 631.616C36.1493 631.221 36.6506 630.688 37.0133 630.016C37.3866 629.333 37.5733 628.565 37.5733 627.712C37.5733 626.848 37.3866 626.08 37.0133 625.408C36.6506 624.736 36.1493 624.208 35.5093 623.824C34.8799 623.429 34.1599 623.232 33.3493 623.232C32.6773 623.232 32.0746 623.365 31.5413 623.632C31.0079 623.899 30.5653 624.261 30.2133 624.72V623.424H29.0133V635.2ZM33.2853 630.992C32.7093 630.992 32.1866 630.848 31.7173 630.56C31.2586 630.272 30.8906 629.883 30.6133 629.392C30.3466 628.891 30.2133 628.331 30.2133 627.712C30.2133 627.093 30.3466 626.539 30.6133 626.048C30.8906 625.547 31.2586 625.152 31.7173 624.864C32.1866 624.576 32.7093 624.432 33.2853 624.432C33.8613 624.432 34.3733 624.576 34.8213 624.864C35.2799 625.152 35.6373 625.541 35.8933 626.032C36.1599 626.523 36.2933 627.083 36.2933 627.712C36.2933 628.331 36.1599 628.891 35.8933 629.392C35.6373 629.883 35.2799 630.272 34.8213 630.56C34.3733 630.848 33.8613 630.992 33.2853 630.992ZM39.6851 632H40.8851V626.72C40.8851 626.016 41.0718 625.472 41.4451 625.088C41.8185 624.704 42.3145 624.512 42.9331 624.512H43.6851V623.312H43.1411C42.6185 623.312 42.1651 623.403 41.7811 623.584C41.4078 623.765 41.1091 624.021 40.8851 624.352V623.424H39.6851V632Z" fill="#999999"/>
<rect x="240" y="586" width="48" height="48" rx="24" fill="#FED402"/>
<path d="M147.52 698H149.86V683.1H144.66V685.1H147.52V698ZM152.832 698H162.732V696H155.952L159.552 692.16C160.539 691.093 161.265 690.18 161.732 689.42C162.212 688.647 162.452 687.853 162.452 687.04C162.452 686.213 162.252 685.487 161.852 684.86C161.465 684.233 160.919 683.747 160.212 683.4C159.505 683.04 158.679 682.86 157.732 682.86C156.919 682.86 156.165 683.02 155.472 683.34C154.779 683.66 154.192 684.113 153.712 684.7C153.232 685.273 152.905 685.953 152.732 686.74L154.812 687.34C155.012 686.567 155.372 685.98 155.892 685.58C156.412 685.167 157.032 684.96 157.752 684.96C158.459 684.96 159.025 685.16 159.452 685.56C159.892 685.96 160.112 686.513 160.112 687.22C160.112 687.66 160.012 688.08 159.812 688.48C159.612 688.88 159.279 689.347 158.812 689.88C158.345 690.4 157.712 691.087 156.912 691.94L152.832 696.3V698ZM168.965 689.42C169.578 689.42 170.132 689.273 170.625 688.98C171.132 688.687 171.532 688.293 171.825 687.8C172.118 687.307 172.265 686.753 172.265 686.14C172.265 685.527 172.118 684.973 171.825 684.48C171.532 683.987 171.132 683.593 170.625 683.3C170.132 683.007 169.578 682.86 168.965 682.86C168.352 682.86 167.792 683.007 167.285 683.3C166.792 683.593 166.398 683.987 166.105 684.48C165.812 684.973 165.665 685.527 165.665 686.14C165.665 686.753 165.812 687.307 166.105 687.8C166.398 688.293 166.792 688.687 167.285 688.98C167.792 689.273 168.352 689.42 168.965 689.42ZM168.945 687.8C168.492 687.8 168.098 687.647 167.765 687.34C167.445 687.033 167.285 686.633 167.285 686.14C167.285 685.66 167.445 685.267 167.765 684.96C168.098 684.64 168.492 684.48 168.945 684.48C169.412 684.48 169.805 684.64 170.125 684.96C170.458 685.267 170.625 685.66 170.625 686.14C170.625 686.633 170.458 687.033 170.125 687.34C169.805 687.647 169.412 687.8 168.945 687.8Z" fill="#1F1E31"/>
<path d="M5.424 682.192C6.20267 682.192 6.88533 682.053 7.472 681.776C8.06933 681.488 8.53333 681.093 8.864 680.592C9.20533 680.091 9.376 679.515 9.376 678.864C9.376 677.307 8.42667 676.235 6.528 675.648L4.528 675.056C3.96267 674.875 3.54133 674.613 3.264 674.272C2.98667 673.92 2.848 673.531 2.848 673.104C2.848 672.549 3.04533 672.112 3.44 671.792C3.83467 671.461 4.352 671.296 4.992 671.296C5.68533 671.296 6.288 671.472 6.8 671.824C7.32267 672.176 7.70667 672.683 7.952 673.344L9.296 672.784C9.11467 672.24 8.816 671.749 8.4 671.312C7.99467 670.875 7.49867 670.528 6.912 670.272C6.336 670.016 5.69067 669.888 4.976 669.888C4.26133 669.888 3.62133 670.032 3.056 670.32C2.50133 670.597 2.064 670.987 1.744 671.488C1.43467 671.979 1.28 672.549 1.28 673.2C1.28 673.947 1.50933 674.608 1.968 675.184C2.42667 675.76 3.088 676.181 3.952 676.448L6.144 677.12C6.67733 677.28 7.088 677.504 7.376 677.792C7.664 678.08 7.808 678.475 7.808 678.976C7.808 679.531 7.58933 679.973 7.152 680.304C6.72533 680.624 6.16 680.784 5.456 680.784C4.688 680.784 4.016 680.581 3.44 680.176C2.864 679.76 2.43733 679.168 2.16 678.4L0.8 678.96C0.992 679.568 1.30667 680.117 1.744 680.608C2.18133 681.088 2.71467 681.472 3.344 681.76C3.97333 682.048 4.66667 682.192 5.424 682.192ZM13.7894 682.192C14.4187 682.192 14.984 682.075 15.4854 681.84C15.9867 681.595 16.392 681.275 16.7014 680.88V682H18.1574V676.144C18.1574 675.557 18.0134 675.045 17.7254 674.608C17.448 674.16 17.0587 673.813 16.5574 673.568C16.056 673.312 15.4747 673.184 14.8134 673.184C14.3014 673.184 13.8107 673.275 13.3414 673.456C12.872 673.637 12.4614 673.888 12.1094 674.208C11.7574 674.517 11.5014 674.869 11.3414 675.264L12.6374 675.936C12.8187 675.531 13.096 675.2 13.4694 674.944C13.8427 674.688 14.28 674.56 14.7814 674.56C15.3467 674.56 15.8 674.709 16.1414 675.008C16.4934 675.296 16.6694 675.675 16.6694 676.144V676.544L13.7254 677.024C12.7547 677.184 12.04 677.509 11.5814 678C11.1334 678.48 10.9094 679.061 10.9094 679.744C10.9094 680.469 11.176 681.061 11.7094 681.52C12.2534 681.968 12.9467 682.192 13.7894 682.192ZM12.4774 679.696C12.4774 679.323 12.6 679.008 12.8454 678.752C13.1014 678.496 13.5067 678.32 14.0614 678.224L16.6694 677.792V678.336C16.6694 678.816 16.5574 679.253 16.3334 679.648C16.1094 680.043 15.7947 680.357 15.3894 680.592C14.984 680.816 14.5094 680.928 13.9654 680.928C13.5387 680.928 13.1814 680.811 12.8934 680.576C12.616 680.341 12.4774 680.048 12.4774 679.696ZM23.8123 682.096C23.9296 682.096 24.0736 682.091 24.2443 682.08C24.4149 682.069 24.5696 682.048 24.7083 682.016V680.688C24.6123 680.699 24.5109 680.709 24.4043 680.72C24.2976 680.731 24.2016 680.736 24.1163 680.736C23.5936 680.736 23.2203 680.608 22.9963 680.352C22.7829 680.085 22.6763 679.733 22.6763 679.296V674.8H24.6123V673.376H22.6763V671.392H21.1883V672.096C21.1883 672.491 21.0763 672.805 20.8523 673.04C20.6283 673.264 20.3243 673.376 19.9403 673.376H19.6203V674.8H21.1883V679.344C21.1883 680.219 21.4123 680.896 21.8603 681.376C22.3189 681.856 22.9696 682.096 23.8123 682.096ZM29.708 682.192C30.2413 682.192 30.7213 682.085 31.148 681.872C31.5747 681.648 31.916 681.339 32.172 680.944V682H33.628V673.376H32.124V678.48C32.124 679.184 31.9267 679.739 31.532 680.144C31.148 680.549 30.652 680.752 30.044 680.752C29.4253 680.752 28.924 680.56 28.54 680.176C28.156 679.781 27.964 679.259 27.964 678.608V673.376H26.476V678.768C26.476 679.44 26.6147 680.037 26.892 680.56C27.1693 681.072 27.548 681.472 28.028 681.76C28.5187 682.048 29.0787 682.192 29.708 682.192ZM35.9333 682H37.4213V676.864C37.4213 676.171 37.6079 675.637 37.9813 675.264C38.3546 674.88 38.8453 674.688 39.4533 674.688H40.2053V673.28H39.6773C39.1439 673.28 38.6853 673.376 38.3013 673.568C37.9173 673.749 37.6133 674.027 37.3893 674.4V673.376H35.9333V682ZM45.447 682.192C46.087 682.192 46.6683 682.069 47.191 681.824C47.7243 681.568 48.151 681.205 48.471 680.736V682H49.927V670.08H48.423V674.528C48.0923 674.101 47.671 673.771 47.159 673.536C46.647 673.301 46.0763 673.184 45.447 673.184C44.6363 673.184 43.9057 673.381 43.255 673.776C42.615 674.171 42.1083 674.709 41.735 675.392C41.3617 676.064 41.175 676.832 41.175 677.696C41.175 678.549 41.3617 679.317 41.735 680C42.1083 680.672 42.615 681.205 43.255 681.6C43.9057 681.995 44.6363 682.192 45.447 682.192ZM45.575 680.752C45.031 680.752 44.5457 680.619 44.119 680.352C43.6923 680.085 43.3563 679.723 43.111 679.264C42.8657 678.795 42.743 678.272 42.743 677.696C42.743 677.109 42.8657 676.587 43.111 676.128C43.3563 675.659 43.6923 675.291 44.119 675.024C44.5563 674.757 45.0417 674.624 45.575 674.624C46.119 674.624 46.6043 674.763 47.031 675.04C47.4577 675.307 47.7937 675.669 48.039 676.128C48.295 676.587 48.423 677.109 48.423 677.696C48.423 678.272 48.295 678.795 48.039 679.264C47.7937 679.723 47.4577 680.085 47.031 680.352C46.6043 680.619 46.119 680.752 45.575 680.752ZM54.7581 682.192C55.3875 682.192 55.9528 682.075 56.4541 681.84C56.9555 681.595 57.3608 681.275 57.6701 680.88V682H59.1261V676.144C59.1261 675.557 58.9821 675.045 58.6941 674.608C58.4168 674.16 58.0275 673.813 57.5261 673.568C57.0248 673.312 56.4435 673.184 55.7821 673.184C55.2701 673.184 54.7795 673.275 54.3101 673.456C53.8408 673.637 53.4301 673.888 53.0781 674.208C52.7261 674.517 52.4701 674.869 52.3101 675.264L53.6061 675.936C53.7875 675.531 54.0648 675.2 54.4381 674.944C54.8115 674.688 55.2488 674.56 55.7501 674.56C56.3155 674.56 56.7688 674.709 57.1101 675.008C57.4621 675.296 57.6381 675.675 57.6381 676.144V676.544L54.6941 677.024C53.7235 677.184 53.0088 677.509 52.5501 678C52.1021 678.48 51.8781 679.061 51.8781 679.744C51.8781 680.469 52.1448 681.061 52.6781 681.52C53.2221 681.968 53.9155 682.192 54.7581 682.192ZM53.4461 679.696C53.4461 679.323 53.5688 679.008 53.8141 678.752C54.0701 678.496 54.4755 678.32 55.0301 678.224L57.6381 677.792V678.336C57.6381 678.816 57.5261 679.253 57.3021 679.648C57.0781 680.043 56.7635 680.357 56.3581 680.592C55.9528 680.816 55.4781 680.928 54.9341 680.928C54.5075 680.928 54.1501 680.811 53.8621 680.576C53.5848 680.341 53.4461 680.048 53.4461 679.696ZM61.8973 685.52C62.4626 685.52 62.9426 685.408 63.3373 685.184C63.7426 684.96 64.0839 684.656 64.3613 684.272C64.6493 683.899 64.8839 683.483 65.0653 683.024L68.9533 673.376H67.3053L64.6973 680.112L62.0733 673.376H60.4573L63.8813 682.016L63.6253 682.64C63.3906 683.173 63.1399 683.552 62.8733 683.776C62.6173 684 62.2386 684.112 61.7373 684.112C61.5666 684.112 61.3906 684.096 61.2093 684.064C61.0386 684.043 60.8946 684.021 60.7773 684V685.328C60.9479 685.403 61.1293 685.451 61.3213 685.472C61.5133 685.504 61.7053 685.52 61.8973 685.52Z" fill="#1F1E31"/>
<path d="M2.896 712H4.176V700.08H0.656V701.2H2.896V712ZM10.9615 712.192C11.7295 712.192 12.4122 712.037 13.0095 711.728C13.6175 711.408 14.0922 710.976 14.4335 710.432C14.7855 709.877 14.9615 709.253 14.9615 708.56C14.9615 707.877 14.7802 707.253 14.4175 706.688C14.0548 706.123 13.5588 705.701 12.9295 705.424C13.3562 705.157 13.6922 704.816 13.9375 704.4C14.1935 703.973 14.3215 703.493 14.3215 702.96C14.3215 702.363 14.1722 701.835 13.8735 701.376C13.5855 700.907 13.1908 700.544 12.6895 700.288C12.1882 700.021 11.6122 699.888 10.9615 699.888C10.3215 699.888 9.7455 700.027 9.2335 700.304C8.73217 700.571 8.33217 700.933 8.0335 701.392C7.73483 701.851 7.5855 702.373 7.5855 702.96C7.5855 703.451 7.70283 703.915 7.9375 704.352C8.18283 704.789 8.53483 705.147 8.9935 705.424C8.36417 705.701 7.86817 706.123 7.5055 706.688C7.14283 707.253 6.9615 707.877 6.9615 708.56C6.9615 709.253 7.13217 709.877 7.4735 710.432C7.8255 710.976 8.30017 711.408 8.8975 711.728C9.5055 712.037 10.1935 712.192 10.9615 712.192ZM10.9615 704.928C10.3748 704.928 9.87883 704.747 9.4735 704.384C9.06817 704.021 8.8655 703.547 8.8655 702.96C8.8655 702.373 9.06817 701.904 9.4735 701.552C9.87883 701.189 10.3748 701.008 10.9615 701.008C11.5482 701.008 12.0388 701.189 12.4335 701.552C12.8388 701.904 13.0415 702.373 13.0415 702.96C13.0415 703.547 12.8388 704.021 12.4335 704.384C12.0388 704.747 11.5482 704.928 10.9615 704.928ZM10.9615 711.072C10.1508 711.072 9.49483 710.843 8.9935 710.384C8.49217 709.915 8.2415 709.307 8.2415 708.56C8.2415 707.803 8.49217 707.195 8.9935 706.736C9.49483 706.277 10.1508 706.048 10.9615 706.048C11.7828 706.048 12.4388 706.277 12.9295 706.736C13.4308 707.195 13.6815 707.803 13.6815 708.56C13.6815 709.307 13.4308 709.915 12.9295 710.384C12.4388 710.843 11.7828 711.072 10.9615 711.072ZM18.8791 712H20.2231L21.2631 709.088H26.5911L27.6151 712H28.9591L24.6071 700.08H23.2311L18.8791 712ZM21.6791 707.888L23.9191 701.584L26.1431 707.888H21.6791ZM30.3726 715.2H31.5726V710.608C31.8926 711.109 32.33 711.499 32.8846 711.776C33.4393 712.053 34.0473 712.192 34.7086 712.192C35.5193 712.192 36.2393 712 36.8686 711.616C37.5086 711.221 38.01 710.688 38.3726 710.016C38.746 709.333 38.9326 708.565 38.9326 707.712C38.9326 706.848 38.746 706.08 38.3726 705.408C38.01 704.736 37.5086 704.208 36.8686 703.824C36.2393 703.429 35.5193 703.232 34.7086 703.232C34.0366 703.232 33.434 703.365 32.9006 703.632C32.3673 703.899 31.9246 704.261 31.5726 704.72V703.424H30.3726V715.2ZM34.6446 710.992C34.0686 710.992 33.546 710.848 33.0766 710.56C32.618 710.272 32.25 709.883 31.9726 709.392C31.706 708.891 31.5726 708.331 31.5726 707.712C31.5726 707.093 31.706 706.539 31.9726 706.048C32.25 705.547 32.618 705.152 33.0766 704.864C33.546 704.576 34.0686 704.432 34.6446 704.432C35.2206 704.432 35.7326 704.576 36.1806 704.864C36.6393 705.152 36.9966 705.541 37.2526 706.032C37.5193 706.523 37.6526 707.083 37.6526 707.712C37.6526 708.331 37.5193 708.891 37.2526 709.392C36.9966 709.883 36.6393 710.272 36.1806 710.56C35.7326 710.848 35.2206 710.992 34.6446 710.992ZM41.0445 712H42.2445V706.72C42.2445 706.016 42.4312 705.472 42.8045 705.088C43.1778 704.704 43.6738 704.512 44.2925 704.512H45.0445V703.312H44.5005C43.9778 703.312 43.5245 703.403 43.1405 703.584C42.7672 703.765 42.4685 704.021 42.2445 704.352V703.424H41.0445V712Z" fill="#999999"/>
<rect x="240" y="666" width="48" height="48" rx="24" fill="#C4E2FF"/>
<path d="M3.408 18H4.992V7.52H8.176V6.08H0.176V7.52H3.408V18ZM12.4824 18.192C13.293 18.192 14.0344 18 14.7064 17.616C15.3784 17.232 15.9117 16.6987 16.3064 16.016C16.7117 15.3333 16.9144 14.5547 16.9144 13.68C16.9144 12.816 16.717 12.048 16.3224 11.376C15.9384 10.6933 15.4104 10.16 14.7384 9.776C14.0664 9.38133 13.3144 9.184 12.4824 9.184C11.6397 9.184 10.8824 9.38133 10.2104 9.776C9.53838 10.16 9.00504 10.6933 8.61038 11.376C8.22638 12.048 8.03438 12.816 8.03438 13.68C8.03438 14.544 8.23171 15.3173 8.62638 16C9.02104 16.6827 9.55438 17.2213 10.2264 17.616C10.8984 18 11.6504 18.192 12.4824 18.192ZM12.4824 16.752C11.9384 16.752 11.4477 16.6187 11.0104 16.352C10.5837 16.0853 10.2424 15.7227 9.98638 15.264C9.73038 14.7947 9.60238 14.2667 9.60238 13.68C9.60238 13.0933 9.73038 12.5707 9.98638 12.112C10.2424 11.6533 10.5837 11.2907 11.0104 11.024C11.4477 10.7573 11.9384 10.624 12.4824 10.624C13.0157 10.624 13.4957 10.7573 13.9224 11.024C14.3597 11.2907 14.701 11.6533 14.9464 12.112C15.2024 12.5707 15.3304 13.0933 15.3304 13.68C15.3304 14.2667 15.2024 14.7947 14.9464 15.264C14.701 15.7227 14.3597 16.0853 13.9224 16.352C13.4957 16.6187 13.0157 16.752 12.4824 16.752ZM22.7751 18.192C23.4151 18.192 23.9965 18.0693 24.5191 17.824C25.0525 17.568 25.4791 17.2053 25.7991 16.736V18H27.2551V6.08H25.7511V10.528C25.4205 10.1013 24.9991 9.77067 24.4871 9.536C23.9751 9.30133 23.4045 9.184 22.7751 9.184C21.9645 9.184 21.2338 9.38133 20.5831 9.776C19.9431 10.1707 19.4365 10.7093 19.0631 11.392C18.6898 12.064 18.5031 12.832 18.5031 13.696C18.5031 14.5493 18.6898 15.3173 19.0631 16C19.4365 16.672 19.9431 17.2053 20.5831 17.6C21.2338 17.9947 21.9645 18.192 22.7751 18.192ZM22.9031 16.752C22.3591 16.752 21.8738 16.6187 21.4471 16.352C21.0205 16.0853 20.6845 15.7227 20.4391 15.264C20.1938 14.7947 20.0711 14.272 20.0711 13.696C20.0711 13.1093 20.1938 12.5867 20.4391 12.128C20.6845 11.6587 21.0205 11.2907 21.4471 11.024C21.8845 10.7573 22.3698 10.624 22.9031 10.624C23.4471 10.624 23.9325 10.7627 24.3591 11.04C24.7858 11.3067 25.1218 11.6693 25.3671 12.128C25.6231 12.5867 25.7511 13.1093 25.7511 13.696C25.7511 14.272 25.6231 14.7947 25.3671 15.264C25.1218 15.7227 24.7858 16.0853 24.3591 16.352C23.9325 16.6187 23.4471 16.752 22.9031 16.752ZM32.0863 18.192C32.7156 18.192 33.2809 18.0747 33.7823 17.84C34.2836 17.5947 34.6889 17.2747 34.9983 16.88V18H36.4543V12.144C36.4543 11.5573 36.3103 11.0453 36.0223 10.608C35.7449 10.16 35.3556 9.81333 34.8543 9.568C34.3529 9.312 33.7716 9.184 33.1102 9.184C32.5983 9.184 32.1076 9.27467 31.6383 9.456C31.1689 9.63733 30.7583 9.888 30.4062 10.208C30.0543 10.5173 29.7983 10.8693 29.6383 11.264L30.9343 11.936C31.1156 11.5307 31.3929 11.2 31.7663 10.944C32.1396 10.688 32.5769 10.56 33.0783 10.56C33.6436 10.56 34.0969 10.7093 34.4383 11.008C34.7903 11.296 34.9663 11.6747 34.9663 12.144V12.544L32.0223 13.024C31.0516 13.184 30.3369 13.5093 29.8783 14C29.4303 14.48 29.2063 15.0613 29.2063 15.744C29.2063 16.4693 29.4729 17.0613 30.0063 17.52C30.5503 17.968 31.2436 18.192 32.0863 18.192ZM30.7743 15.696C30.7743 15.3227 30.8969 15.008 31.1423 14.752C31.3983 14.496 31.8036 14.32 32.3583 14.224L34.9663 13.792V14.336C34.9663 14.816 34.8543 15.2533 34.6303 15.648C34.4063 16.0427 34.0916 16.3573 33.6863 16.592C33.2809 16.816 32.8063 16.928 32.2623 16.928C31.8356 16.928 31.4783 16.8107 31.1903 16.576C30.9129 16.3413 30.7743 16.048 30.7743 15.696ZM39.2254 21.52C39.7907 21.52 40.2707 21.408 40.6654 21.184C41.0707 20.96 41.412 20.656 41.6894 20.272C41.9774 19.8987 42.212 19.4827 42.3934 19.024L46.2814 9.376H44.6334L42.0254 16.112L39.4014 9.376H37.7854L41.2094 18.016L40.9534 18.64C40.7187 19.1733 40.468 19.552 40.2014 19.776C39.9454 20 39.5667 20.112 39.0654 20.112C38.8947 20.112 38.7187 20.096 38.5374 20.064C38.3667 20.0427 38.2227 20.0213 38.1054 20V21.328C38.276 21.4027 38.4574 21.4507 38.6494 21.472C38.8414 21.504 39.0334 21.52 39.2254 21.52Z" fill="#1F1E31"/>
<rect y="46" width="77" height="110" rx="12" fill="#233B52"/>
<path d="M30.2691 141H32.1411V129.08H27.9811V130.68H30.2691V141ZM34.5188 141H42.4388V139.4H37.0148L39.8948 136.328C40.6841 135.475 41.2654 134.744 41.6388 134.136C42.0228 133.517 42.2148 132.883 42.2148 132.232C42.2148 131.571 42.0548 130.989 41.7348 130.488C41.4254 129.987 40.9881 129.597 40.4228 129.32C39.8574 129.032 39.1961 128.888 38.4388 128.888C37.7881 128.888 37.1854 129.016 36.6308 129.272C36.0761 129.528 35.6068 129.891 35.2228 130.36C34.8388 130.819 34.5774 131.363 34.4388 131.992L36.1028 132.472C36.2628 131.853 36.5508 131.384 36.9668 131.064C37.3828 130.733 37.8788 130.568 38.4548 130.568C39.0201 130.568 39.4734 130.728 39.8148 131.048C40.1668 131.368 40.3428 131.811 40.3428 132.376C40.3428 132.728 40.2628 133.064 40.1028 133.384C39.9428 133.704 39.6761 134.077 39.3028 134.504C38.9294 134.92 38.4228 135.469 37.7828 136.152L34.5188 139.64V141ZM47.4253 134.136C47.9159 134.136 48.3586 134.019 48.7533 133.784C49.1586 133.549 49.4786 133.235 49.7133 132.84C49.9479 132.445 50.0653 132.003 50.0653 131.512C50.0653 131.021 49.9479 130.579 49.7133 130.184C49.4786 129.789 49.1586 129.475 48.7533 129.24C48.3586 129.005 47.9159 128.888 47.4253 128.888C46.9346 128.888 46.4866 129.005 46.0813 129.24C45.6866 129.475 45.3719 129.789 45.1373 130.184C44.9026 130.579 44.7853 131.021 44.7853 131.512C44.7853 132.003 44.9026 132.445 45.1373 132.84C45.3719 133.235 45.6866 133.549 46.0813 133.784C46.4866 134.019 46.9346 134.136 47.4253 134.136ZM47.4093 132.84C47.0466 132.84 46.7319 132.717 46.4653 132.472C46.2093 132.227 46.0813 131.907 46.0813 131.512C46.0813 131.128 46.2093 130.813 46.4653 130.568C46.7319 130.312 47.0466 130.184 47.4093 130.184C47.7826 130.184 48.0973 130.312 48.3533 130.568C48.6199 130.813 48.7533 131.128 48.7533 131.512C48.7533 131.907 48.6199 132.227 48.3533 132.472C48.0973 132.717 47.7826 132.84 47.4093 132.84Z" fill="white"/>
<path opacity="0.87" d="M27.2421 71H28.4181V64.304L33.1221 71H34.1061V62.06H32.9181V68.66L28.2261 62.06H27.2421V71ZM39.0415 71.144C39.6495 71.144 40.2055 71 40.7095 70.712C41.2135 70.424 41.6135 70.024 41.9095 69.512C42.2135 69 42.3655 68.416 42.3655 67.76C42.3655 67.112 42.2175 66.536 41.9215 66.032C41.6335 65.52 41.2375 65.12 40.7335 64.832C40.2295 64.536 39.6655 64.388 39.0415 64.388C38.4095 64.388 37.8415 64.536 37.3375 64.832C36.8335 65.12 36.4335 65.52 36.1375 66.032C35.8495 66.536 35.7055 67.112 35.7055 67.76C35.7055 68.408 35.8535 68.988 36.1495 69.5C36.4455 70.012 36.8455 70.416 37.3495 70.712C37.8535 71 38.4175 71.144 39.0415 71.144ZM39.0415 70.064C38.6335 70.064 38.2655 69.964 37.9375 69.764C37.6175 69.564 37.3615 69.292 37.1695 68.948C36.9775 68.596 36.8815 68.2 36.8815 67.76C36.8815 67.32 36.9775 66.928 37.1695 66.584C37.3615 66.24 37.6175 65.968 37.9375 65.768C38.2655 65.568 38.6335 65.468 39.0415 65.468C39.4415 65.468 39.8015 65.568 40.1215 65.768C40.4495 65.968 40.7055 66.24 40.8895 66.584C41.0815 66.928 41.1775 67.32 41.1775 67.76C41.1775 68.2 41.0815 68.596 40.8895 68.948C40.7055 69.292 40.4495 69.564 40.1215 69.764C39.8015 69.964 39.4415 70.064 39.0415 70.064ZM45.1918 71H46.2598L47.7958 66.128L49.3318 71H50.3998L52.6198 64.532H51.3958L49.8358 69.272L48.3238 64.532H47.2678L45.7558 69.272L44.2078 64.532H42.9718L45.1918 71Z" fill="white"/>
<rect x="23" y="83" width="32" height="32" rx="16" fill="white"/>
<path d="M121.269 140.5H123.141V128.58H118.981V130.18H121.269V140.5ZM125.519 140.5H133.439V138.9H128.015L130.895 135.828C131.684 134.975 132.265 134.244 132.639 133.636C133.023 133.017 133.215 132.383 133.215 131.732C133.215 131.071 133.055 130.489 132.735 129.988C132.425 129.487 131.988 129.097 131.423 128.82C130.857 128.532 130.196 128.388 129.439 128.388C128.788 128.388 128.185 128.516 127.631 128.772C127.076 129.028 126.607 129.391 126.223 129.86C125.839 130.319 125.577 130.863 125.439 131.492L127.103 131.972C127.263 131.353 127.551 130.884 127.967 130.564C128.383 130.233 128.879 130.068 129.455 130.068C130.02 130.068 130.473 130.228 130.815 130.548C131.167 130.868 131.343 131.311 131.343 131.876C131.343 132.228 131.263 132.564 131.103 132.884C130.943 133.204 130.676 133.577 130.303 134.004C129.929 134.42 129.423 134.969 128.783 135.652L125.519 139.14V140.5ZM138.425 133.636C138.916 133.636 139.359 133.519 139.753 133.284C140.159 133.049 140.479 132.735 140.713 132.34C140.948 131.945 141.065 131.503 141.065 131.012C141.065 130.521 140.948 130.079 140.713 129.684C140.479 129.289 140.159 128.975 139.753 128.74C139.359 128.505 138.916 128.388 138.425 128.388C137.935 128.388 137.487 128.505 137.081 128.74C136.687 128.975 136.372 129.289 136.137 129.684C135.903 130.079 135.785 130.521 135.785 131.012C135.785 131.503 135.903 131.945 136.137 132.34C136.372 132.735 136.687 133.049 137.081 133.284C137.487 133.519 137.935 133.636 138.425 133.636ZM138.409 132.34C138.047 132.34 137.732 132.217 137.465 131.972C137.209 131.727 137.081 131.407 137.081 131.012C137.081 130.628 137.209 130.313 137.465 130.068C137.732 129.812 138.047 129.684 138.409 129.684C138.783 129.684 139.097 129.812 139.353 130.068C139.62 130.313 139.753 130.628 139.753 131.012C139.753 131.407 139.62 131.727 139.353 131.972C139.097 132.217 138.783 132.34 138.409 132.34Z" fill="#1F1E31"/>
<path opacity="0.87" d="M117.686 70.644C118.398 70.644 119.018 70.452 119.546 70.068C120.074 69.684 120.486 69.144 120.782 68.448C121.078 67.752 121.226 66.944 121.226 66.024C121.226 65.104 121.078 64.3 120.782 63.612C120.486 62.916 120.07 62.376 119.534 61.992C119.006 61.608 118.386 61.416 117.674 61.416C116.97 61.416 116.35 61.608 115.814 61.992C115.286 62.376 114.874 62.916 114.578 63.612C114.282 64.3 114.134 65.104 114.134 66.024C114.134 66.944 114.282 67.752 114.578 68.448C114.874 69.136 115.29 69.676 115.826 70.068C116.362 70.452 116.982 70.644 117.686 70.644ZM117.686 69.552C117.206 69.552 116.786 69.408 116.426 69.12C116.074 68.824 115.798 68.412 115.598 67.884C115.406 67.348 115.31 66.728 115.31 66.024C115.31 65.312 115.406 64.696 115.598 64.176C115.798 63.648 116.074 63.24 116.426 62.952C116.786 62.656 117.202 62.508 117.674 62.508C118.154 62.508 118.57 62.656 118.922 62.952C119.282 63.24 119.558 63.648 119.75 64.176C119.95 64.696 120.05 65.312 120.05 66.024C120.05 66.736 119.95 67.356 119.75 67.884C119.558 68.412 119.286 68.824 118.934 69.12C118.582 69.408 118.166 69.552 117.686 69.552ZM124.15 70.5H125.338V61.56H122.458V62.58H124.15V70.5ZM129.666 70.5H130.842V67.08H132.822C133.414 67.08 133.934 66.968 134.382 66.744C134.83 66.52 135.178 66.2 135.426 65.784C135.682 65.368 135.81 64.88 135.81 64.32C135.81 63.752 135.682 63.264 135.426 62.856C135.178 62.44 134.83 62.12 134.382 61.896C133.934 61.672 133.414 61.56 132.822 61.56H129.666V70.5ZM130.842 66V62.64H132.858C133.394 62.64 133.822 62.792 134.142 63.096C134.462 63.392 134.622 63.8 134.622 64.32C134.622 64.832 134.462 65.24 134.142 65.544C133.822 65.848 133.394 66 132.858 66H130.842ZM137.4 70.5H138.576V63.708L141.492 67.86H141.588L144.492 63.768V70.5H145.68V61.56H144.6L141.552 65.928L138.48 61.56H137.4V70.5Z" fill="#1F1E31"/>
<rect x="114" y="83" width="32" height="32" rx="16" fill="#FED402"/>
<path d="M193.918 140.5H195.79V128.58H191.63V130.18H193.918V140.5ZM200.183 140.5H202.055V128.58H197.895V130.18H200.183V140.5ZM207.777 133.636C208.267 133.636 208.71 133.519 209.105 133.284C209.51 133.049 209.83 132.735 210.065 132.34C210.299 131.945 210.417 131.503 210.417 131.012C210.417 130.521 210.299 130.079 210.065 129.684C209.83 129.289 209.51 128.975 209.105 128.74C208.71 128.505 208.267 128.388 207.777 128.388C207.286 128.388 206.838 128.505 206.433 128.74C206.038 128.975 205.723 129.289 205.489 129.684C205.254 130.079 205.137 130.521 205.137 131.012C205.137 131.503 205.254 131.945 205.489 132.34C205.723 132.735 206.038 133.049 206.433 133.284C206.838 133.519 207.286 133.636 207.777 133.636ZM207.761 132.34C207.398 132.34 207.083 132.217 206.817 131.972C206.561 131.727 206.433 131.407 206.433 131.012C206.433 130.628 206.561 130.313 206.817 130.068C207.083 129.812 207.398 129.684 207.761 129.684C208.134 129.684 208.449 129.812 208.705 130.068C208.971 130.313 209.105 130.628 209.105 131.012C209.105 131.407 208.971 131.727 208.705 131.972C208.449 132.217 208.134 132.34 207.761 132.34Z" fill="#1F1E31"/>
<path opacity="0.87" d="M187.385 70.644C188.097 70.644 188.717 70.452 189.245 70.068C189.773 69.684 190.185 69.144 190.481 68.448C190.777 67.752 190.925 66.944 190.925 66.024C190.925 65.104 190.777 64.3 190.481 63.612C190.185 62.916 189.769 62.376 189.233 61.992C188.705 61.608 188.085 61.416 187.373 61.416C186.669 61.416 186.049 61.608 185.513 61.992C184.985 62.376 184.573 62.916 184.277 63.612C183.981 64.3 183.833 65.104 183.833 66.024C183.833 66.944 183.981 67.752 184.277 68.448C184.573 69.136 184.989 69.676 185.525 70.068C186.061 70.452 186.681 70.644 187.385 70.644ZM187.385 69.552C186.905 69.552 186.485 69.408 186.125 69.12C185.773 68.824 185.497 68.412 185.297 67.884C185.105 67.348 185.009 66.728 185.009 66.024C185.009 65.312 185.105 64.696 185.297 64.176C185.497 63.648 185.773 63.24 186.125 62.952C186.485 62.656 186.901 62.508 187.373 62.508C187.853 62.508 188.269 62.656 188.621 62.952C188.981 63.24 189.257 63.648 189.449 64.176C189.649 64.696 189.749 65.312 189.749 66.024C189.749 66.736 189.649 67.356 189.449 67.884C189.257 68.412 188.985 68.824 188.633 69.12C188.281 69.408 187.865 69.552 187.385 69.552ZM192.361 70.5H198.229V69.48H193.993L196.201 67.08C196.617 66.624 196.961 66.224 197.233 65.88C197.505 65.528 197.705 65.196 197.833 64.884C197.969 64.572 198.037 64.252 198.037 63.924C198.037 63.428 197.921 62.992 197.689 62.616C197.457 62.24 197.133 61.948 196.717 61.74C196.301 61.524 195.821 61.416 195.277 61.416C194.781 61.416 194.325 61.512 193.909 61.704C193.493 61.896 193.145 62.168 192.865 62.52C192.585 62.872 192.393 63.288 192.289 63.768L193.357 64.044C193.485 63.54 193.717 63.152 194.053 62.88C194.389 62.6 194.797 62.46 195.277 62.46C195.749 62.46 196.129 62.592 196.417 62.856C196.705 63.12 196.849 63.496 196.849 63.984C196.849 64.28 196.781 64.56 196.645 64.824C196.509 65.088 196.293 65.388 195.997 65.724C195.701 66.06 195.313 66.488 194.833 67.008L192.361 69.684V70.5ZM201.967 70.5H203.143V67.08H205.123C205.715 67.08 206.235 66.968 206.683 66.744C207.131 66.52 207.479 66.2 207.727 65.784C207.983 65.368 208.111 64.88 208.111 64.32C208.111 63.752 207.983 63.264 207.727 62.856C207.479 62.44 207.131 62.12 206.683 61.896C206.235 61.672 205.715 61.56 205.123 61.56H201.967V70.5ZM203.143 66V62.64H205.159C205.695 62.64 206.123 62.792 206.443 63.096C206.763 63.392 206.923 63.8 206.923 64.32C206.923 64.832 206.763 65.24 206.443 65.544C206.123 65.848 205.695 66 205.159 66H203.143ZM209.701 70.5H210.877V63.708L213.793 67.86H213.889L216.793 63.768V70.5H217.981V61.56H216.901L213.853 65.928L210.781 61.56H209.701V70.5Z" fill="#1F1E31"/>
<rect x="185" y="82.5" width="32" height="32" rx="16" fill="#FED402"/>
<path d="M262.824 140.5H264.696V128.58H260.536V130.18H262.824V140.5ZM272.017 140.692C272.967 140.692 273.793 140.436 274.497 139.924C275.212 139.401 275.767 138.681 276.161 137.764C276.556 136.836 276.753 135.759 276.753 134.532C276.753 133.305 276.556 132.233 276.161 131.316C275.767 130.388 275.212 129.668 274.497 129.156C273.783 128.644 272.951 128.388 272.001 128.388C271.063 128.388 270.236 128.644 269.521 129.156C268.807 129.668 268.247 130.383 267.841 131.3C267.447 132.217 267.249 133.295 267.249 134.532C267.249 135.759 267.447 136.836 267.841 137.764C268.247 138.681 268.807 139.401 269.521 139.924C270.247 140.436 271.079 140.692 272.017 140.692ZM272.017 138.964C271.431 138.964 270.919 138.783 270.481 138.42C270.055 138.057 269.724 137.545 269.489 136.884C269.255 136.212 269.137 135.428 269.137 134.532C269.137 133.167 269.393 132.089 269.905 131.3C270.428 130.5 271.127 130.1 272.001 130.1C272.599 130.1 273.111 130.281 273.537 130.644C273.964 131.007 274.295 131.519 274.529 132.18C274.764 132.841 274.881 133.625 274.881 134.532C274.881 135.887 274.625 136.964 274.113 137.764C273.601 138.564 272.903 138.964 272.017 138.964ZM281.871 133.636C282.361 133.636 282.804 133.519 283.199 133.284C283.604 133.049 283.924 132.735 284.159 132.34C284.393 131.945 284.511 131.503 284.511 131.012C284.511 130.521 284.393 130.079 284.159 129.684C283.924 129.289 283.604 128.975 283.199 128.74C282.804 128.505 282.361 128.388 281.871 128.388C281.38 128.388 280.932 128.505 280.527 128.74C280.132 128.975 279.817 129.289 279.583 129.684C279.348 130.079 279.231 130.521 279.231 131.012C279.231 131.503 279.348 131.945 279.583 132.34C279.817 132.735 280.132 133.049 280.527 133.284C280.932 133.519 281.38 133.636 281.871 133.636ZM281.855 132.34C281.492 132.34 281.177 132.217 280.911 131.972C280.655 131.727 280.527 131.407 280.527 131.012C280.527 130.628 280.655 130.313 280.911 130.068C281.177 129.812 281.492 129.684 281.855 129.684C282.228 129.684 282.543 129.812 282.799 130.068C283.065 130.313 283.199 130.628 283.199 131.012C283.199 131.407 283.065 131.727 282.799 131.972C282.543 132.217 282.228 132.34 281.855 132.34Z" fill="#1F1E31"/>
<path opacity="0.87" d="M259.815 70.644C260.527 70.644 261.147 70.452 261.675 70.068C262.203 69.684 262.615 69.144 262.911 68.448C263.207 67.752 263.355 66.944 263.355 66.024C263.355 65.104 263.207 64.3 262.911 63.612C262.615 62.916 262.199 62.376 261.663 61.992C261.135 61.608 260.515 61.416 259.803 61.416C259.099 61.416 258.479 61.608 257.943 61.992C257.415 62.376 257.003 62.916 256.707 63.612C256.411 64.3 256.263 65.104 256.263 66.024C256.263 66.944 256.411 67.752 256.707 68.448C257.003 69.136 257.419 69.676 257.955 70.068C258.491 70.452 259.111 70.644 259.815 70.644ZM259.815 69.552C259.335 69.552 258.915 69.408 258.555 69.12C258.203 68.824 257.927 68.412 257.727 67.884C257.535 67.348 257.439 66.728 257.439 66.024C257.439 65.312 257.535 64.696 257.727 64.176C257.927 63.648 258.203 63.24 258.555 62.952C258.915 62.656 259.331 62.508 259.803 62.508C260.283 62.508 260.699 62.656 261.051 62.952C261.411 63.24 261.687 63.648 261.879 64.176C262.079 64.696 262.179 65.312 262.179 66.024C262.179 66.736 262.079 67.356 261.879 67.884C261.687 68.412 261.415 68.824 261.063 69.12C260.711 69.408 260.295 69.552 259.815 69.552ZM267.671 70.644C268.271 70.644 268.803 70.516 269.267 70.26C269.731 70.004 270.095 69.656 270.359 69.216C270.623 68.776 270.755 68.284 270.755 67.74C270.755 67.252 270.651 66.816 270.443 66.432C270.243 66.048 269.959 65.74 269.591 65.508C269.231 65.268 268.815 65.12 268.343 65.064L270.383 62.544V61.56H265.091V62.58H269.051L266.663 65.496L266.915 66.036C267.011 66.012 267.127 65.992 267.263 65.976C267.399 65.952 267.531 65.94 267.659 65.94C268.219 65.94 268.679 66.1 269.039 66.42C269.399 66.732 269.579 67.18 269.579 67.764C269.579 68.34 269.399 68.788 269.039 69.108C268.687 69.428 268.231 69.588 267.671 69.588C267.207 69.588 266.791 69.464 266.423 69.216C266.063 68.96 265.799 68.612 265.631 68.172L264.635 68.58C264.843 69.22 265.223 69.724 265.775 70.092C266.335 70.46 266.967 70.644 267.671 70.644ZM274.537 70.5H275.713V67.08H277.693C278.285 67.08 278.805 66.968 279.253 66.744C279.701 66.52 280.049 66.2 280.297 65.784C280.553 65.368 280.681 64.88 280.681 64.32C280.681 63.752 280.553 63.264 280.297 62.856C280.049 62.44 279.701 62.12 279.253 61.896C278.805 61.672 278.285 61.56 277.693 61.56H274.537V70.5ZM275.713 66V62.64H277.729C278.265 62.64 278.693 62.792 279.013 63.096C279.333 63.392 279.493 63.8 279.493 64.32C279.493 64.832 279.333 65.24 279.013 65.544C278.693 65.848 278.265 66 277.729 66H275.713ZM282.271 70.5H283.447V63.708L286.363 67.86H286.459L289.363 63.768V70.5H290.551V61.56H289.471L286.423 65.928L283.351 61.56H282.271V70.5Z" fill="#1F1E31"/>
<rect x="257" y="82.5" width="32" height="32" rx="16" fill="#FED402"/>
</svg>
