<svg width="104" height="84" viewBox="0 0 104 84" fill="none" xmlns="http://www.w3.org/2000/svg">
<path fill-rule="evenodd" clip-rule="evenodd" d="M24.8297 7.66296C33.0058 2.65251 42.4082 0.000468316 51.9975 6.20182e-08C61.5867 -0.000468192 70.9894 2.65065 79.166 7.6603C87.3426 12.67 93.9748 19.843 98.3293 28.3865C102.684 36.9301 104.591 46.5113 103.84 56.0711C103.09 65.631 99.7101 74.797 94.0753 82.5561C93.4262 83.4498 92.1755 83.6482 91.2818 82.9991C90.388 82.3501 90.1897 81.0994 90.8387 80.2056C96.0401 73.0434 99.1597 64.5824 99.8527 55.758C100.546 46.9335 98.7851 38.0893 94.7655 30.203C90.746 22.3166 84.624 15.6953 77.0763 11.071C69.5287 6.44676 60.8493 3.99957 51.9977 4C43.1461 4.00043 34.4669 6.44847 26.9197 11.0735C19.3725 15.6985 13.2512 22.3204 9.23238 30.2071C5.21358 38.0939 3.45386 46.9383 4.14772 55.7627C4.84159 64.587 7.96203 73.0477 13.1641 80.2094C13.8132 81.1031 13.615 82.3538 12.7213 83.003C11.8276 83.6521 10.5769 83.4539 9.92776 82.5602C4.29219 74.8017 0.911721 65.636 0.160032 56.0762C-0.591657 46.5165 1.31471 36.935 5.66841 28.3911C10.0221 19.8471 16.6536 12.6734 24.8297 7.66296Z" fill="url(#paint0_linear_1_4)"/>
<path d="M59.5138 56H61.2938L63.8538 47.88L66.4138 56H68.1938L71.8938 45.22H69.8538L67.2538 53.12L64.7338 45.22H62.9738L60.4538 53.12L57.8738 45.22H55.8138L59.5138 56Z" fill="black"/>
<path d="M49.2631 56.24C50.2765 56.24 51.2031 56 52.0431 55.52C52.8831 55.04 53.5498 54.3733 54.0431 53.52C54.5498 52.6667 54.8031 51.6933 54.8031 50.6C54.8031 49.52 54.5565 48.56 54.0631 47.72C53.5831 46.8667 52.9231 46.2 52.0831 45.72C51.2431 45.2267 50.3031 44.98 49.2631 44.98C48.2098 44.98 47.2631 45.2267 46.4231 45.72C45.5831 46.2 44.9165 46.8667 44.4231 47.72C43.9431 48.56 43.7031 49.52 43.7031 50.6C43.7031 51.68 43.9498 52.6467 44.4431 53.5C44.9365 54.3533 45.6031 55.0267 46.4431 55.52C47.2831 56 48.2231 56.24 49.2631 56.24ZM49.2631 54.44C48.5831 54.44 47.9698 54.2733 47.4231 53.94C46.8898 53.6067 46.4631 53.1533 46.1431 52.58C45.8231 51.9933 45.6631 51.3333 45.6631 50.6C45.6631 49.8667 45.8231 49.2133 46.1431 48.64C46.4631 48.0667 46.8898 47.6133 47.4231 47.28C47.9698 46.9467 48.5831 46.78 49.2631 46.78C49.9298 46.78 50.5298 46.9467 51.0631 47.28C51.6098 47.6133 52.0365 48.0667 52.3431 48.64C52.6631 49.2133 52.8231 49.8667 52.8231 50.6C52.8231 51.3333 52.6631 51.9933 52.3431 52.58C52.0365 53.1533 51.6098 53.6067 51.0631 53.94C50.5298 54.2733 49.9298 54.44 49.2631 54.44Z" fill="black"/>
<path d="M33.66 56H42.16V54.2H35.62V41.1H33.66V56Z" fill="black"/>
<path d="M15 79.5C15 81.9853 12.9853 84 10.5 84C8.01472 84 6 81.9853 6 79.5C6 77.0147 8.01472 75 10.5 75C12.9853 75 15 77.0147 15 79.5Z" fill="white"/>
<path fill-rule="evenodd" clip-rule="evenodd" d="M10.5 83C12.433 83 14 81.433 14 79.5C14 77.567 12.433 76 10.5 76C8.567 76 7 77.567 7 79.5C7 81.433 8.567 83 10.5 83ZM10.5 84C12.9853 84 15 81.9853 15 79.5C15 77.0147 12.9853 75 10.5 75C8.01472 75 6 77.0147 6 79.5C6 81.9853 8.01472 84 10.5 84Z" fill="#ECF3F8"/>
<defs>
<linearGradient id="paint0_linear_1_4" x1="3.5" y1="82" x2="107" y2="81" gradientUnits="userSpaceOnUse">
<stop offset="0.0356153" stop-color="#4CB482"/>
<stop offset="0.119937" stop-color="#ADBA5D"/>
<stop offset="0.179987" stop-color="#B3BF6A"/>
<stop offset="0.324432" stop-color="#F4FF73"/>
<stop offset="0.483771" stop-color="#FFBC58"/>
<stop offset="0.650631" stop-color="#FFA552"/>
<stop offset="0.791361" stop-color="#FF843F"/>
<stop offset="1" stop-color="#FF4E43"/>
</linearGradient>
</defs>
</svg>
