<svg width="132" height="36" viewBox="0 0 132 36" fill="none" xmlns="http://www.w3.org/2000/svg">
<g id="Group 770551">
<path id="Cuacane" d="M56.22 26.24C59.44 26.24 61.82 24.46 62.6 22.26L59.86 20.94C59.34 22.38 58.02 23.44 56.22 23.44C53.58 23.44 51.8 21.46 51.8 18.54C51.8 15.64 53.58 13.66 56.22 13.66C58.02 13.66 59.34 14.72 59.86 16.16L62.6 14.84C61.82 12.64 59.44 10.86 56.22 10.86C51.9 10.86 48.7 14.1 48.7 18.54C48.7 22.96 51.94 26.24 56.22 26.24ZM70.9953 15.08V21.46C70.9953 22.72 70.1753 23.54 68.9953 23.54C67.8153 23.54 66.9953 22.72 66.9953 21.46V15.08H63.9953V21.72C63.9953 24.4 65.6953 26.24 68.1953 26.24C69.5553 26.24 70.6353 25.7 71.1953 24.68V26H73.9953V15.08H70.9953ZM80.6322 14.84C78.3122 14.84 76.4322 16 75.7922 17.8L78.3722 19.04C78.6922 18.06 79.5722 17.44 80.6322 17.44C81.6322 17.44 82.3122 17.98 82.3122 18.8V19.16L78.8922 19.88C76.6722 20.34 75.3922 21.4 75.3922 23.02C75.3922 24.84 76.9522 26.24 79.4322 26.24C80.6922 26.24 81.6922 25.86 82.5122 25V26H85.3122V18.8C85.3122 16.46 83.4122 14.84 80.6322 14.84ZM79.8922 24.04C79.0322 24.04 78.4922 23.64 78.4922 22.98C78.4922 22.48 78.8122 22.1 79.4322 21.96L82.3122 21.32V21.84C82.3122 23.06 81.2522 24.04 79.8922 24.04ZM92.0902 26.24C94.5702 26.24 96.5702 24.84 97.1902 22.9L94.6302 21.64C94.2902 22.8 93.3302 23.54 92.0902 23.54C90.5102 23.54 89.4102 22.3 89.4102 20.54C89.4102 18.78 90.5102 17.54 92.0902 17.54C93.3102 17.54 94.2902 18.28 94.6302 19.44L97.1902 18.2C96.5302 16.18 94.5302 14.84 92.0902 14.84C88.7902 14.84 86.3102 17.28 86.3102 20.52C86.3102 23.78 88.8102 26.24 92.0902 26.24ZM103.035 14.84C100.715 14.84 98.8345 16 98.1945 17.8L100.775 19.04C101.095 18.06 101.975 17.44 103.035 17.44C104.035 17.44 104.715 17.98 104.715 18.8V19.16L101.295 19.88C99.0745 20.34 97.7945 21.4 97.7945 23.02C97.7945 24.84 99.3545 26.24 101.835 26.24C103.095 26.24 104.095 25.86 104.915 25V26H107.715V18.8C107.715 16.46 105.815 14.84 103.035 14.84ZM102.295 24.04C101.435 24.04 100.895 23.64 100.895 22.98C100.895 22.48 101.215 22.1 101.835 21.96L104.715 21.32V21.84C104.715 23.06 103.655 24.04 102.295 24.04ZM115.173 14.84C113.793 14.84 112.673 15.34 112.113 16.4V15.08H109.313V26H112.313V19.62C112.313 18.36 113.133 17.54 114.313 17.54C115.493 17.54 116.313 18.36 116.313 19.62V26H119.313V18.98C119.313 16.5 117.633 14.84 115.173 14.84ZM131.449 20.22C131.449 17.2 129.089 14.84 126.029 14.84C122.909 14.84 120.509 17.26 120.509 20.52C120.509 23.68 122.769 26.24 126.229 26.24C128.469 26.24 130.269 25.18 130.929 23.58L128.529 22.44C128.109 23.18 127.329 23.64 126.269 23.64C124.789 23.64 123.809 22.76 123.629 21.38H131.309C131.409 21.08 131.449 20.66 131.449 20.22ZM123.689 19.18C123.989 17.92 124.849 17.24 126.029 17.24C127.269 17.24 128.149 18.02 128.269 19.18H123.689Z" fill="#1F1E31"/>
<circle id="Ellipse 125" cx="18" cy="18" r="18" fill="#C4E2FF"/>
</g>
</svg>
