<svg width="100" height="100" viewBox="0 0 100 100" fill="none" xmlns="http://www.w3.org/2000/svg">
<path d="M47.0663 21H48.2423V14.304L52.9463 21H53.9303V12.06H52.7423V18.66L48.0503 12.06H47.0663V21Z" fill="black"/>
<path d="M14.64 52H15.948L17.976 44.728L20.004 52H21.312L23.82 43.06H22.584L20.616 50.38L18.6 43.06H17.364L15.324 50.404L13.368 43.06H12.132L14.64 52Z" fill="black"/>
<path d="M81.7187 52H87.5387V50.92H82.8947V48.052H87.2987V46.972H82.8947V44.14H87.5387V43.06H81.7187V52Z" fill="black"/>
<path d="M50.1891 88.144C50.7731 88.144 51.2851 88.04 51.7251 87.832C52.1731 87.616 52.5211 87.32 52.7691 86.944C53.0251 86.568 53.1531 86.136 53.1531 85.648C53.1531 84.48 52.4411 83.676 51.0171 83.236L49.5171 82.792C49.0931 82.656 48.7771 82.46 48.5691 82.204C48.3611 81.94 48.2571 81.648 48.2571 81.328C48.2571 80.912 48.4051 80.584 48.7011 80.344C48.9971 80.096 49.3851 79.972 49.8651 79.972C50.3851 79.972 50.8371 80.104 51.2211 80.368C51.6131 80.632 51.9011 81.012 52.0851 81.508L53.0931 81.088C52.9571 80.68 52.7331 80.312 52.4211 79.984C52.1171 79.656 51.7451 79.396 51.3051 79.204C50.8731 79.012 50.3891 78.916 49.8531 78.916C49.3171 78.916 48.8371 79.024 48.4131 79.24C47.9971 79.448 47.6691 79.74 47.4291 80.116C47.1971 80.484 47.0811 80.912 47.0811 81.4C47.0811 81.96 47.2531 82.456 47.5971 82.888C47.9411 83.32 48.4371 83.636 49.0851 83.836L50.7291 84.34C51.1291 84.46 51.4371 84.628 51.6531 84.844C51.8691 85.06 51.9771 85.356 51.9771 85.732C51.9771 86.148 51.8131 86.48 51.4851 86.728C51.1651 86.968 50.7411 87.088 50.2131 87.088C49.6371 87.088 49.1331 86.936 48.7011 86.632C48.2691 86.32 47.9491 85.876 47.7411 85.3L46.7211 85.72C46.8651 86.176 47.1011 86.588 47.4291 86.956C47.7571 87.316 48.1571 87.604 48.6291 87.82C49.1011 88.036 49.6211 88.144 50.1891 88.144Z" fill="black"/>
<path fill-rule="evenodd" clip-rule="evenodd" d="M99.9905 50.9853L91.992 50.8307C91.9973 50.5545 92 50.2776 92 50C92 49.7224 91.9973 49.4455 91.992 49.1693L99.9905 49.0147C99.9968 49.3424 100 49.6708 100 50C100 50.3292 99.9968 50.6576 99.9905 50.9853ZM99.9147 47.0544L91.9281 47.5183C91.8961 46.9664 91.8534 46.4176 91.8003 45.8722L99.7627 45.0973C99.8258 45.7461 99.8766 46.3985 99.9147 47.0544ZM99.534 43.1455L91.6082 44.2321C91.5332 43.6856 91.4478 43.1426 91.3521 42.6033L99.2291 41.2056C99.3431 41.8481 99.4448 42.4948 99.534 43.1455ZM98.8481 39.28L91.0324 40.9874C90.915 40.4497 90.7872 39.9159 90.6494 39.3863L98.3915 37.3716C98.5559 38.0029 98.7081 38.6392 98.8481 39.28ZM97.8593 35.4809L90.203 37.8005C90.0434 37.2738 89.8738 36.7514 89.6942 36.2336L97.2527 33.6127C97.4668 34.23 97.6691 34.8528 97.8593 35.4809ZM96.5728 31.7706L89.1239 34.6885C88.9234 34.1764 88.713 33.6692 88.493 33.167L95.8208 29.9572C96.083 30.5556 96.3337 31.1602 96.5728 31.7706ZM94.9979 28.175L87.8024 31.6715C87.562 31.1766 87.312 30.6871 87.0528 30.2032L94.1049 26.426C94.4137 27.0023 94.7114 27.5854 94.9979 28.175ZM93.1438 24.7134L86.2457 28.7651C85.967 28.2906 85.6792 27.822 85.3825 27.3595L92.1162 23.0401C92.4694 23.5906 92.812 24.1484 93.1438 24.7134ZM91.0239 21.4085L84.4647 25.9885C84.1496 25.5372 83.8258 25.0924 83.4936 24.6542L89.8686 19.821C90.2638 20.3423 90.649 20.8716 91.0239 21.4085ZM88.652 18.2798L82.4708 23.3585C82.1212 22.9331 81.7635 22.5146 81.3978 22.1034L87.376 16.7872C87.8109 17.2763 88.2363 17.7739 88.652 18.2798ZM86.0428 15.3456C85.589 14.8739 85.1261 14.411 84.6544 13.9572L79.109 19.7234C79.5057 20.105 79.895 20.4943 80.2766 20.891L86.0428 15.3456ZM83.2128 12.624L77.8966 18.6022C77.4854 18.2365 77.0669 17.8787 76.6415 17.5292L81.7202 11.348C82.2261 11.7637 82.7237 12.1891 83.2128 12.624ZM80.1789 10.1314L75.3458 16.5064C74.9076 16.1742 74.4628 15.8504 74.0115 15.5353L78.5915 8.97605C79.1284 9.35098 79.6577 9.73619 80.1789 10.1314ZM76.9599 7.88375L72.6405 14.6175C72.178 14.3208 71.7094 14.033 71.2349 13.7543L75.2866 6.8562C75.8516 7.18803 76.4094 7.53064 76.9599 7.88375ZM73.574 5.89505L69.7968 12.9472C69.3129 12.688 68.8234 12.438 68.3285 12.1976L71.825 5.00212C72.4146 5.28861 72.9977 5.58634 73.574 5.89505ZM70.0428 4.17917L66.833 11.507C66.3308 11.287 65.8236 11.0766 65.3115 10.8761L68.2294 3.42715C68.8398 3.66626 69.4444 3.91703 70.0428 4.17917ZM66.3873 2.74729L63.7664 10.3058C63.2486 10.1262 62.7262 9.95657 62.1995 9.79698L64.5191 2.14066C65.1472 2.33093 65.77 2.53323 66.3873 2.74729ZM62.6284 1.60846L60.6137 9.3506C60.0841 9.21278 59.5503 9.08503 59.0126 8.96757L60.72 1.15188C61.3608 1.29187 61.997 1.44415 62.6284 1.60846ZM58.7944 0.770902L57.3967 8.64786C56.8574 8.55217 56.3144 8.46675 55.7679 8.39182L56.8545 0.465958C57.5052 0.555169 58.1519 0.656901 58.7944 0.770902ZM54.9028 0.237317L54.1278 8.1997C53.5824 8.14662 53.0336 8.10393 52.4817 8.07186L52.9457 0.0853294C53.6015 0.123431 54.2539 0.174173 54.9028 0.237317ZM50.9853 0.0095139L50.8307 8.00802C50.5545 8.00268 50.2776 8 50 8C49.7224 8 49.4455 8.00268 49.1693 8.00802L49.0147 0.00951367C49.3424 0.00318091 49.6708 0 50 0C50.3292 0 50.6576 0.00318099 50.9853 0.0095139ZM47.0544 0.0853288L47.5183 8.07186C46.9664 8.10393 46.4176 8.14662 45.8722 8.1997L45.0973 0.237316C45.7461 0.174173 46.3985 0.12343 47.0544 0.0853288ZM43.1455 0.465957L44.2321 8.39182C43.6856 8.46675 43.1426 8.55217 42.6033 8.64786L41.2056 0.770901C41.8481 0.6569 42.4948 0.555168 43.1455 0.465957ZM39.28 1.15188L40.9874 8.96757C40.4497 9.08503 39.9159 9.21278 39.3863 9.3506L37.3716 1.60846C38.0029 1.44415 38.6392 1.29187 39.28 1.15188ZM35.4808 2.14066L37.8005 9.79698C37.2738 9.95657 36.7514 10.1262 36.2336 10.3058L33.6127 2.74729C34.23 2.53323 34.8528 2.33094 35.4808 2.14066ZM31.7706 3.42716L34.6885 10.8761C34.1764 11.0766 33.6692 11.287 33.167 11.507L29.9572 4.17917C30.5556 3.91703 31.1602 3.66626 31.7706 3.42716ZM28.175 5.00212L31.6715 12.1976C31.1766 12.4381 30.6871 12.688 30.2032 12.9472L26.426 5.89505C27.0023 5.58635 27.5854 5.28861 28.175 5.00212ZM24.7134 6.8562L28.7651 13.7543C28.2906 14.033 27.822 14.3208 27.3595 14.6175L23.0401 7.88375C23.5906 7.53064 24.1484 7.18803 24.7134 6.8562ZM21.4085 8.97605L25.9885 15.5353C25.5372 15.8504 25.0924 16.1742 24.6542 16.5064L19.821 10.1314C20.3423 9.73619 20.8716 9.35099 21.4085 8.97605ZM18.2798 11.348L23.3585 17.5292C22.9331 17.8788 22.5146 18.2365 22.1034 18.6022L16.7872 12.624C17.2763 12.1891 17.7739 11.7637 18.2798 11.348ZM15.3456 13.9572L20.891 19.7234C20.4943 20.105 20.105 20.4943 19.7234 20.891L13.9572 15.3456C14.411 14.8739 14.8739 14.411 15.3456 13.9572ZM12.624 16.7872L18.6022 22.1034C18.2365 22.5146 17.8787 22.9331 17.5292 23.3585L11.348 18.2798C11.7637 17.7739 12.1891 17.2763 12.624 16.7872ZM10.1314 19.821L16.5064 24.6542C16.1742 25.0924 15.8504 25.5372 15.5353 25.9885L8.97605 21.4085C9.35098 20.8716 9.73619 20.3423 10.1314 19.821ZM7.88375 23.0401L14.6175 27.3595C14.3208 27.822 14.033 28.2906 13.7543 28.7651L6.8562 24.7134C7.18803 24.1484 7.53064 23.5906 7.88375 23.0401ZM5.89505 26.426L12.9472 30.2032C12.688 30.6871 12.438 31.1766 12.1976 31.6715L5.00212 28.175C5.28861 27.5854 5.58634 27.0023 5.89505 26.426ZM4.17917 29.9572L11.507 33.167C11.287 33.6692 11.0766 34.1764 10.8761 34.6885L3.42715 31.7706C3.66626 31.1602 3.91703 30.5556 4.17917 29.9572ZM2.74728 33.6127L10.3058 36.2336C10.1262 36.7514 9.95657 37.2738 9.79698 37.8005L2.14066 35.4809C2.33093 34.8528 2.53323 34.23 2.74728 33.6127ZM1.60846 37.3716L9.3506 39.3863C9.21278 39.9159 9.08503 40.4497 8.96757 40.9874L1.15188 39.28C1.29187 38.6392 1.44415 38.003 1.60846 37.3716ZM0.770902 41.2056L8.64786 42.6033C8.55217 43.1426 8.46675 43.6856 8.39182 44.2321L0.465958 43.1455C0.555169 42.4948 0.656901 41.8481 0.770902 41.2056ZM0.237317 45.0972L8.1997 45.8722C8.14662 46.4176 8.10393 46.9664 8.07186 47.5183L0.0853294 47.0543C0.123431 46.3985 0.174173 45.7461 0.237317 45.0972ZM0.00951389 49.0147C0.00318099 49.3424 0 49.6708 0 50C0 50.3292 0.00318091 50.6576 0.00951367 50.9853L8.00802 50.8307C8.00268 50.5545 8 50.2776 8 50C8 49.7224 8.00268 49.4455 8.00802 49.1693L0.00951389 49.0147ZM0.0853288 52.9456L8.07186 52.4817C8.10393 53.0336 8.14662 53.5824 8.1997 54.1278L0.237316 54.9027C0.174173 54.2539 0.12343 53.6015 0.0853288 52.9456ZM0.465957 56.8545L8.39182 55.7679C8.46675 56.3144 8.55217 56.8574 8.64786 57.3967L0.770902 58.7944C0.6569 58.1519 0.555168 57.5052 0.465957 56.8545ZM1.15188 60.72L8.96757 59.0126C9.08503 59.5503 9.21278 60.0841 9.3506 60.6137L1.60846 62.6284C1.44415 61.9971 1.29187 61.3608 1.15188 60.72ZM2.14066 64.5191L9.79698 62.1995C9.95657 62.7262 10.1262 63.2486 10.3058 63.7664L2.74729 66.3873C2.53323 65.77 2.33094 65.1472 2.14066 64.5191ZM3.42716 68.2294L10.8761 65.3115C11.0766 65.8236 11.287 66.3308 11.507 66.833L4.17917 70.0428C3.91703 69.4444 3.66626 68.8398 3.42716 68.2294ZM5.00212 71.825L12.1976 68.3285C12.4381 68.8234 12.688 69.3129 12.9472 69.7968L5.89505 73.574C5.58635 72.9977 5.28861 72.4146 5.00212 71.825ZM6.8562 75.2866L13.7543 71.2349C14.033 71.7094 14.3208 72.178 14.6175 72.6405L7.88375 76.9599C7.53064 76.4094 7.18803 75.8516 6.8562 75.2866ZM8.97606 78.5915L15.5353 74.0115C15.8504 74.4628 16.1742 74.9076 16.5064 75.3458L10.1314 80.179C9.73619 79.6577 9.35099 79.1284 8.97606 78.5915ZM11.348 81.7202L17.5292 76.6415C17.8788 77.0669 18.2365 77.4854 18.6022 77.8967L12.624 83.2128C12.1891 82.7237 11.7637 82.2261 11.348 81.7202ZM13.9572 84.6544L19.7234 79.109C20.105 79.5057 20.4943 79.895 20.891 80.2766L15.3456 86.0428C14.8739 85.5891 14.411 85.1261 13.9572 84.6544ZM16.7872 87.376L22.1034 81.3978C22.5146 81.7635 22.9331 82.1213 23.3585 82.4708L18.2798 88.652C17.7739 88.2363 17.2763 87.8109 16.7872 87.376ZM19.821 89.8686L24.6542 83.4936C25.0924 83.8258 25.5372 84.1496 25.9885 84.4647L21.4085 91.0239C20.8716 90.649 20.3423 90.2638 19.821 89.8686ZM23.0401 92.1162L27.3595 85.3825C27.822 85.6792 28.2906 85.967 28.7651 86.2457L24.7134 93.1438C24.1484 92.812 23.5906 92.4694 23.0401 92.1162ZM26.426 94.1049L30.2032 87.0528C30.6871 87.312 31.1766 87.562 31.6715 87.8024L28.175 94.9979C27.5854 94.7114 27.0023 94.4137 26.426 94.1049ZM29.9572 95.8208L33.167 88.493C33.6692 88.713 34.1764 88.9234 34.6885 89.1239L31.7706 96.5728C31.1602 96.3337 30.5556 96.083 29.9572 95.8208ZM33.6127 97.2527L36.2336 89.6942C36.7514 89.8738 37.2738 90.0434 37.8005 90.203L35.4809 97.8593C34.8528 97.6691 34.23 97.4668 33.6127 97.2527ZM37.3716 98.3915L39.3863 90.6494C39.9159 90.7872 40.4497 90.915 40.9874 91.0324L39.28 98.8481C38.6392 98.7081 38.003 98.5559 37.3716 98.3915ZM41.2056 99.2291L42.6033 91.3521C43.1426 91.4478 43.6856 91.5332 44.2321 91.6082L43.1455 99.534C42.4948 99.4448 41.8481 99.3431 41.2056 99.2291ZM45.0972 99.7627L45.8722 91.8003C46.4176 91.8534 46.9664 91.8961 47.5183 91.9281L47.0543 99.9147C46.3985 99.8766 45.7461 99.8258 45.0972 99.7627ZM49.0147 99.9905L49.1693 91.992C49.4455 91.9973 49.7224 92 50 92C50.2776 92 50.5545 91.9973 50.8307 91.992L50.9853 99.9905C50.6576 99.9968 50.3292 100 50 100C49.6708 100 49.3424 99.9968 49.0147 99.9905ZM52.9456 99.9147L52.4817 91.9281C53.0336 91.8961 53.5824 91.8534 54.1278 91.8003L54.9027 99.7627C54.2539 99.8258 53.6015 99.8766 52.9456 99.9147ZM56.8545 99.534L55.7679 91.6082C56.3144 91.5332 56.8574 91.4478 57.3967 91.3521L58.7944 99.2291C58.1519 99.3431 57.5052 99.4448 56.8545 99.534ZM60.72 98.8481L59.0126 91.0324C59.5503 90.915 60.0841 90.7872 60.6137 90.6494L62.6284 98.3915C61.9971 98.5559 61.3608 98.7081 60.72 98.8481ZM64.5191 97.8593L62.1995 90.203C62.7262 90.0434 63.2486 89.8738 63.7664 89.6942L66.3873 97.2527C65.77 97.4668 65.1472 97.6691 64.5191 97.8593ZM68.2294 96.5728L65.3115 89.1239C65.8236 88.9234 66.3308 88.713 66.833 88.493L70.0428 95.8208C69.4444 96.083 68.8398 96.3337 68.2294 96.5728ZM71.825 94.9979L68.3285 87.8024C68.8234 87.562 69.3129 87.312 69.7968 87.0528L73.574 94.1049C72.9977 94.4137 72.4146 94.7114 71.825 94.9979ZM75.2866 93.1438L71.2349 86.2457C71.7094 85.967 72.178 85.6792 72.6405 85.3825L76.9599 92.1162C76.4094 92.4694 75.8516 92.812 75.2866 93.1438ZM78.5915 91.0239L74.0115 84.4647C74.4628 84.1496 74.9076 83.8258 75.3458 83.4936L80.179 89.8686C79.6577 90.2638 79.1284 90.649 78.5915 91.0239ZM81.7202 88.652L76.6415 82.4708C77.0669 82.1212 77.4854 81.7635 77.8967 81.3978L83.2128 87.376C82.7237 87.8109 82.2261 88.2363 81.7202 88.652ZM84.6544 86.0428C85.1261 85.589 85.5891 85.1261 86.0428 84.6544L80.2766 79.109C79.895 79.5057 79.5057 79.895 79.109 80.2766L84.6544 86.0428ZM87.376 83.2128L81.3978 77.8966C81.7635 77.4854 82.1213 77.0669 82.4708 76.6415L88.652 81.7202C88.2363 82.2261 87.8109 82.7237 87.376 83.2128ZM89.8686 80.179L83.4936 75.3458C83.8258 74.9076 84.1496 74.4628 84.4647 74.0115L91.0239 78.5915C90.649 79.1284 90.2638 79.6577 89.8686 80.179ZM92.1162 76.9599L85.3825 72.6405C85.6792 72.178 85.967 71.7094 86.2457 71.2349L93.1438 75.2866C92.812 75.8516 92.4694 76.4094 92.1162 76.9599ZM94.1049 73.574L87.0528 69.7968C87.312 69.3129 87.562 68.8234 87.8024 68.3285L94.9979 71.825C94.7114 72.4146 94.4137 72.9977 94.1049 73.574ZM95.8208 70.0428L88.493 66.833C88.713 66.3308 88.9234 65.8236 89.1239 65.3115L96.5728 68.2294C96.3337 68.8398 96.083 69.4444 95.8208 70.0428ZM97.2527 66.3873L89.6942 63.7664C89.8738 63.2486 90.0434 62.7262 90.203 62.1995L97.8593 64.5191C97.6691 65.1472 97.4668 65.77 97.2527 66.3873ZM98.3915 62.6284L90.6494 60.6137C90.7872 60.0841 90.915 59.5503 91.0324 59.0126L98.8481 60.72C98.7081 61.3608 98.5559 61.997 98.3915 62.6284ZM99.2291 58.7944L91.3521 57.3967C91.4478 56.8574 91.5332 56.3144 91.6082 55.7679L99.534 56.8545C99.4448 57.5052 99.3431 58.1519 99.2291 58.7944ZM99.7627 54.9028L91.8003 54.1278C91.8534 53.5824 91.8961 53.0336 91.9281 52.4817L99.9147 52.9457C99.8766 53.6015 99.8258 54.2539 99.7627 54.9028Z" fill="#C4E2FF"/>
<path fill-rule="evenodd" clip-rule="evenodd" d="M72.7344 19.0338L84 16.5L80.5615 27.5232L77.3258 24.0137L14.1779 82.2352L12.8222 80.7648L75.9701 22.5433L72.7344 19.0338Z" fill="#24609B"/>
<path d="M18 80C18 81.6569 16.6569 83 15 83C13.3431 83 12 81.6569 12 80C12 78.3431 13.3431 77 15 77C16.6569 77 18 78.3431 18 80Z" fill="white"/>
<path fill-rule="evenodd" clip-rule="evenodd" d="M15 82C16.1046 82 17 81.1046 17 80C17 78.8954 16.1046 78 15 78C13.8954 78 13 78.8954 13 80C13 81.1046 13.8954 82 15 82ZM15 83C16.6569 83 18 81.6569 18 80C18 78.3431 16.6569 77 15 77C13.3431 77 12 78.3431 12 80C12 81.6569 13.3431 83 15 83Z" fill="#24609B"/>
</svg>
